<?xml version="1.0" standalone="no"?>
<!DOCTYPE svg PUBLIC "-//W3C//DTD SVG 20010904//EN"
 "http://www.w3.org/TR/2001/REC-SVG-20010904/DTD/svg10.dtd">
<svg version="1.0" xmlns="http://www.w3.org/2000/svg"
 width="102.000000pt" height="102.000000pt" viewBox="0 0 102.000000 102.000000"
 preserveAspectRatio="xMidYMid meet">
<metadata>
Created by potrace 1.11, written by Peter Selinger 2001-2013
</metadata>
<g transform="translate(0.000000,102.000000) scale(0.100000,-0.100000)"
fill="#000000" stroke="none">
<path d="M420 973 c-129 -43 -199 -146 -204 -296 l-3 -81 43 -29 c28 -18 51
-45 66 -75 l23 -47 162 0 163 0 12 29 c16 40 55 84 91 102 l30 16 -5 91 c-4
73 -10 103 -31 143 -63 125 -218 191 -347 147z"/>
<path d="M99 539 c-38 -14 -64 -67 -55 -112 4 -21 10 -37 14 -37 4 0 19 -11
34 -25 18 -17 30 -42 38 -82 17 -89 30 -114 76 -142 34 -22 40 -30 32 -44 -25
-46 41 -88 74 -47 17 21 14 48 -6 62 -6 4 83 8 199 8 162 0 206 -3 197 -12
-17 -17 -15 -49 6 -64 24 -19 39 -17 63 7 19 19 19 22 5 44 -14 22 -14 23 7
29 45 11 83 66 101 145 13 61 22 79 51 105 46 42 51 96 12 141 -30 35 -76 41
-132 16 -50 -22 -82 -65 -92 -124 l-6 -38 -41 8 c-53 10 -289 10 -343 0 l-43
-9 0 35 c0 88 -109 166 -191 136z"/>
</g>
</svg>
