<?xml version="1.0" encoding="iso-8859-1"?>
<!-- Generator: Adobe Illustrator 19.0.0, SVG Export Plug-In . SVG Version: 6.00 Build 0)  -->
<svg version="1.1" id="Capa_1" xmlns="http://www.w3.org/2000/svg" xmlns:xlink="http://www.w3.org/1999/xlink" x="0px" y="0px"
	 viewBox="0 0 512.001 512.001" style="enable-background:new 0 0 512.001 512.001;" xml:space="preserve">
<g>
	<g>
		<g>
			<path d="M210.002,89.567l-4.399-4.411l4.399-4.411c2.925-2.932,2.918-7.682-0.017-10.606c-2.933-2.925-7.682-2.918-10.606,0.015
				l-4.37,4.382l-4.37-4.382c-2.924-2.934-7.673-2.941-10.606-0.015c-2.933,2.924-2.94,7.673-0.015,10.606l4.399,4.411l-4.399,4.411
				c-2.924,2.932-2.918,7.681,0.015,10.606c1.464,1.46,3.38,2.189,5.296,2.189c1.923,0,3.846-0.735,5.311-2.204l4.37-4.382
				l4.37,4.382c1.465,1.47,3.388,2.204,5.311,2.204c1.916,0,3.832-0.729,5.296-2.189C212.92,97.249,212.927,92.5,210.002,89.567z"/>
			<path d="M180.033,197.243c1.464,1.46,3.38,2.189,5.296,2.189c1.923,0,3.846-0.735,5.311-2.204l4.37-4.382l4.37,4.382
				c1.465,1.47,3.388,2.204,5.311,2.204c1.916,0,3.832-0.729,5.296-2.189c2.933-2.924,2.94-7.673,0.015-10.606l-4.399-4.411
				l4.399-4.411c2.925-2.932,2.918-7.681-0.017-10.606c-2.933-2.925-7.682-2.918-10.606,0.015l-4.37,4.382l-4.37-4.382
				c-2.924-2.934-7.673-2.941-10.606-0.015c-2.933,2.924-2.94,7.673-0.015,10.606l4.399,4.411l-4.399,4.411
				C177.094,189.569,177.1,194.318,180.033,197.243z"/>
			<path d="M331.98,89.567l-4.399-4.411l4.399-4.411c2.925-2.932,2.918-7.682-0.017-10.606c-2.933-2.925-7.682-2.918-10.606,0.015
				l-4.37,4.382l-4.37-4.382c-2.923-2.934-7.672-2.941-10.606-0.015c-2.933,2.924-2.94,7.673-0.015,10.606l4.399,4.411l-4.399,4.411
				c-2.924,2.932-2.918,7.681,0.015,10.606c1.464,1.46,3.38,2.189,5.296,2.189c1.923,0,3.846-0.735,5.311-2.204l4.37-4.382
				l4.37,4.382c1.465,1.47,3.388,2.204,5.311,2.204c1.916,0,3.832-0.729,5.296-2.189C334.898,97.249,334.905,92.5,331.98,89.567z"/>
			<path d="M302.011,197.243c1.464,1.46,3.38,2.189,5.296,2.189c1.923,0,3.846-0.735,5.311-2.204l4.37-4.382l4.37,4.382
				c1.465,1.47,3.388,2.204,5.311,2.204c1.916,0,3.832-0.729,5.296-2.189c2.933-2.924,2.94-7.673,0.015-10.606l-4.399-4.411
				l4.399-4.411c2.925-2.932,2.918-7.681-0.017-10.606c-2.933-2.925-7.682-2.918-10.606,0.015l-4.37,4.382l-4.37-4.382
				c-2.923-2.934-7.672-2.941-10.606-0.015c-2.933,2.924-2.94,7.673-0.015,10.606l4.399,4.411l-4.399,4.411
				C299.072,189.569,299.078,194.318,302.011,197.243z"/>
			<path d="M439.937,203.848c-9.011,0-17.757,2.4-25.415,6.807V105.218c0-4.143-3.357-7.5-7.5-7.5s-7.5,3.357-7.5,7.5V262.09
				H197.431c-4.143,0-7.5,3.357-7.5,7.5s3.357,7.5,7.5,7.5h204.75c0.434,0,0.861,0.027,1.282,0.073
				c1.009,0.545,2.158,0.859,3.378,0.888c4.23,1.823,7.202,6.045,7.202,10.953v38.828c0,6.569-5.321,11.914-11.862,11.914H109.819
				c-6.541,0-11.862-5.345-11.862-11.914v-38.828c0-6.569,5.321-11.914,11.862-11.914h49.372c4.143,0,7.5-3.357,7.5-7.5
				s-3.357-7.5-7.5-7.5h-46.713V46.328c0-17.274,14.007-31.328,31.224-31.328h224.596c17.217,0,31.224,14.054,31.224,31.328v26.206
				c0,4.143,3.357,7.5,7.5,7.5s7.5-3.357,7.5-7.5V46.328C414.521,20.782,393.786,0,368.298,0H143.702
				c-25.488,0-46.224,20.782-46.224,46.328v164.325c-7.662-4.407-16.414-6.805-25.415-6.805C43.907,203.848,21,226.808,21,255.03
				c0,10.305,3.004,20.139,8.713,28.602v83.029c0,22.986,16.791,42.106,38.724,45.709v41.654c0,12.584,8.665,23.174,20.329,26.105
				v19.518c0,6.812,5.536,12.354,12.341,12.354h48.404c6.805,0,12.34-5.542,12.34-12.354v-18.709H350.15v18.709
				c0,6.812,5.535,12.354,12.34,12.354h48.404c6.805,0,12.341-5.542,12.341-12.354v-19.518
				c11.665-2.931,20.329-13.522,20.329-26.105V412.37c21.933-3.603,38.724-22.723,38.724-45.709v-83.029
				c5.709-8.463,8.713-18.297,8.713-28.602C491,226.808,468.093,203.848,439.937,203.848z M146.851,497h-43.085v-16.063h43.085V497z
				 M408.234,497h-43.085v-16.063h43.085V497z M428.564,454.024c-0.001,6.569-5.322,11.914-11.862,11.914H95.298
				c-6.54,0-11.861-5.345-11.861-11.914v-41.035h345.127V454.024z M468.784,276.743c-0.972,1.297-1.497,2.875-1.497,4.496v85.421
				c0,17.274-14.007,31.328-31.224,31.328H75.937c-17.217,0-31.224-14.054-31.224-31.328v-85.421c0-1.621-0.525-3.199-1.497-4.496
				C38.495,270.441,36,262.933,36,255.029c0-19.95,16.178-36.182,36.063-36.182c9.536,0,18.68,3.814,25.415,10.525v35.738
				c-8.618,4.486-14.521,13.509-14.521,23.894v38.828c0,14.841,12.051,26.914,26.862,26.914H402.18
				c14.812,0,26.862-12.073,26.862-26.914v-38.828c0-10.384-5.904-19.407-14.521-23.894v-35.733
				c6.737-6.715,15.867-10.53,25.415-10.53c19.886,0,36.063,16.231,36.063,36.182C476,262.933,473.505,270.441,468.784,276.743z"/>
		</g>
	</g>
</g>
<g>
</g>
<g>
</g>
<g>
</g>
<g>
</g>
<g>
</g>
<g>
</g>
<g>
</g>
<g>
</g>
<g>
</g>
<g>
</g>
<g>
</g>
<g>
</g>
<g>
</g>
<g>
</g>
<g>
</g>
</svg>
