<?xml version="1.0" encoding="iso-8859-1"?>
<!-- Generator: Adobe Illustrator 19.0.0, SVG Export Plug-In . SVG Version: 6.00 Build 0)  -->
<svg version="1.1" id="Capa_1" xmlns="http://www.w3.org/2000/svg" xmlns:xlink="http://www.w3.org/1999/xlink" x="0px" y="0px"
	 viewBox="0 0 512.001 512.001" style="enable-background:new 0 0 512.001 512.001;" xml:space="preserve">
<g>
	<g>
		<g>
			<path d="M319.75,71.564c0-4.142-3.357-7.5-7.5-7.5h-112.5c-4.142,0-7.5,3.358-7.5,7.5c0,4.142,3.358,7.5,7.5,7.5h112.5
				C316.393,79.064,319.75,75.706,319.75,71.564z"/>
			<path d="M364.75,99.012h-1.875V26.914C362.875,12.074,351.1,0,336.625,0h-161.25c-14.474,0-26.25,12.074-26.25,26.914v72.098
				h-1.875c-14.474,0-26.25,12.074-26.25,26.914v17.473c0,14.84,11.776,26.914,26.25,26.914h11.25v26.475
				c0,6.812,5.467,12.354,12.188,12.354h15.938v7.352l-33.448,17.316c-3.678,1.904-5.117,6.43-3.212,10.108
				c1.333,2.576,3.953,4.053,6.667,4.053c1.161,0,2.34-0.271,3.442-0.841l37.5-19.414c2.489-1.289,4.052-3.857,4.052-6.66v-11.914
				h28.125v111.191h-29.063c-12.407,0-22.5,10.332-22.5,23.031c0,12.699,10.093,23.031,22.5,23.031h29.063v99.543h-29.063
				c-18.093,0-32.813,15.122-32.813,33.709c0,6.812,5.467,12.354,12.188,12.354h88.828c4.143,0,7.5-3.358,7.5-7.5
				c0-4.142-3.357-7.5-7.5-7.5h-85.838c1.227-9.068,8.668-16.063,17.635-16.063h110.625c8.967,0,16.407,6.995,17.635,16.063h-30.994
				c-4.143,0-7.5,3.358-7.5,7.5c0,4.142,3.357,7.5,7.5,7.5h33.984c6.72,0,12.188-5.542,12.188-12.354
				c0-18.587-14.72-33.709-32.813-33.709H282.25v-99.543h29.063c12.406,0,22.5-10.332,22.5-23.031
				c0-12.699-10.094-23.031-22.5-23.031H282.25V209.141h59.063c6.72,0,12.188-5.542,12.188-12.354v-26.475h11.25
				c14.475,0,26.25-12.074,26.25-26.914v-17.473C391,111.085,379.225,99.012,364.75,99.012z M229.751,351.396h-29.063v-0.001
				c-4.136,0-7.5-3.603-7.5-8.031c0-4.428,3.364-8.031,7.5-8.031h29.063V351.396z M267.25,465.938h-22.5v-99.543h22.5V465.938z
				 M267.25,351.395h-22.5V209.141h22.5V351.395z M311.313,335.331L311.313,335.331c4.136,0.001,7.5,3.604,7.5,8.032
				c0,4.428-3.364,8.031-7.5,8.031H282.25v-16.063H311.313z M338.5,194.141h-165v-23.828h165V194.141z M376,143.398
				c0,6.569-5.047,11.914-11.25,11.914h-217.5c-6.203,0-11.25-5.345-11.25-11.914v-17.473c0-6.569,5.047-11.914,11.25-11.914h47.812
				c4.142,0,7.5-3.358,7.5-7.5c0-4.142-3.358-7.5-7.5-7.5h-30.937V26.914c0-6.569,5.047-11.914,11.25-11.914h161.25
				c6.203,0,11.25,5.345,11.25,11.914v72.098H223.656c-4.142,0-7.5,3.358-7.5,7.5c0,4.142,3.358,7.5,7.5,7.5H364.75
				c6.203,0,11.25,5.345,11.25,11.914V143.398z"/>
			<path d="M199.75,49.943h112.5c4.143,0,7.5-3.358,7.5-7.5c0-4.142-3.357-7.5-7.5-7.5h-112.5c-4.142,0-7.5,3.358-7.5,7.5
				C192.25,46.585,195.608,49.943,199.75,49.943z"/>
		</g>
	</g>
</g>
<g>
</g>
<g>
</g>
<g>
</g>
<g>
</g>
<g>
</g>
<g>
</g>
<g>
</g>
<g>
</g>
<g>
</g>
<g>
</g>
<g>
</g>
<g>
</g>
<g>
</g>
<g>
</g>
<g>
</g>
</svg>
