<?xml version="1.0" encoding="iso-8859-1"?>
<!-- Generator: Adobe Illustrator 19.0.0, SVG Export Plug-In . SVG Version: 6.00 Build 0)  -->
<svg version="1.1" id="Capa_1" xmlns="http://www.w3.org/2000/svg" xmlns:xlink="http://www.w3.org/1999/xlink" x="0px" y="0px"
	 viewBox="0 0 512 512" style="enable-background:new 0 0 512 512;" xml:space="preserve">
<g>
	<g>
		<path d="M431.942,176.906l-91.609-30.191c-34.821-11.475-70.852-20.315-107.09-26.274c-4.09-0.67-7.945,2.097-8.617,6.184
			c-0.671,4.087,2.097,7.945,6.184,8.617c35.474,5.833,70.743,14.486,104.828,25.719l91.609,30.191
			C468.969,204.902,497,242.996,497,285.943c0,53.783-43.741,97.783-98.352,99.965c14.751-10.778,24.047-26.392,24.047-43.741
			c0-4.142-3.357-7.5-7.5-7.5s-7.5,3.358-7.5,7.5c0,24.169-25.755,43.833-57.411,43.833h-32.159
			c-133.14,0-241.457-65.009-241.457-144.917c0-4.142-3.357-7.5-7.5-7.5s-7.5,3.358-7.5,7.5c0,43.455,27.154,84.011,76.46,114.197
			c20.96,12.833,44.91,23.153,70.873,30.72h-91.4C61.026,386,15,341.115,15,285.943v-59.886c0-44.941,30.541-83.053,72.444-95.644
			c1.686,32.923,37.596,63.08,101.585,85.143c63.066,21.745,146.834,33.72,235.873,33.72c4.143,0,7.5-3.358,7.5-7.5
			c0-4.142-3.357-7.5-7.5-7.5c-87.418,0-169.449-11.684-230.983-32.9c-58.186-20.062-91.556-46.812-91.556-73.393
			c0-0.295-0.021-0.585-0.054-0.871c4.991-0.73,10.097-1.112,15.293-1.112c28.208,0,56.701,1.734,84.687,5.155
			c4.114,0.506,7.851-2.423,8.354-6.534c0.503-4.112-2.423-7.852-6.534-8.355c-28.588-3.494-57.694-5.266-86.508-5.266
			C52.756,111,0,162.614,0,226.057v59.886C0,349.386,52.756,401,117.601,401h200.524h32.159h44.115
			C459.244,401,512,349.385,512,285.942C512,236.506,479.827,192.688,431.942,176.906z"/>
	</g>
</g>
<g>
</g>
<g>
</g>
<g>
</g>
<g>
</g>
<g>
</g>
<g>
</g>
<g>
</g>
<g>
</g>
<g>
</g>
<g>
</g>
<g>
</g>
<g>
</g>
<g>
</g>
<g>
</g>
<g>
</g>
</svg>
