<?xml version="1.0" encoding="iso-8859-1"?>
<!-- Generator: Adobe Illustrator 19.0.0, SVG Export Plug-In . SVG Version: 6.00 Build 0)  -->
<svg version="1.1" id="Capa_1" xmlns="http://www.w3.org/2000/svg" xmlns:xlink="http://www.w3.org/1999/xlink" x="0px" y="0px"
	 viewBox="0 0 512 512" style="enable-background:new 0 0 512 512;" xml:space="preserve">
<g>
	<g>
		<path d="M485.086,162.589H262.427c3.198-5.392,4.956-11.596,4.956-18.116c0-19.835-16.428-35.973-36.621-35.973H114.277
			c-20.193,0-36.621,16.138-36.621,35.973c0,6.465,1.783,12.7,4.999,18.116H26.914C12.074,162.589,0,174.469,0,189.072v17.084
			c0,12.041,8.213,22.224,19.414,25.428v159.671c0,6.752,5.542,12.246,12.354,12.246h29.121c6.812,0,12.354-5.493,12.354-12.246
			v-68.429h365.516v68.429c0,6.752,5.542,12.246,12.354,12.246h29.121c6.812,0,12.354-5.493,12.354-12.246V231.583
			C503.787,228.38,512,218.197,512,206.156v-17.084C512,174.469,499.926,162.589,485.086,162.589z M438.758,307.826H73.242v-37.224
			h365.516V307.826z M497,206.156c0,6.331-5.345,11.482-11.914,11.482h-79.598c-4.142,0-7.5,3.358-7.5,7.5
			c0,4.142,3.358,7.5,7.5,7.5h72.098V388.5h-23.828V263.102c0-4.142-3.358-7.5-7.5-7.5H65.742c-4.142,0-7.5,3.358-7.5,7.5V388.5
			H34.414V232.638h342.601c4.142,0,7.5-3.358,7.5-7.5c0-4.142-3.358-7.5-7.5-7.5H26.914c-6.569,0-11.914-5.151-11.914-11.482
			v-17.084c0-6.332,5.345-11.482,11.914-11.482h106.13c4.142,0,7.5-3.358,7.5-7.5c0-4.142-3.358-7.5-7.5-7.5h-29.663
			c-6.618-3.757-10.725-10.684-10.725-18.116c0-11.564,9.699-20.973,21.621-20.973h116.484c11.922,0,21.621,9.409,21.621,20.973
			c0,7.327-3.844,14.004-10.282,17.862c-0.132,0.079-0.254,0.169-0.38,0.254h-78.26c-4.142,0-7.5,3.358-7.5,7.5
			c0,4.142,3.358,7.5,7.5,7.5h321.626c6.569,0,11.914,5.151,11.914,11.482V206.156z"/>
	</g>
</g>
<g>
</g>
<g>
</g>
<g>
</g>
<g>
</g>
<g>
</g>
<g>
</g>
<g>
</g>
<g>
</g>
<g>
</g>
<g>
</g>
<g>
</g>
<g>
</g>
<g>
</g>
<g>
</g>
<g>
</g>
</svg>
