<?xml version="1.0" encoding="iso-8859-1"?>
<!-- Generator: Adobe Illustrator 19.0.0, SVG Export Plug-In . SVG Version: 6.00 Build 0)  -->
<svg version="1.1" id="Capa_1" xmlns="http://www.w3.org/2000/svg" xmlns:xlink="http://www.w3.org/1999/xlink" x="0px" y="0px"
	 viewBox="0 0 512.001 512.001" style="enable-background:new 0 0 512.001 512.001;" xml:space="preserve">
<g>
	<g>
		<g>
			<path d="M391.278,0H120.722c-6.74,0-12.222,5.542-12.222,12.354v487.293c0,6.812,5.482,12.354,12.222,12.354h270.557
				c6.739,0,12.222-5.542,12.222-12.354V12.354C403.5,5.542,398.018,0,391.278,0z M388.5,497h-265V15h265V497z"/>
			<path d="M139.845,53.828h6.429v411.844c0,4.142,3.358,7.5,7.5,7.5H352.56h5.666h11.332c4.142,0,7.5-3.358,7.5-7.5
				c0-4.142-3.358-7.5-7.5-7.5h-3.832V46.328c0-4.142-3.358-7.5-7.5-7.5H153.774h-13.929c-4.142,0-7.5,3.358-7.5,7.5
				C132.345,50.47,135.703,53.828,139.845,53.828z M280.608,458.172H191.73v-45.184h88.878V458.172z M350.726,340.717H231.447
				c-4.142,0-7.5,3.358-7.5,7.5c0,4.142,3.358,7.5,7.5,7.5h119.279v102.455h-55.118v-47.83c0-6.812-5.482-12.354-12.222-12.354
				h-94.435c-6.739,0-12.222,5.542-12.222,12.354v47.83h-15.456V355.717h0.001h41.842c4.142,0,7.5-3.358,7.5-7.5
				c0-4.142-3.358-7.5-7.5-7.5h-41.842v-23.828h189.452V340.717z M350.725,301.889h-17.343v-56.566
				c0-6.812-5.482-12.354-12.222-12.354h-18.887c-1.673,0-3.268,0.343-4.722,0.961c-1.454-0.618-3.049-0.961-4.722-0.961h-18.887
				c-6.739,0-12.222,5.542-12.222,12.354v26.475h-53.883c-6.739,0-12.222,5.542-12.222,12.354v17.738h-34.342V199.434h189.452
				V301.889z M318.382,247.969v53.92h-13.331v-53.92H318.382z M290.052,247.969v53.92h-13.331v-53.92H290.052z M210.616,301.45
				v-14.652h51.104v15.092h-50.204v-0.001C211.226,301.725,210.928,301.574,210.616,301.45z M161.272,53.828h189.452v91.777h-24.842
				c-4.142,0-7.5,3.358-7.5,7.5c0,4.142,3.358,7.5,7.5,7.5h24.844v23.828H161.274v-23.828h136.277c4.142,0,7.5-3.358,7.5-7.5
				c0-4.142-3.358-7.5-7.5-7.5H248.39V90.01c0-6.812-5.483-12.354-12.222-12.354h-18.887c-1.673,0-3.268,0.343-4.722,0.961
				c-1.454-0.618-3.049-0.961-4.722-0.961H188.95c-6.739,0-12.222,5.542-12.222,12.354v55.596h-15.456V53.828z M191.729,145.605
				V92.656h13.331v52.949H191.729z M220.06,145.605V92.656h13.331v52.949H220.06z"/>
		</g>
	</g>
</g>
<g>
</g>
<g>
</g>
<g>
</g>
<g>
</g>
<g>
</g>
<g>
</g>
<g>
</g>
<g>
</g>
<g>
</g>
<g>
</g>
<g>
</g>
<g>
</g>
<g>
</g>
<g>
</g>
<g>
</g>
</svg>
