<?xml version="1.0" encoding="iso-8859-1"?>
<!-- Generator: Adobe Illustrator 19.0.0, SVG Export Plug-In . SVG Version: 6.00 Build 0)  -->
<svg version="1.1" id="Capa_1" xmlns="http://www.w3.org/2000/svg" xmlns:xlink="http://www.w3.org/1999/xlink" x="0px" y="0px"
	 viewBox="0 0 512.003 512.003" style="enable-background:new 0 0 512.003 512.003;" xml:space="preserve">
<g>
	<g>
		<g>
			<path d="M499.646,0.001h-29.121c-6.812,0-12.354,5.542-12.354,12.354v123.643c-0.729-0.059-1.463-0.098-2.207-0.098h-23.563
				V61.353c0-4.472-2.271-8.544-6.074-10.896c-3.804-2.351-8.462-2.561-12.462-0.561l-28.061,14.03
				c-3.364,1.682-7.129,2.57-10.89,2.57h-43.202c-3.761,0-7.526-0.889-10.89-2.57l-28.061-14.03c-3.998-2-8.658-1.789-12.462,0.561
				c-3.804,2.351-6.075,6.424-6.075,10.896V135.9h-45.671V80.304c0-6.812-5.542-12.354-12.354-12.354h-19.414
				c-6.812,0-12.354,5.542-12.354,12.354v36.182h-57.803V80.304c0-6.812-5.542-12.354-12.354-12.354H94.863
				c-6.812,0-12.354,5.542-12.354,12.354V135.9H56.035c-0.744,0-1.478,0.039-2.207,0.098V12.355c0-6.812-5.541-12.354-12.353-12.354
				H12.354C5.542,0.001,0,5.543,0,12.355v487.293c0,6.811,5.542,12.353,12.354,12.353h29.121c6.812,0,12.354-5.542,12.354-12.354
				v-18.709H82.51v18.709c0,6.812,5.542,12.354,12.354,12.354h19.414c6.812,0,12.354-5.542,12.354-12.354v-47.83h57.803v47.83
				c0,6.812,5.542,12.354,12.354,12.354h19.414c6.812,0,12.354-5.542,12.354-12.354v-18.709h229.617v18.709
				c0,6.812,5.542,12.354,12.354,12.354h29.121c6.812,0,12.354-5.542,12.354-12.354V12.355C512,5.543,506.458,0.001,499.646,0.001z
				 M38.828,142.137c-5.927,4.941-9.707,12.375-9.707,20.677v17.473c0,8.302,3.78,15.736,9.707,20.677v154.729
				c-5.927,4.941-9.707,12.375-9.707,20.677v17.473c0,8.302,3.78,15.736,9.707,20.677v82.481H15v-482h23.828V142.137z M82.51,465.94
				H53.828v-0.001v-45.281c0.729,0.059,1.463,0.098,2.207,0.098H82.51V465.94z M82.51,405.755H56.035
				c-6.569,0-11.914-5.345-11.914-11.914v-17.473c0-6.569,5.345-11.914,11.914-11.914H82.51V405.755z M82.51,349.454H56.035
				c-0.744,0-1.478,0.039-2.207,0.098V233.191H82.51V349.454z M82.51,218.191H53.828v-11.089c0.729,0.06,1.463,0.098,2.207,0.098
				H82.51V218.191z M82.51,150.9V192.2H56.035c-6.569,0-11.914-5.345-11.914-11.914v-17.473c0-6.569,5.345-11.914,11.914-11.914
				L82.51,150.9L82.51,150.9z M213.555,497.001h-14.121v-52.684c0-4.143-3.358-7.5-7.5-7.5h-72.803c-4.142,0-7.5,3.357-7.5,7.5
				v52.684H97.51V82.95h14.121v41.035c0,4.143,3.358,7.5,7.5,7.5h72.803c4.142,0,7.5-3.357,7.5-7.5V82.95h14.121V497.001z
				 M228.555,207.2h227.41c0.744,0,1.478-0.039,2.207-0.098v11.089H228.555V207.2z M228.554,233.191h229.617v116.361
				c-0.728-0.059-1.462-0.098-2.206-0.098h-23.563v-71.366c0-4.472-2.271-8.545-6.075-10.896c-3.803-2.35-8.461-2.56-12.462-0.561
				l-28.062,14.03c-3.363,1.683-7.128,2.571-10.889,2.571h-43.202c-3.761,0-7.526-0.889-10.89-2.571l-28.061-14.03
				c-4-1.999-8.658-1.791-12.461,0.561c-3.804,2.352-6.075,6.425-6.075,10.896v71.366h-45.671V233.191z M458.172,465.939H228.555
				v-45.183h227.41c0.744,0,1.478-0.039,2.207-0.098V465.939z M467.879,393.841c0,6.569-5.345,11.914-11.914,11.914h-227.41v-41.301
				h136.407c4.142,0,7.5-3.357,7.5-7.5s-3.358-7.5-7.5-7.5h-75.736v-67.821l24.888,12.444c5.436,2.719,11.521,4.155,17.599,4.155
				h43.202c6.078,0,12.164-1.437,17.598-4.155l24.889-12.444v67.821h-22.591c-4.142,0-7.5,3.357-7.5,7.5s3.358,7.5,7.5,7.5h61.154
				c6.569,0,11.914,5.345,11.914,11.914V393.841z M467.879,180.286c0,6.569-5.345,11.914-11.914,11.914h-227.41V150.9h137.782
				c4.142,0,7.5-3.357,7.5-7.5s-3.358-7.5-7.5-7.5h-77.111V64.897l24.889,12.444c5.436,2.718,11.521,4.154,17.598,4.154h43.202
				c6.077,0,12.162-1.437,17.598-4.154l24.889-12.444V135.9h-21.783c-4.142,0-7.5,3.357-7.5,7.5s3.358,7.5,7.5,7.5h60.346
				c6.569,0,11.914,5.345,11.914,11.914V180.286z M497,497.001h-23.828v-82.484c5.927-4.941,9.707-12.375,9.707-20.677v-17.473
				c0-8.302-3.78-15.736-9.707-20.677V200.963c5.927-4.941,9.707-12.375,9.707-20.677v-17.473c0-8.302-3.78-15.736-9.707-20.677
				V15.001H497V497.001z"/>
			<path d="M191.934,218.41h-72.803c-4.142,0-7.5,3.357-7.5,7.5v43.682c0,4.143,3.358,7.5,7.5,7.5h72.803c4.142,0,7.5-3.357,7.5-7.5
				v-43.682C199.434,221.767,196.076,218.41,191.934,218.41z M184.434,262.091h-57.803v-28.682h57.803V262.091z"/>
			<path d="M191.934,145.606h-72.803c-4.142,0-7.5,3.357-7.5,7.5v43.682c0,4.143,3.358,7.5,7.5,7.5h72.803
				c4.142,0,7.5-3.357,7.5-7.5v-43.682C199.434,148.965,196.076,145.606,191.934,145.606z M184.434,189.288h-57.803v-28.682h57.803
				V189.288z"/>
			<path d="M191.934,291.212h-72.803c-4.142,0-7.5,3.357-7.5,7.5v43.682c0,4.143,3.358,7.5,7.5,7.5h72.803
				c4.142,0,7.5-3.357,7.5-7.5v-43.682C199.434,294.569,196.076,291.212,191.934,291.212z M184.434,334.895h-57.803v-28.682h57.803
				V334.895z"/>
			<path d="M191.934,364.015h-72.803c-4.142,0-7.5,3.357-7.5,7.5v43.682c0,4.143,3.358,7.5,7.5,7.5h72.803
				c4.142,0,7.5-3.357,7.5-7.5v-43.682C199.434,367.372,196.076,364.015,191.934,364.015z M184.434,407.697h-57.803v-28.682h57.803
				V407.697z"/>
		</g>
	</g>
</g>
<g>
</g>
<g>
</g>
<g>
</g>
<g>
</g>
<g>
</g>
<g>
</g>
<g>
</g>
<g>
</g>
<g>
</g>
<g>
</g>
<g>
</g>
<g>
</g>
<g>
</g>
<g>
</g>
<g>
</g>
</svg>
