<?xml version="1.0" encoding="iso-8859-1"?>
<!-- Generator: Adobe Illustrator 19.0.0, SVG Export Plug-In . SVG Version: 6.00 Build 0)  -->
<svg version="1.1" id="Capa_1" xmlns="http://www.w3.org/2000/svg" xmlns:xlink="http://www.w3.org/1999/xlink" x="0px" y="0px"
	 viewBox="0 0 512 512" style="enable-background:new 0 0 512 512;" xml:space="preserve">
<g>
	<g>
		<g>
			<path d="M225.313,298.61h61.375c4.143,0,7.5-3.358,7.5-7.5c0-4.142-3.358-7.5-7.5-7.5h-61.375c-4.143,0-7.5,3.358-7.5,7.5
				C217.813,295.252,221.17,298.61,225.313,298.61z"/>
			<path d="M468.688,0H137.615c-4.143,0-7.5,3.358-7.5,7.5s3.357,7.5,7.5,7.5H466v23.828H46V15h63.064c4.143,0,7.5-3.358,7.5-7.5
				s-3.357-7.5-7.5-7.5H43.312C36.522,0,31,5.542,31,12.354v29.121c0,6.811,5.522,12.353,12.312,12.353h11.855v71.21v32.708v87.577
				v10.546v194.664c0,6.812,5.523,12.354,12.312,12.354h17.884c-1.868,4.17-2.874,8.739-2.874,13.463v2.912
				c0,18.051,14.588,32.738,32.521,32.738h2.888c17.932,0,32.521-14.686,32.521-32.738v-2.912c0-4.736-1.001-9.3-2.864-13.463
				h216.917c-1.88,4.193-2.891,8.779-2.891,13.463v2.912c0,18.051,14.588,32.738,32.521,32.738h2.888
				c17.932,0,32.521-14.686,32.521-32.738v-2.912c0-4.692-1.004-9.275-2.881-13.463h17.891c6.79,0,12.312-5.542,12.312-12.354
				V255.869v-10.546v-87.577v-32.708V53.829h11.855c6.79,0,12.312-5.542,12.312-12.354V12.354C481,5.542,475.478,0,468.688,0z
				 M135.418,479.261c0,9.78-7.86,17.738-17.521,17.738h-2.888c-9.661,0-17.521-7.957-17.521-17.738v-2.912
				c0-5.22,2.245-10.082,6.149-13.463h25.669c3.896,3.38,6.113,8.232,6.112,13.463V479.261z M414.511,479.262
				c0,9.78-7.86,17.738-17.521,17.738h-2.888c-9.661,0-17.521-7.957-17.521-17.738v-2.912c0-4.999,2.101-9.793,5.765-13.153
				c0.108-0.1,0.205-0.207,0.306-0.311h25.765c0.052,0.05,0.099,0.103,0.152,0.151c3.776,3.37,5.942,8.222,5.942,13.313V479.262z
				 M441.833,447.886L441.833,447.886l-371.666,0.001V263.369h371.666V447.886z M441.833,245.322v3.046H70.167v-3.046v-80.077
				h371.666V245.322z M441.833,125.037v25.208H70.167v-25.208V53.828h371.666V125.037z"/>
			<path d="M225.313,92.656h61.375c4.143,0,7.5-3.358,7.5-7.5c0-4.142-3.357-7.5-7.5-7.5h-61.375c-4.143,0-7.5,3.358-7.5,7.5
				C217.813,89.298,221.17,92.656,225.313,92.656z"/>
			<path d="M225.313,200.487h61.375c4.143,0,7.5-3.358,7.5-7.5c0-4.142-3.357-7.5-7.5-7.5h-61.375c-4.143,0-7.5,3.358-7.5,7.5
				C217.813,197.129,221.17,200.487,225.313,200.487z"/>
		</g>
	</g>
</g>
<g>
</g>
<g>
</g>
<g>
</g>
<g>
</g>
<g>
</g>
<g>
</g>
<g>
</g>
<g>
</g>
<g>
</g>
<g>
</g>
<g>
</g>
<g>
</g>
<g>
</g>
<g>
</g>
<g>
</g>
</svg>
