<?xml version="1.0" encoding="iso-8859-1"?>
<!-- Generator: Adobe Illustrator 19.0.0, SVG Export Plug-In . SVG Version: 6.00 Build 0)  -->
<svg version="1.1" id="Capa_1" xmlns="http://www.w3.org/2000/svg" xmlns:xlink="http://www.w3.org/1999/xlink" x="0px" y="0px"
	 viewBox="0 0 512 512" style="enable-background:new 0 0 512 512;" xml:space="preserve">
<g>
	<g>
		<g>
			<path d="M504.5,137.111c4.143,0,7.5-3.357,7.5-7.5c0-4.143-3.357-7.5-7.5-7.5h-21.621V101H504.5c4.143,0,7.5-3.357,7.5-7.5
				s-3.357-7.5-7.5-7.5h-29.121H134.662c-4.143,0-7.5,3.357-7.5,7.5s3.357,7.5,7.5,7.5h333.217v310H44.121V101H103.6
				c4.143,0,7.5-3.357,7.5-7.5s-3.357-7.5-7.5-7.5H36.621H7.5C3.357,86,0,89.357,0,93.5s3.357,7.5,7.5,7.5h21.621v21.114H7.5
				c-4.143,0-7.5,3.357-7.5,7.5s3.357,7.5,7.5,7.5h21.621v21.111H7.5c-4.143,0-7.5,3.357-7.5,7.5s3.357,7.5,7.5,7.5h21.621v21.11
				H7.5c-4.143,0-7.5,3.357-7.5,7.5s3.357,7.5,7.5,7.5h21.621v21.111H7.5c-4.143,0-7.5,3.357-7.5,7.5s3.357,7.5,7.5,7.5h21.621
				v21.111H7.5c-4.143,0-7.5,3.357-7.5,7.5s3.357,7.5,7.5,7.5h21.621v21.111H7.5c-4.143,0-7.5,3.357-7.5,7.5s3.357,7.5,7.5,7.5
				h21.621v21.11H7.5c-4.143,0-7.5,3.357-7.5,7.5s3.357,7.5,7.5,7.5h21.621v21.111H7.5c-4.143,0-7.5,3.357-7.5,7.5
				s3.357,7.5,7.5,7.5h21.621V411H7.5c-4.143,0-7.5,3.357-7.5,7.5s3.357,7.5,7.5,7.5h29.121h438.758H504.5
				c4.143,0,7.5-3.357,7.5-7.5s-3.357-7.5-7.5-7.5h-21.621v-21.114H504.5c4.143,0,7.5-3.357,7.5-7.5s-3.357-7.5-7.5-7.5h-21.621
				v-21.111H504.5c4.143,0,7.5-3.357,7.5-7.5s-3.357-7.5-7.5-7.5h-21.621v-21.11H504.5c4.143,0,7.5-3.357,7.5-7.5
				s-3.357-7.5-7.5-7.5h-21.621v-21.111H504.5c4.143,0,7.5-3.357,7.5-7.5s-3.357-7.5-7.5-7.5h-21.621v-21.111H504.5
				c4.143,0,7.5-3.357,7.5-7.5s-3.357-7.5-7.5-7.5h-21.621v-21.111H504.5c4.143,0,7.5-3.357,7.5-7.5s-3.357-7.5-7.5-7.5h-21.621
				v-21.11H504.5c4.143,0,7.5-3.357,7.5-7.5s-3.357-7.5-7.5-7.5h-21.621v-21.111H504.5z"/>
			<path d="M341.156,256c0-22.268-18.091-40.441-40.521-40.945c-5.464-19.5-23.539-33.467-44.636-33.467
				s-39.172,13.967-44.636,33.467c-22.43,0.504-40.521,18.678-40.521,40.945s18.091,40.441,40.521,40.945
				c5.464,19.5,23.539,33.467,44.636,33.467s39.172-13.967,44.636-33.467C323.065,296.441,341.156,278.268,341.156,256z
				 M299.682,281.956c-1.341,0-2.69-0.1-4.011-0.297c-2.006-0.299-4.053,0.229-5.665,1.463c-1.613,1.234-2.656,3.07-2.891,5.088
				c-1.807,15.508-15.183,27.202-31.115,27.202c-15.932,0-29.309-11.694-31.115-27.202c-0.234-2.018-1.277-3.854-2.891-5.088
				c-1.316-1.008-2.921-1.545-4.559-1.545c-0.368,0-0.738,0.027-1.106,0.082c-1.32,0.197-2.67,0.297-4.011,0.297
				c-14.599,0-26.475-11.644-26.475-25.956c0-14.312,11.876-25.956,26.475-25.956c1.341,0,2.69,0.1,4.011,0.297
				c2.005,0.296,4.053-0.229,5.665-1.463c1.613-1.234,2.656-3.07,2.891-5.088c1.807-15.508,15.183-27.202,31.115-27.202
				s29.309,11.694,31.115,27.202c0.234,2.018,1.277,3.854,2.891,5.088c1.611,1.234,3.659,1.758,5.665,1.463
				c1.32-0.197,2.67-0.297,4.011-0.297c14.599,0,26.475,11.644,26.475,25.956S314.28,281.956,299.682,281.956z"/>
			<path d="M98.041,256c0,14.677,12.073,26.617,26.914,26.617s26.914-11.94,26.914-26.617s-12.073-26.617-26.914-26.617
				S98.041,241.323,98.041,256z M136.869,256c0,6.405-5.345,11.617-11.914,11.617c-6.569,0-11.914-5.212-11.914-11.617
				c0-6.405,5.345-11.617,11.914-11.617C131.524,244.383,136.869,249.595,136.869,256z"/>
			<path d="M317.802,387.764h51.828c0.008,0,0.016,0.002,0.024,0.002c0.009,0,0.019-0.002,0.028-0.002h66.869
				c4.143,0,7.5-3.357,7.5-7.5v-64.693c0-0.02,0-0.04,0-0.06V196.488c0-0.02,0-0.04,0-0.06v-64.693c0-4.142-3.358-7.5-7.5-7.5
				H75.449c-4.143,0-7.5,3.357-7.5,7.5v64.693c0,0.02,0,0.04,0,0.06v119.023c0,0.02,0,0.04,0,0.06v64.693c0,4.143,3.357,7.5,7.5,7.5
				h66.869c0.009,0,0.019,0.002,0.028,0.002c0.008,0,0.016-0.002,0.024-0.002h145.663c4.143,0,7.5-3.357,7.5-7.5s-3.357-7.5-7.5-7.5
				H151.464c0.265-2.27,0.405-4.552,0.405-6.838c0-33.125-27.314-60.074-60.889-60.074c-2.693,0-5.375,0.185-8.031,0.532v-100.77
				c2.657,0.348,5.338,0.532,8.031,0.532c33.574,0,60.889-26.949,60.889-60.074c0-2.285-0.141-4.568-0.405-6.838h209.072
				c-0.265,2.27-0.405,4.552-0.405,6.838c0,33.125,27.314,60.074,60.889,60.074c2.693,0,5.375-0.185,8.031-0.532v100.77
				c-2.657-0.348-5.338-0.532-8.031-0.532c-33.574,0-60.889,26.949-60.889,60.074c0,2.285,0.141,4.568,0.405,6.838h-42.734
				c-4.143,0-7.5,3.357-7.5,7.5S313.659,387.764,317.802,387.764z M90.98,320.853c25.303,0,45.889,20.221,45.889,45.074
				c0,2.288-0.197,4.572-0.552,6.838H82.949v-51.214C85.594,321.09,88.279,320.853,90.98,320.853z M90.98,191.147
				c-2.701,0-5.387-0.238-8.031-0.698v-51.214h53.367c0.356,2.266,0.553,4.55,0.553,6.838
				C136.869,170.927,116.283,191.147,90.98,191.147z M429.05,190.449c-2.644,0.461-5.329,0.698-8.03,0.698
				c-25.303,0-45.889-20.221-45.889-45.074c0-2.288,0.197-4.572,0.552-6.838h53.367V190.449z M421.02,320.853
				c2.701,0,5.387,0.238,8.031,0.698v51.214h-53.368v0c-0.355-2.266-0.552-4.55-0.552-6.838
				C375.131,341.073,395.717,320.853,421.02,320.853z"/>
			<path d="M413.959,256c0-14.677-12.073-26.617-26.914-26.617s-26.914,11.94-26.914,26.617s12.073,26.617,26.914,26.617
				S413.959,270.677,413.959,256z M375.131,256c0-6.405,5.345-11.617,11.914-11.617c6.569,0,11.914,5.212,11.914,11.617
				c0,6.405-5.345,11.617-11.914,11.617C380.476,267.617,375.131,262.405,375.131,256z"/>
			<path d="M256,224.603c-17.517,0-31.768,14.085-31.768,31.397s14.251,31.397,31.768,31.397c17.517,0,31.768-14.085,31.768-31.397
				S273.517,224.603,256,224.603z M256,272.397c-9.246,0-16.768-7.355-16.768-16.397s7.521-16.397,16.768-16.397
				s16.768,7.355,16.768,16.397S265.246,272.397,256,272.397z"/>
		</g>
	</g>
</g>
<g>
</g>
<g>
</g>
<g>
</g>
<g>
</g>
<g>
</g>
<g>
</g>
<g>
</g>
<g>
</g>
<g>
</g>
<g>
</g>
<g>
</g>
<g>
</g>
<g>
</g>
<g>
</g>
<g>
</g>
</svg>
