<?xml version="1.0" encoding="iso-8859-1"?>
<!-- Generator: Adobe Illustrator 19.0.0, SVG Export Plug-In . SVG Version: 6.00 Build 0)  -->
<svg version="1.1" id="Capa_1" xmlns="http://www.w3.org/2000/svg" xmlns:xlink="http://www.w3.org/1999/xlink" x="0px" y="0px"
	 viewBox="0 0 512.001 512.001" style="enable-background:new 0 0 512.001 512.001;" xml:space="preserve">
<g>
	<g>
		<path d="M460.705,5.427c-1.146-3.981-5.305-6.276-9.282-5.133L397.96,15.685c-11.423,3.289-19.4,13.928-19.4,25.874v94.34h-34.133
			V94.864c0-11.445-5.15-21.943-13.97-28.851V12.355c0-6.812-5.525-12.353-12.316-12.353h-20.232
			c-6.791,0-12.316,5.542-12.316,12.353v53.659c-8.819,6.907-13.97,17.405-13.97,28.851V135.9h-79.206c-4.143,0-7.5,3.358-7.5,7.5
			c0,4.142,3.357,7.5,7.5,7.5h196.741v23.828H122.843V150.9h41.152c4.143,0,7.5-3.358,7.5-7.5c0-4.142-3.357-7.5-7.5-7.5h-30.554
			V41.56c0-11.946-7.977-22.586-19.4-25.874L60.577,0.294C56.6-0.85,52.441,1.445,51.295,5.427c-1.146,3.98,1.151,8.136,5.132,9.282
			L109.89,30.1c5.035,1.449,8.551,6.162,8.551,11.459v94.475c-5.978,0.843-10.598,5.993-10.598,12.219v29.121
			c0,6.225,4.619,11.376,10.598,12.219v169.703c-5.978,0.843-10.598,5.993-10.598,12.219v29.121c0,6.225,4.619,11.376,10.598,12.219
			v16.898c-19.158,3.56-33.719,20.483-33.719,40.774c0,22.869,18.491,41.474,41.219,41.474c22.728,0,41.218-18.605,41.218-41.474
			c0-20.291-14.561-37.214-33.718-40.774V412.99H378.56v16.763c-19.158,3.56-33.718,20.483-33.718,40.774
			c0,22.869,18.49,41.474,41.218,41.474c22.728,0,41.219-18.605,41.219-41.474c0-20.291-14.561-37.214-33.719-40.774v-16.898
			c5.978-0.843,10.598-5.993,10.598-12.219v-29.121c0-6.225-4.619-11.376-10.598-12.219V189.593
			c5.978-0.843,10.598-5.993,10.598-12.219v-29.121c0-6.225-4.619-11.376-10.598-12.219V41.559c0-5.298,3.516-10.01,8.551-11.459
			l53.463-15.391C459.554,13.563,461.852,9.407,460.705,5.427z M329.427,135.9h-42.804V94.864h-0.001
			c0-7.647,3.877-14.575,10.372-18.532c2.234-1.361,3.598-3.789,3.598-6.405V15.001h14.865v54.927c0,2.616,1.363,5.043,3.598,6.405
			c6.495,3.957,10.372,10.885,10.372,18.532V135.9z M133.442,473.438V445.16c10.811,3.266,18.717,13.399,18.717,25.366
			c0,14.598-11.762,26.475-26.218,26.475c-14.458,0-26.219-11.876-26.219-26.475c0-11.967,7.906-22.099,18.72-25.365v28.277
			c0,4.142,3.357,7.5,7.5,7.5C130.085,480.938,133.442,477.58,133.442,473.438z M122.843,397.989v-23.828h204.689
			c4.143,0,7.5-3.358,7.5-7.5c0-4.142-3.357-7.5-7.5-7.5h-41.106c12.402-13.723,19.463-31.704,19.463-50.742v-4.854
			c0-6.006-4.297-11.019-9.969-12.122c0.215-1.677,0.335-3.372,0.335-5.086c0-21.653-17.509-39.268-39.029-39.268
			c-10.113,0-19.338,3.891-26.279,10.261c-7.127-6.513-16.504-10.261-26.271-10.261c-21.521,0-39.03,17.616-39.03,39.268
			c0,1.711,0.113,3.409,0.329,5.087c-5.669,1.106-9.963,6.117-9.963,12.121v4.854c0,19.127,7.043,37.05,19.443,50.742H133.44
			V189.727h245.119V359.16h-22.605v0.001c-4.143,0-7.5,3.358-7.5,7.5c0,4.142,3.357,7.5,7.5,7.5h33.203v23.828H122.843z
			 M218.501,291.211h-37.357c-0.32-1.587-0.497-3.208-0.497-4.854c0-13.382,10.78-24.268,24.03-24.268
			c6.642,0,12.789,2.676,17.299,7.426c-2.42,5.107-3.779,10.817-3.779,16.842C218.197,287.99,218.305,289.609,218.501,291.211z
			 M286.007,306.212c0.09,0.003,0.18,0.013,0.269,0.013c0.061,0,0.119-0.012,0.18-0.013h4.435v2.207
			c0,20.413-10.11,39.307-27.046,50.542c-0.094,0.063-0.18,0.134-0.27,0.2h-65.2c-17.151-11.214-27.362-30.103-27.362-50.742v-2.207
			H286.007z M233.197,286.358c0-13.382,10.78-24.268,24.03-24.268s24.029,10.887,24.029,24.268c0,1.647-0.161,3.269-0.478,4.854
			H233.69C233.371,289.625,233.197,288.005,233.197,286.358z M412.279,470.526c0,14.598-11.762,26.475-26.219,26.475
			c-14.457,0-26.219-11.876-26.219-26.475c0-11.967,7.906-22.099,18.719-25.365v28.277c0,4.142,3.357,7.5,7.5,7.5s7.5-3.358,7.5-7.5
			V445.16C404.373,448.426,412.279,458.559,412.279,470.526z"/>
	</g>
</g>
<g>
</g>
<g>
</g>
<g>
</g>
<g>
</g>
<g>
</g>
<g>
</g>
<g>
</g>
<g>
</g>
<g>
</g>
<g>
</g>
<g>
</g>
<g>
</g>
<g>
</g>
<g>
</g>
<g>
</g>
</svg>
