<?xml version="1.0" encoding="iso-8859-1"?>
<!-- Generator: Adobe Illustrator 19.0.0, SVG Export Plug-In . SVG Version: 6.00 Build 0)  -->
<svg version="1.1" id="Capa_1" xmlns="http://www.w3.org/2000/svg" xmlns:xlink="http://www.w3.org/1999/xlink" x="0px" y="0px"
	 viewBox="0 0 511.998 511.998" style="enable-background:new 0 0 511.998 511.998;" xml:space="preserve">
<g>
	<g>
		<g>
			<path d="M218.178,222.488c6.502-33.164,6.502-66.795,0-99.959c-0.797-4.065-4.742-6.713-8.803-5.917
				c-4.065,0.797-6.714,4.738-5.917,8.803c6.127,31.249,6.127,62.938,0,94.187c-0.797,4.065,1.852,8.006,5.917,8.803
				c0.487,0.096,0.972,0.142,1.451,0.142C214.338,228.547,217.476,226.066,218.178,222.488z"/>
			<path d="M385.432,213.545h-11.534V26.921c0-9.196-4.553-17.658-12.178-22.635c-7.458-4.869-16.771-5.638-24.908-2.059
				l-4.609,2.026c-48.428,21.292-103.977,21.292-152.406,0l-4.608-2.026c-8.139-3.578-17.451-2.809-24.909,2.059
				c-7.625,4.978-12.178,13.439-12.178,22.635v186.625h-11.534C101.442,213.545,81,234.329,81,259.875v77.658
				c0,25.546,20.442,46.329,45.568,46.329h2.017v26.475c0,5.78,3.966,10.633,9.295,11.974l-16.388,74.665
				c-0.812,3.698,0.081,7.506,2.447,10.448c2.338,2.907,5.809,4.574,9.522,4.574h28.823c5.111,0,9.733-3.247,11.501-8.08
				l29.715-81.227h104.999l29.715,81.227c1.768,4.833,6.39,8.08,11.501,8.08h28.823c3.713,0,7.184-1.667,9.522-4.574
				c2.366-2.942,3.258-6.75,2.447-10.448l-16.388-74.665c5.33-1.341,9.295-6.193,9.295-11.974v-26.475h2.017
				c25.126,0,45.568-20.783,45.568-46.329v-77.658C431,234.329,410.558,213.545,385.432,213.545z M160.346,496.999h-23.501
				l16.31-74.307h34.374L160.346,496.999z M198.258,407.691h-51.136h-3.537v-23.829h224.829v23.829h-3.536h-51.136H198.258z
				 M375.155,496.999h-23.5l-27.183-74.307h34.374L375.155,496.999z M416,337.533c0,17.275-13.713,31.329-30.568,31.329H126.568
				c-16.855,0-30.568-14.054-30.568-31.329v-77.658c0-17.275,13.713-31.329,30.568-31.329h11.534v70.158
				c0,14.841,11.903,26.915,26.534,26.915h28.313c4.142,0,7.5-3.358,7.5-7.5c0-4.142-3.358-7.5-7.5-7.5h-28.313
				c-6.36,0-11.534-5.345-11.534-11.914V26.921c0-4.172,1.96-7.843,5.377-10.074c3.247-2.12,7.136-2.443,10.673-0.889l4.608,2.026
				c26.136,11.49,54.183,17.235,82.24,17.233c28.05-0.001,56.11-5.746,82.239-17.233l4.609-2.026
				c3.536-1.555,7.426-1.231,10.673,0.889c3.417,2.231,5.377,5.903,5.377,10.074v271.783c0,6.57-5.174,11.914-11.534,11.914H221.739
				c-4.142,0-7.5,3.358-7.5,7.5c0,4.142,3.358,7.5,7.5,7.5h125.625c14.631,0,26.534-12.074,26.534-26.915v-70.158h11.534
				c16.855,0,30.568,14.054,30.568,31.329V337.533z"/>
			<path d="M256,257.668c4.142,0,7.5-3.358,7.5-7.5V94.851c0-4.142-3.358-7.5-7.5-7.5c-4.142,0-7.5,3.358-7.5,7.5v155.317
				C248.5,254.31,251.858,257.668,256,257.668z"/>
			<path d="M301.175,228.548c0.478,0,0.964-0.046,1.451-0.142c4.065-0.797,6.714-4.738,5.917-8.803
				c-6.127-31.249-6.127-62.938,0-94.187c0.797-4.065-1.852-8.006-5.917-8.803c-4.062-0.799-8.006,1.851-8.803,5.917
				c-6.502,33.164-6.502,66.795,0,99.959C294.524,226.066,297.661,228.547,301.175,228.548z"/>
		</g>
	</g>
</g>
<g>
</g>
<g>
</g>
<g>
</g>
<g>
</g>
<g>
</g>
<g>
</g>
<g>
</g>
<g>
</g>
<g>
</g>
<g>
</g>
<g>
</g>
<g>
</g>
<g>
</g>
<g>
</g>
<g>
</g>
</svg>
