<?xml version="1.0" encoding="iso-8859-1"?>
<!-- Generator: Adobe Illustrator 19.0.0, SVG Export Plug-In . SVG Version: 6.00 Build 0)  -->
<svg version="1.1" id="Capa_1" xmlns="http://www.w3.org/2000/svg" xmlns:xlink="http://www.w3.org/1999/xlink" x="0px" y="0px"
	 viewBox="0 0 512 512" style="enable-background:new 0 0 512 512;" xml:space="preserve">
<g>
	<g>
		<path d="M512,322.979c0-8.913-5.317-16.603-12.942-20.08v-43.016c0-3.301-1.309-6.296-3.426-8.515l6.431-27.008
			c2.312-9.71,0.089-19.771-6.098-27.603c-6.187-7.832-15.459-12.324-25.439-12.324c-9.981,0-19.254,4.492-25.44,12.325
			c-6.186,7.832-8.408,17.893-6.096,27.602l6.43,27.008c-2.117,2.218-3.426,5.214-3.426,8.515v43.016
			c-7.626,3.477-12.942,11.167-12.942,20.08c0,12.154,9.88,22.043,22.03,22.06c-16.101,26.508-45.336,43.243-76.655,43.243H282.45
			c-2.796-8.882-9.954-15.843-18.949-18.375v-16.2c8.057-2.268,14.638-8.089,17.932-15.664h36.448
			c10.499,0,20.555-2.767,29.367-7.935c0.741,4.059,2.462,7.927,5.108,11.278c4.896,6.197,12.231,9.752,20.129,9.752
			s15.233-3.555,20.129-9.752c4.895-6.197,6.652-14.157,4.823-21.84l-7.797-32.75h2.259c12.164,0,22.061-9.896,22.061-22.061
			c0-9.532-6.078-17.669-14.561-20.746v-37.496c0-3.154-1.198-6.027-3.151-8.212l5.909-24.817
			c2.175-9.135,0.085-18.601-5.736-25.971c-5.82-7.369-14.545-11.596-23.936-11.596s-18.115,4.227-23.936,11.596
			c-5.821,7.37-7.911,16.836-5.736,25.971l5.909,24.817c-1.953,2.186-3.151,5.058-3.151,8.212v37.496
			c-8.483,3.077-14.561,11.214-14.561,20.746c0,12.164,9.896,22.061,22.061,22.061h2.259l-5.308,22.296
			c-0.493,0.306-0.962,0.667-1.387,1.099c-8.186,8.287-19.107,12.852-30.754,12.852h-34.447c-0.481-3.328-1.551-6.466-3.108-9.304
			c4.216-5.398,6.509-12.02,6.509-18.948c0-1.406-0.095-2.799-0.283-4.174c9.403-3.357,16.15-12.353,16.15-22.895
			c0-9.382-5.286-17.583-13.181-21.627c0.829-4.567,0.7-9.273-0.406-13.917l-12.023-50.502c-1.728-7.253-6.925-12.879-13.591-15.322
			V81.91c11.653-3.28,20.223-13.996,20.223-26.683c0-0.743-0.029-1.482-0.088-2.217c18.944-3.824,33.254-20.601,33.254-40.656
			C316.889,5.542,311.347,0,304.535,0h-45.3c-4.142,0-7.5,3.357-7.5,7.5s3.358,7.5,7.5,7.5h42.522
			c-1.332,13.36-12.639,23.828-26.344,23.828h-1.274c-2.591,0-4.997,1.337-6.366,3.535c-1.369,2.199-1.507,4.949-0.364,7.273
			c0.871,1.773,1.313,3.654,1.313,5.59c0,7.016-5.707,12.723-12.723,12.723s-12.723-5.707-12.723-12.723
			c0-1.935,0.442-3.815,1.314-5.59c1.143-2.324,1.005-5.074-0.364-7.273c-1.369-2.198-3.776-3.535-6.367-3.535h-1.275
			c-13.706,0-25.012-10.468-26.343-23.828h20.842c4.142,0,7.5-3.357,7.5-7.5s-3.358-7.5-7.5-7.5h-23.62
			c-6.812,0-12.354,5.542-12.354,12.354c0,20.056,14.309,36.831,33.253,40.656c-0.059,0.734-0.088,1.474-0.088,2.217
			c0,12.687,8.57,23.403,20.223,26.684v84.444c-6.666,2.444-11.864,8.07-13.59,15.323l-3.521,14.785
			c-0.959,4.029,1.529,8.074,5.559,9.033c4.028,0.967,8.074-1.528,9.033-5.559l3.521-14.786c0.719-3.021,3.391-5.132,6.498-5.132
			c3.106,0,5.779,2.111,6.499,5.133l12.023,50.502c0.99,4.154,0.583,8.392-1.177,12.254c-1,2.195-0.883,4.738,0.314,6.833
			c1.198,2.094,3.33,3.484,5.729,3.735c4.738,0.496,8.312,4.472,8.312,9.246c0,5.129-4.172,9.301-9.301,9.301h-1.471
			c-2.591,0-4.998,1.337-6.367,3.536c-1.369,2.199-1.506,4.949-0.363,7.273c1.085,2.205,1.635,4.546,1.635,6.958
			c0,2.886-0.788,5.66-2.235,8.087c-4.021-2.274-8.659-3.579-13.599-3.579c-4.941,0-9.581,1.306-13.603,3.581
			c-1.446-2.419-2.231-5.183-2.231-8.089c0-2.411,0.55-4.752,1.635-6.959c1.143-2.325,1.005-5.074-0.365-7.273
			c-1.369-2.198-3.776-3.535-6.366-3.535h-1.471c-5.128,0-9.301-4.172-9.301-9.301c0-4.774,3.573-8.75,8.312-9.246
			c2.399-0.251,4.531-1.642,5.729-3.735s1.315-4.637,0.315-6.832c-1.759-3.863-2.166-8.101-1.177-12.256l2.272-9.546
			c0.959-4.03-1.529-8.074-5.559-9.033c-4.028-0.963-8.074,1.529-9.033,5.559l-2.272,9.546c-1.106,4.644-1.234,9.35-0.406,13.917
			c-7.895,4.043-13.182,12.245-13.182,21.627c0,10.542,6.748,19.538,16.15,22.895c-0.188,1.375-0.283,2.768-0.283,4.174
			c0,6.869,2.335,13.561,6.512,18.941c-1.558,2.84-2.63,5.981-3.111,9.311H194.12c-12.283,0-24.029-5.255-32.226-14.418
			c-0.011-0.012-0.023-0.022-0.034-0.035l-5.188-21.793h2.259c12.164,0,22.061-9.896,22.061-22.061
			c0-9.532-6.078-17.669-14.561-20.746v-37.496c0-3.154-1.198-6.027-3.151-8.212l5.909-24.817
			c2.175-9.136,0.084-18.602-5.736-25.971c-5.82-7.369-14.545-11.596-23.936-11.596c-9.391,0-18.115,4.227-23.936,11.596
			c-5.821,7.37-7.912,16.836-5.736,25.971l5.909,24.817c-1.953,2.186-3.151,5.058-3.151,8.212v37.496
			c-8.483,3.077-14.561,11.214-14.561,20.746c0,12.164,9.896,22.061,22.061,22.061h2.259l-7.798,32.75
			c-1.829,7.683-0.071,15.644,4.824,21.841c4.895,6.197,12.231,9.751,20.128,9.751c7.897,0,15.233-3.554,20.128-9.751
			c2.653-3.358,4.375-7.236,5.114-11.305c8.827,5.153,18.949,7.96,29.362,7.96h36.448c3.295,7.574,9.875,13.396,17.933,15.664
			v16.199c-8.995,2.532-16.153,9.493-18.95,18.375h-91.976c-31.588,0-60.472-16.437-76.669-43.243
			c12.156-0.009,22.044-9.902,22.044-22.06c0-8.913-5.317-16.604-12.943-20.08v-43.016c0-3.301-1.309-6.296-3.426-8.515l6.43-27.008
			c2.312-9.709,0.09-19.77-6.097-27.603c-6.187-7.832-15.459-12.324-25.44-12.324s-19.253,4.492-25.44,12.324
			c-6.187,7.833-8.409,17.894-6.097,27.603l6.43,27.008c-2.117,2.218-3.425,5.213-3.425,8.514v43.016
			C5.317,306.375,0,314.065,0,322.979c0,12.164,9.896,22.061,22.061,22.061h2.259l-7.798,32.75
			c-1.829,7.683-0.071,15.644,4.824,21.841c4.895,6.197,12.231,9.751,20.128,9.751s15.233-3.554,20.128-9.751
			c4.895-6.197,6.653-14.158,4.824-21.841l-0.737-3.096c19.102,18.101,44.628,28.588,71.884,28.588h57.537v7.061
			c0,25.894,16.254,48.05,39.089,56.838c-3.705,4.714-5.924,10.649-5.924,17.097C228.277,499.563,240.713,512,256,512
			c15.286,0,27.723-12.437,27.723-27.723c0-6.447-2.219-12.383-5.924-17.097c22.835-8.788,39.09-30.944,39.09-56.838v-7.061h57.537
			c20.026,0,39.49-5.68,56.286-16.426c5.61-3.589,10.826-7.694,15.614-12.228l-0.753,3.161c-1.829,7.683-0.071,15.643,4.823,21.84
			c4.896,6.197,12.231,9.752,20.129,9.752s15.233-3.555,20.129-9.752c4.895-6.197,6.652-14.157,4.823-21.84l-7.797-32.75h2.259
			C502.104,345.039,512,335.143,512,322.979z M380.842,332.089c-2.032,2.573-5.078,4.049-8.357,4.049s-6.325-1.476-8.357-4.049
			s-2.763-5.879-2.003-9.068l8.223-34.536c0.237-0.994,1.116-1.688,2.138-1.688c1.022,0,1.899,0.694,2.136,1.688l8.223,34.536
			C383.605,326.21,382.874,329.516,380.842,332.089z M360.319,156.792c2.959-3.745,7.393-5.894,12.165-5.894
			c4.772,0,9.206,2.148,12.165,5.894c2.958,3.745,4.021,8.556,2.915,13.198l-5.75,24.15h-18.66l-5.75-24.15
			C356.299,165.348,357.361,160.537,360.319,156.792z M384.398,209.141v33.535H360.57v-33.535H384.398z M353.07,271.797
			c-3.893,0-7.06-3.167-7.06-7.061c0-3.894,3.167-7.061,7.061-7.061h38.828c3.894,0,7.061,3.167,7.061,7.061
			c0,3.894-3.167,7.061-7.061,7.061H353.07z M127.351,156.792c2.958-3.745,7.392-5.894,12.165-5.894s9.207,2.148,12.165,5.894
			c2.958,3.745,4.021,8.556,2.916,13.198l-5.75,24.15h-18.66l-5.75-24.15C123.33,165.348,124.393,160.537,127.351,156.792z
			 M151.43,209.141v33.535h-23.828v-33.535H151.43z M120.102,271.797c-3.894,0-7.061-3.167-7.061-7.061
			c0-3.894,3.167-7.061,7.061-7.061h38.828c3.893,0,7.061,3.167,7.061,7.061c0,3.894-3.167,7.061-7.061,7.061H120.102z
			 M147.873,332.09c-2.032,2.573-5.079,4.049-8.357,4.049c-3.278,0-6.325-1.476-8.357-4.049c-2.033-2.573-2.763-5.879-2.003-9.068
			l8.223-34.536c0.237-0.994,1.116-1.688,2.138-1.688c1.022,0,1.901,0.694,2.138,1.688l8.223,34.536
			C150.636,326.211,149.906,329.517,147.873,332.09z M27.806,206.056c3.324-4.208,8.306-6.622,13.669-6.622
			c5.363,0,10.345,2.414,13.669,6.622c3.324,4.208,4.518,9.613,3.276,14.83l-6.344,26.644H30.873l-6.344-26.644
			C23.288,215.669,24.482,210.264,27.806,206.056z M55.006,262.529v38.389H27.943v-38.389H55.006z M49.832,390.332
			c-2.032,2.573-5.079,4.049-8.357,4.049c-3.278,0-6.325-1.476-8.357-4.049c-2.033-2.573-2.763-5.879-2.003-9.068l8.223-34.536
			c0.237-0.994,1.116-1.688,2.138-1.688c1.022,0,1.901,0.694,2.138,1.688l8.223,34.536
			C52.595,384.453,51.865,387.759,49.832,390.332z M22.061,330.04c-3.894-0.001-7.061-3.168-7.061-7.061
			c0-3.894,3.167-7.061,7.061-7.061h38.828c3.893,0,7.061,3.167,7.061,7.061c0,3.894-3.167,7.061-7.061,7.061H22.061z
			 M243.277,327.023c0-7.016,5.708-12.724,12.723-12.724s12.723,5.708,12.723,12.724s-5.707,12.723-12.723,12.723
			S243.277,334.039,243.277,327.023z M256,383.867c7.016,0,12.723,5.707,12.723,12.723s-5.707,12.724-12.723,12.724
			s-12.723-5.708-12.723-12.724S248.984,383.867,256,383.867z M256,497c-7.016,0-12.723-5.707-12.723-12.723
			s5.708-12.724,12.723-12.724c7.015,0,12.723,5.708,12.723,12.724S263.016,497,256,497z M256,456.231
			c-25.303,0-45.889-20.586-45.889-45.889v-7.061h18.987c3.002,12.064,13.922,21.032,26.902,21.032
			c12.979,0,23.9-8.968,26.901-21.032h18.987v7.061h0.001C301.889,435.645,281.303,456.231,256,456.231z M456.856,206.056
			c3.324-4.208,8.307-6.622,13.669-6.622s10.345,2.414,13.669,6.622c3.324,4.208,4.519,9.614,3.276,14.83l-6.344,26.644h-21.203
			l-6.343-26.644C452.339,215.669,453.533,210.264,456.856,206.056z M484.057,262.529v38.389h-27.064v-38.389H484.057z
			 M478.883,390.332c-2.032,2.573-5.078,4.049-8.357,4.049s-6.325-1.476-8.357-4.049s-2.763-5.879-2.003-9.068l8.223-34.536
			c0.237-0.994,1.116-1.688,2.138-1.688c1.022,0,1.899,0.693,2.136,1.688l8.223,34.536
			C481.646,384.453,480.915,387.759,478.883,390.332z M451.112,330.04c-3.894-0.001-7.061-3.168-7.061-7.061
			c0-3.894,3.167-7.061,7.061-7.061h38.828c3.894,0,7.061,3.167,7.061,7.061c0,3.894-3.167,7.061-7.061,7.061H451.112z"/>
	</g>
</g>
<g>
</g>
<g>
</g>
<g>
</g>
<g>
</g>
<g>
</g>
<g>
</g>
<g>
</g>
<g>
</g>
<g>
</g>
<g>
</g>
<g>
</g>
<g>
</g>
<g>
</g>
<g>
</g>
<g>
</g>
</svg>
