<?xml version="1.0" encoding="iso-8859-1"?>
<!-- Generator: Adobe Illustrator 19.0.0, SVG Export Plug-In . SVG Version: 6.00 Build 0)  -->
<svg version="1.1" id="Capa_1" xmlns="http://www.w3.org/2000/svg" xmlns:xlink="http://www.w3.org/1999/xlink" x="0px" y="0px"
	 viewBox="0 0 512.002 512.002" style="enable-background:new 0 0 512.002 512.002;" xml:space="preserve">
<g>
	<g>
		<g>
			<path d="M300.653,132.138c4.142,0,7.5-3.357,7.5-7.5c0-4.143-3.358-7.5-7.5-7.5h-89.305c-4.142,0-7.5,3.357-7.5,7.5
				s3.358,7.5,7.5,7.5H300.653z"/>
			<path d="M300.653,213.729h-89.305c-4.142,0-7.5,3.357-7.5,7.5c0,4.142,3.358,7.5,7.5,7.5h89.305c4.142,0,7.5-3.357,7.5-7.5
				S304.795,213.729,300.653,213.729z"/>
			<path d="M300.652,310.32h-89.305c-4.142,0-7.5,3.357-7.5,7.5s3.358,7.5,7.5,7.5h89.305c4.142,0,7.5-3.357,7.5-7.5
				C308.152,313.677,304.794,310.32,300.652,310.32z"/>
			<path d="M46.328,381.343h419.344c4.142,0,7.5-3.357,7.5-7.5V82.139c0-4.143-3.358-7.5-7.5-7.5H153.429
				c-4.142,0-7.5,3.357-7.5,7.5c0,4.143,3.358,7.5,7.5,7.5h304.743v82.234H53.828V89.639h70.48c4.142,0,7.5-3.357,7.5-7.5
				c0-4.143-3.358-7.5-7.5-7.5h-77.98c-4.142,0-7.5,3.357-7.5,7.5v291.704C38.828,377.984,42.186,381.343,46.328,381.343z
				 M53.828,186.873h404.344v82.235H53.828V186.873z M53.828,284.109h404.344v82.234H53.828V284.109z"/>
			<path d="M499.646,36.002H12.354C5.542,36.002,0,41.533,0,48.331v359.318c0,6.799,5.542,12.33,12.354,12.33h9.487v43.693
				c0,6.798,5.542,12.329,12.354,12.329H82.73c6.812,0,12.354-5.531,12.354-12.329v-8.921h321.834v8.921
				c0,6.798,5.542,12.329,12.354,12.329h48.535c6.812,0,12.354-5.531,12.354-12.329v-43.693h9.487
				c6.812,0,12.354-5.531,12.354-12.33V48.331C512,41.533,506.458,36.002,499.646,36.002z M497,404.979H377.015
				c-4.142,0-7.5,3.357-7.5,7.5s3.358,7.5,7.5,7.5h98.144v41.022h-43.242v-13.75c0-4.143-3.358-7.5-7.5-7.5H87.583
				c-4.142,0-7.5,3.357-7.5,7.5v13.75H36.841v-41.022h309.112c4.142,0,7.5-3.357,7.5-7.5s-3.358-7.5-7.5-7.5H15V51.002h482V404.979z
				"/>
		</g>
	</g>
</g>
<g>
</g>
<g>
</g>
<g>
</g>
<g>
</g>
<g>
</g>
<g>
</g>
<g>
</g>
<g>
</g>
<g>
</g>
<g>
</g>
<g>
</g>
<g>
</g>
<g>
</g>
<g>
</g>
<g>
</g>
</svg>
