<?xml version="1.0" encoding="iso-8859-1"?>
<!-- Generator: Adobe Illustrator 19.0.0, SVG Export Plug-In . SVG Version: 6.00 Build 0)  -->
<svg version="1.1" id="Capa_1" xmlns="http://www.w3.org/2000/svg" xmlns:xlink="http://www.w3.org/1999/xlink" x="0px" y="0px"
	 viewBox="0 0 512 512" style="enable-background:new 0 0 512 512;" xml:space="preserve">
<g>
	<g>
		<g>
			<path d="M308.938,286.797h19.25c6.789,0,12.313-5.542,12.313-12.354v-55.596h26.188c6.789,0,12.313-5.542,12.313-12.354v-92.217
				c0-20.193-16.317-36.621-36.375-36.621H333c-20.058,0-36.375,16.428-36.375,36.621v160.166
				C296.625,281.255,302.148,286.797,308.938,286.797z M337.813,92.656c3.825,0,6.938,3.167,6.938,7.061s-3.112,7.061-6.938,7.061
				s-6.938-3.167-6.938-7.061S333.987,92.656,337.813,92.656z M315.936,101.274c0.798,11.439,10.301,20.503,21.877,20.503
				c11.576,0,21.079-9.064,21.877-20.503c2.704,3.622,4.311,8.125,4.311,13.003v89.57h-23.5V148.14c0-4.143-3.357-7.5-7.5-7.5
				s-7.5,3.357-7.5,7.5v123.657h-13.875v-157.52h-0.001C311.625,109.399,313.232,104.895,315.936,101.274z"/>
			<path d="M285.838,421.288h-48.125c-4.143,0-7.5,3.357-7.5,7.5s3.357,7.5,7.5,7.5h48.125c4.143,0,7.5-3.357,7.5-7.5
				C293.338,424.646,289.98,421.288,285.838,421.288z"/>
			<path d="M443.5,458.172h-4.076V342.393c0-6.812-5.523-12.354-12.313-12.354h-6.938V53.828h4.264
				c6.789,0,12.313-5.542,12.313-12.354v-29.12C436.75,5.542,431.227,0,424.438,0H87.563C80.773,0,75.25,5.542,75.25,12.354v29.121
				c0,6.812,5.523,12.354,12.313,12.354h4.264V330.04h-6.938c-6.789,0-12.313,5.542-12.313,12.354v115.779H68.5
				c-6.893,0-12.5,5.607-12.5,12.5V499.5c0,6.893,5.607,12.5,12.5,12.5h375c6.893,0,12.5-5.607,12.5-12.5v-28.828
				C456,463.779,450.393,458.172,443.5,458.172z M90.25,38.828V15h331.5v23.828H153.734c-4.143,0-7.5,3.357-7.5,7.5
				s3.357,7.5,7.5,7.5h50.747v72.669l-45.777-46.168c-2.918-2.943-7.667-2.96-10.606-0.046c-2.941,2.917-2.962,7.666-0.046,10.606
				l56.43,56.911v30.846l-21.646-21.831c-2.918-2.943-7.667-2.959-10.606-0.046c-2.941,2.917-2.962,7.666-0.046,10.606
				l32.299,32.574v130.089h-97.655v-72.212l45.775,46.166c1.467,1.479,3.396,2.219,5.326,2.219c1.909,0,3.818-0.725,5.281-2.174
				c2.94-2.917,2.961-7.666,0.045-10.607l-56.43-56.91v-30.844l21.646,21.831c1.467,1.479,3.396,2.219,5.326,2.219
				c1.909,0,3.818-0.725,5.281-2.174c2.94-2.917,2.961-7.666,0.045-10.607l-32.299-32.573V53.828h19.236c4.143,0,7.5-3.357,7.5-7.5
				s-3.357-7.5-7.5-7.5H90.25z M405.173,330.039H219.481V53.828h185.692V330.039z M87.576,345.039h13.807
				c0.887,0.205,1.807,0.323,2.756,0.323h303.723c0.948,0,1.868-0.119,2.756-0.323h13.807v48.097H87.576V345.039z M87.576,408.136
				h336.848v50.036H87.576V408.136z M441,497H71v-23.828h370V497z"/>
			<path d="M260.813,121.777c12.097,0,21.938-9.896,21.938-22.061s-9.841-22.061-21.938-22.061s-21.938,9.896-21.938,22.061
				C238.875,111.881,248.716,121.777,260.813,121.777z M260.813,92.656c3.825,0,6.938,3.167,6.938,7.061s-3.112,7.061-6.938,7.061
				s-6.938-3.167-6.938-7.061S256.987,92.656,260.813,92.656z"/>
			<path d="M285.838,359.16h-48.125c-4.143,0-7.5,3.357-7.5,7.5s3.357,7.5,7.5,7.5h48.125c4.143,0,7.5-3.357,7.5-7.5
				S289.981,359.16,285.838,359.16z"/>
		</g>
	</g>
</g>
<g>
</g>
<g>
</g>
<g>
</g>
<g>
</g>
<g>
</g>
<g>
</g>
<g>
</g>
<g>
</g>
<g>
</g>
<g>
</g>
<g>
</g>
<g>
</g>
<g>
</g>
<g>
</g>
<g>
</g>
</svg>
