<?xml version="1.0" encoding="iso-8859-1"?>
<!-- Generator: Adobe Illustrator 19.0.0, SVG Export Plug-In . SVG Version: 6.00 Build 0)  -->
<svg version="1.1" id="Capa_1" xmlns="http://www.w3.org/2000/svg" xmlns:xlink="http://www.w3.org/1999/xlink" x="0px" y="0px"
	 viewBox="0 0 512 512" style="enable-background:new 0 0 512 512;" xml:space="preserve">
<g>
	<g>
		<path d="M439.545,447.135v-24.439h7.893c6.787,0,12.31-5.542,12.31-12.354v-29.121c0-6.812-5.522-12.354-12.31-12.354h-7.893
			V46.328C439.545,20.783,418.919,0,393.565,0h-275.13c-25.354,0-45.98,20.783-45.98,46.328v322.539h-7.893
			c-6.787,0-12.31,5.542-12.31,12.354v29.121c0,6.812,5.522,12.354,12.31,12.354h7.893V448.7C57.453,451.287,46,464.383,46,480.113
			C46,497.695,60.305,512,77.887,512h4.137c17.582,0,31.887-14.305,31.887-31.887c0-15.73-11.453-28.827-26.455-31.414v-26.004
			h337.09v24.439c-15.055,2.939-26.455,16.225-26.455,32.127c0,18.052,14.687,32.738,32.738,32.738h2.434
			C451.313,512,466,497.313,466,479.262C466,463.359,454.6,450.074,439.545,447.135z M87.455,46.328
			c0-17.274,13.898-31.328,30.98-31.328h275.131c17.082,0,30.979,14.054,30.979,31.328v31.328h-48.491v-2.207
			c0-4.143-3.357-7.5-7.5-7.5s-7.5,3.357-7.5,7.5v2.207h-71.58v-2.207c0-4.143-3.357-7.5-7.5-7.5s-7.5,3.357-7.5,7.5v2.207h-57.149
			v-2.207c0-4.143-3.357-7.5-7.5-7.5s-7.5,3.357-7.5,7.5v2.207h-76.39v-2.207c0-4.143-3.357-7.5-7.5-7.5s-7.5,3.357-7.5,7.5v2.207
			h-23.48V46.328z M385.103,145.605h-33.099v-11.914c0-6.569,5.267-11.914,11.739-11.914h9.62c6.474,0,11.74,5.345,11.74,11.914
			V145.605z M298.522,145.605h-33.099v-11.914c0-6.569,5.267-11.914,11.74-11.914h9.62c6.473,0,11.739,5.345,11.739,11.914V145.605z
			 M125.935,267.383h31.11h14.169h31.11v40.449c0,6.893-5.607,12.5-12.5,12.5h-51.39c-6.893,0-12.5-5.607-12.5-12.5L125.935,267.383
			L125.935,267.383z M125.934,116.484V92.656h76.39v23.828H125.934z M149.984,245.322c0-3.894,3.167-7.061,7.061-7.061h14.169
			c3.894,0,7.061,3.167,7.061,7.061c0,3.894-3.167,7.061-7.061,7.061h-14.169C153.151,252.383,149.984,249.216,149.984,245.322z
			 M192.109,252.384c0.752-2.218,1.166-4.591,1.166-7.061c-0.001-12.165-9.897-22.061-22.061-22.061h-14.169
			c-12.164,0-22.061,9.896-22.061,22.061c0,2.469,0.414,4.842,1.166,7.061h-10.215v-52.949h31.11h14.169h31.11v52.949H192.109z
			 M149.984,177.373c0-3.894,3.167-7.061,7.061-7.061h14.169c3.894,0,7.061,3.167,7.061,7.061s-3.167,7.061-7.061,7.061h-14.169
			C153.151,184.434,149.984,181.267,149.984,177.373z M192.109,184.433c0.752-2.218,1.166-4.591,1.166-7.061
			c0-12.164-9.896-22.061-22.061-22.061h-14.169c-12.164,0-22.061,9.896-22.061,22.061c0,2.469,0.414,4.842,1.166,7.061h-10.215
			v-50.742v-2.207h76.39v2.207h-0.001v50.742H192.109z M98.91,480.113c0,9.312-7.575,16.887-16.887,16.887h-4.137
			C68.575,497,61,489.425,61,480.113c0-7.409,4.804-13.704,11.455-15.973v9.297c0,4.143,3.357,7.5,7.5,7.5s7.5-3.357,7.5-7.5v-9.297
			C94.107,466.409,98.91,472.705,98.91,480.113z M67.253,407.695v-23.828h68.178c4.143,0,7.5-3.357,7.5-7.5s-3.357-7.5-7.5-7.5
			H87.455V92.656h23.479v31.328v9.707v58.242v67.949v47.949c0,15.163,12.337,27.5,27.5,27.5h51.39c15.163,0,27.5-12.337,27.5-27.5
			v-47.949v-67.949v-58.242v-9.707V92.656h57.149v14.257c-13.486,1.362-24.05,12.851-24.05,26.778v189.287
			c0,4.143,3.357,7.5,7.5,7.5s7.5-3.357,7.5-7.5V160.605h33.1v159.727h-15.827c-4.143,0-7.5,3.357-7.5,7.5s3.357,7.5,7.5,7.5h18.518
			c6.787,0,12.31-5.542,12.31-12.354V133.691c0-13.927-10.564-25.416-24.05-26.778V92.656h71.58v14.257
			c-13.486,1.362-24.05,12.851-24.05,26.778v189.287c0,4.143,3.357,7.5,7.5,7.5s7.5-3.357,7.5-7.5V160.605h33.1v159.727h-16.229
			c-4.143,0-7.5,3.357-7.5,7.5s3.357,7.5,7.5,7.5h18.918c6.788,0,12.311-5.542,12.311-12.354V133.691
			c0-13.927-10.564-25.416-24.05-26.778V92.656h48.491v276.211H162.687c-4.143,0-7.5,3.357-7.5,7.5s3.357,7.5,7.5,7.5h282.061
			v23.828H67.253z M433.262,497h-2.434c-9.781,0-17.738-7.957-17.738-17.738c0-7.567,4.771-14.023,11.455-16.567v10.743
			c0,4.143,3.357,7.5,7.5,7.5s7.5-3.357,7.5-7.5v-10.743c6.685,2.544,11.455,9,11.455,16.567C451,489.043,443.043,497,433.262,497z"
			/>
	</g>
</g>
<g>
</g>
<g>
</g>
<g>
</g>
<g>
</g>
<g>
</g>
<g>
</g>
<g>
</g>
<g>
</g>
<g>
</g>
<g>
</g>
<g>
</g>
<g>
</g>
<g>
</g>
<g>
</g>
<g>
</g>
</svg>
