<?xml version="1.0" encoding="iso-8859-1"?>
<!-- Generator: Adobe Illustrator 19.0.0, SVG Export Plug-In . SVG Version: 6.00 Build 0)  -->
<svg version="1.1" id="Capa_1" xmlns="http://www.w3.org/2000/svg" xmlns:xlink="http://www.w3.org/1999/xlink" x="0px" y="0px"
	 viewBox="0 0 512 512" style="enable-background:new 0 0 512 512;" xml:space="preserve">
<g>
	<g>
		<path d="M443.394,0c-15.223,0-27.607,12.437-27.607,27.723c0,10.759,6.138,20.099,15.079,24.692
			c-8.916,15.551-25.305,25.241-43.61,25.241h-46.232c7.225-5.979,13.213-13.545,17.404-22.332
			c14.039-1.289,25.074-13.172,25.074-27.602C383.502,12.437,371.118,0,355.896,0c-15.222,0-27.606,12.437-27.606,27.723
			c0,10.652,6.017,19.915,14.813,24.555c-8.935,15.58-25.523,25.378-43.672,25.378h-20.488V12.354
			C278.942,5.542,273.413,0,266.616,0h-19.302c-6.796,0-12.326,5.542-12.326,12.354v65.303H212.57
			c-18.009,0-34.246-9.456-43.25-24.642c9.61-4.342,16.321-14.041,16.321-25.292C185.642,12.437,173.257,0,158.035,0
			c-15.222,0-27.606,12.437-27.606,27.723c0,13.719,9.976,25.135,23.024,27.334c4.188,8.912,10.181,16.566,17.442,22.599h-44.22
			c-18.312,0-35.234-10.24-44.042-26.068c8.121-4.832,13.581-13.718,13.581-23.865C96.213,12.437,83.829,0,68.606,0
			C53.384,0,41,12.437,41,27.723c0,14.992,11.912,27.233,26.73,27.701c10.802,22.465,33.87,37.232,58.945,37.232h85.896h22.418
			v23.566c0,4.143,3.358,7.5,7.5,7.5c4.142,0,7.5-3.357,7.5-7.5V15h13.954v402.402h-13.954V143.151c0-4.143-3.358-7.5-7.5-7.5
			c-4.142,0-7.5,3.357-7.5,7.5v109.231H212.57c-17.778,0-34.216-9.628-43.224-24.653c9.597-4.348,16.296-14.04,16.296-25.28
			c0-15.286-12.384-27.723-27.607-27.723c-15.222,0-27.606,12.437-27.606,27.723c0,13.717,9.973,25.132,23.018,27.333
			c10.727,22.68,33.887,37.6,59.124,37.6h22.418v157.583c-0.621,1.474-0.965,3.092-0.965,4.79v36.182h-55.233
			c-6.796,0-12.325,5.542-12.325,12.354v21.355c0,6.812,5.529,12.354,12.325,12.354h100.372c4.142,0,7.5-3.357,7.5-7.5
			s-3.358-7.5-7.5-7.5h-97.697v-16.063h60.058c4.142,0,7.5-3.357,7.5-7.5v-41.035h15.883v41.035c0,4.143,3.358,7.5,7.5,7.5h60.059
			V497h-25.153c-4.142,0-7.5,3.357-7.5,7.5s3.358,7.5,7.5,7.5h27.828c6.796,0,12.326-5.542,12.326-12.354v-21.355
			c0-6.812-5.529-12.354-12.326-12.354h-55.233v-36.182c0-1.728-0.359-3.373-1.001-4.868c0.022-0.235,0.036-0.473,0.036-0.713
			V267.383h20.488c25.383,0,48.139-14.536,58.989-37.331c14.043-1.285,25.083-13.171,25.083-27.603
			c0-15.286-12.384-27.723-27.606-27.723s-27.606,12.437-27.606,27.723c0,10.651,6.016,19.914,14.811,24.555
			c-8.919,15.605-25.415,25.379-43.67,25.379h-20.488V92.656h20.488h87.826c25.534,0,48.191-14.507,59.018-37.361
			C460.148,53.844,471,42.033,471,27.723C471,12.437,458.616,0,443.394,0z M355.896,15c6.951,0,12.606,5.707,12.606,12.723
			c0,7.016-5.655,12.724-12.606,12.724s-12.606-5.708-12.606-12.724C343.29,20.707,348.944,15,355.896,15z M158.034,40.447
			c-6.951-0.001-12.606-5.709-12.606-12.724c0-7.016,5.655-12.723,12.606-12.723c6.952,0,12.607,5.707,12.607,12.723
			C170.641,34.739,164.986,40.447,158.034,40.447z M68.606,40.447C61.655,40.446,56,34.738,56,27.723C56,20.707,61.655,15,68.606,15
			c6.952,0,12.607,5.707,12.607,12.723C81.213,34.739,75.558,40.447,68.606,40.447z M159.542,215.073
			c-0.793-0.114-1.61-0.098-2.423,0.053c-6.524-0.477-11.691-5.973-11.691-12.677c0-7.016,5.655-12.723,12.606-12.723
			c6.952,0,12.607,5.707,12.607,12.723C170.641,208.949,165.784,214.317,159.542,215.073z M355.896,189.727
			c6.951,0,12.606,5.707,12.606,12.723s-5.655,12.724-12.606,12.724s-12.606-5.708-12.606-12.724S348.944,189.727,355.896,189.727z
			 M443.394,40.446c-6.952,0-12.607-5.708-12.607-12.724S436.442,15,443.394,15C450.345,15,456,20.707,456,27.723
			C456,34.739,450.345,40.446,443.394,40.446z"/>
	</g>
</g>
<g>
</g>
<g>
</g>
<g>
</g>
<g>
</g>
<g>
</g>
<g>
</g>
<g>
</g>
<g>
</g>
<g>
</g>
<g>
</g>
<g>
</g>
<g>
</g>
<g>
</g>
<g>
</g>
<g>
</g>
</svg>
