<?xml version="1.0" encoding="iso-8859-1"?>
<!-- Generator: Adobe Illustrator 19.0.0, SVG Export Plug-In . SVG Version: 6.00 Build 0)  -->
<svg version="1.1" id="Capa_1" xmlns="http://www.w3.org/2000/svg" xmlns:xlink="http://www.w3.org/1999/xlink" x="0px" y="0px"
	 viewBox="0 0 512.002 512.002" style="enable-background:new 0 0 512.002 512.002;" xml:space="preserve">
<g>
	<g>
		<path d="M499.5,189.074H204.087c9.119-9.085,14.761-21.549,14.761-35.287c0-5.884-4.204-10.809-9.787-11.984
			c0.048-0.757,0.08-1.516,0.08-2.278c0-19.864-16.428-36.024-36.621-36.024c-11.865,0-22.425,5.583-29.121,14.215
			c-6.696-8.632-17.256-14.215-29.121-14.215c-20.193,0-36.621,16.16-36.621,36.024c0,0.763,0.031,1.521,0.079,2.279
			c-5.583,1.176-9.786,6.101-9.786,11.984c0,13.738,5.641,26.202,14.761,35.287H12.5c-6.893,0-12.5,5.607-12.5,12.5v28.032
			c0,6.893,5.607,12.5,12.5,12.5h6.914v154.14c0,6.757,5.542,12.254,12.354,12.254h29.121c6.812,0,12.354-5.497,12.354-12.254
			v-40.041h365.516v40.041c0,6.757,5.542,12.254,12.354,12.254h29.121c6.812,0,12.354-5.497,12.354-12.254v-154.14h6.914
			c6.893,0,12.5-5.607,12.5-12.5v-28.032C512,194.682,506.393,189.074,499.5,189.074z M172.52,118.5
			c11.922,0,21.621,9.432,21.621,21.024c0,0.674-0.042,1.343-0.106,2.009h-43.027c-0.065-0.666-0.109-1.335-0.109-2.009
			C150.898,127.932,160.598,118.5,172.52,118.5z M114.277,118.5c11.922,0,21.621,9.432,21.621,21.024
			c0,0.674-0.045,1.343-0.109,2.009H92.764c-0.065-0.666-0.108-1.334-0.108-2.009C92.656,127.932,102.355,118.5,114.277,118.5z
			 M203.74,156.533c-1.441,18.179-17.07,32.541-36.073,32.541h-48.535c-19.005,0-34.633-14.362-36.074-32.541H203.74z M58.242,393.5
			H34.414V242.106h23.828V393.5z M438.757,341.205H73.242v-23.033h263.649c4.142,0,7.5-3.357,7.5-7.5s-3.358-7.5-7.5-7.5h-40.387
			v-13.524h91.777v13.524h-21.298c-4.142,0-7.5,3.357-7.5,7.5s3.358,7.5,7.5,7.5h71.774V341.205z M438.758,303.172h-35.477v-16.271
			c0-6.757-5.542-12.254-12.354-12.254h-97.07c-6.812,0-12.354,5.497-12.354,12.254v16.271H73.242v-61.065h365.516V303.172z
			 M477.586,393.5h-23.828V242.106h23.828V393.5z M497,227.106H15v-23.032h482V227.106z"/>
	</g>
</g>
<g>
</g>
<g>
</g>
<g>
</g>
<g>
</g>
<g>
</g>
<g>
</g>
<g>
</g>
<g>
</g>
<g>
</g>
<g>
</g>
<g>
</g>
<g>
</g>
<g>
</g>
<g>
</g>
<g>
</g>
</svg>
