<?xml version="1.0" encoding="iso-8859-1"?>
<!-- Generator: Adobe Illustrator 19.0.0, SVG Export Plug-In . SVG Version: 6.00 Build 0)  -->
<svg version="1.1" id="Capa_1" xmlns="http://www.w3.org/2000/svg" xmlns:xlink="http://www.w3.org/1999/xlink" x="0px" y="0px"
	 viewBox="0 0 512 512" style="enable-background:new 0 0 512 512;" xml:space="preserve">
<g>
	<g>
		<path d="M494.793,202.181h-27.445v-54.579c0-14.668-12.073-26.601-26.914-26.601h-165.02c-7.624,0-14.512,3.155-19.414,8.206
			c-4.902-5.052-11.79-8.206-19.414-8.206H71.566c-14.841,0-26.914,11.933-26.914,26.601v54.579H17.207
			C7.719,202.181,0,209.829,0,219.23v124.157c0,9.401,7.719,17.05,17.207,17.05h38.828c0.689,0,1.365-0.052,2.032-0.13
			c0.373,0.069,0.755,0.108,1.145,0.119v18.298c0,6.769,5.542,12.275,12.354,12.275h48.535c6.812,0,12.354-5.507,12.354-12.275
			v-18.287h247.09v18.287c0,6.769,5.542,12.275,12.354,12.275h48.535c6.812,0,12.354-5.507,12.354-12.275v-18.298
			c0.39-0.011,0.772-0.05,1.145-0.119c0.668,0.078,1.344,0.13,2.032,0.13h38.828c9.488,0,17.207-7.649,17.207-17.05V219.23
			C512,209.829,504.281,202.181,494.793,202.181z M58.242,255.095c-7.756,1.652-13.59,8.493-13.59,16.664v28.652
			c0,8.171,5.834,15.012,13.59,16.664v26.313c0,1.13-0.99,2.05-2.207,2.05H17.207C15.99,345.439,15,344.519,15,343.389V219.23
			c0-1.131,0.99-2.051,2.207-2.051h38.828c1.217,0,2.207,0.92,2.207,2.051V255.095z M117.455,376.001H74.213v-15.562h43.242V376.001
			z M437.787,376.001h-43.242v-15.562h43.242V376.001z M73.105,345.437c0.082-0.674,0.137-1.354,0.137-2.049V317.46h173.051
			c3.6,0,6.942-1.105,9.707-2.985c2.765,1.88,6.107,2.985,9.707,2.985h173.051v25.927c0,0.695,0.055,1.377,0.137,2.05H73.105z
			 M452.348,202.566c-7.756,1.652-13.59,8.493-13.59,16.665v35.478h-110.44c-4.143,0-7.5,3.358-7.5,7.5c0,4.142,3.357,7.5,7.5,7.5
			h121.823c1.217,0,2.207,0.92,2.207,2.05v28.652c0,1.13-0.99,2.05-2.207,2.05H265.707c-1.217,0-2.207-0.92-2.207-2.05v-28.652
			c0-1.13,0.99-2.05,2.207-2.05h33.732c4.143,0,7.5-3.358,7.5-7.5c0-4.142-3.357-7.5-7.5-7.5h-33.732
			c-3.6,0-6.942,1.105-9.707,2.985c-2.765-1.88-6.107-2.985-9.707-2.985H133.206c-4.143,0-7.5,3.358-7.5,7.5s3.357,7.5,7.5,7.5
			h113.087c1.217,0,2.207,0.92,2.207,2.05v28.652c0,1.13-0.99,2.05-2.207,2.05H61.859c-1.217,0-2.207-0.92-2.207-2.05v-28.652
			c0-1.13,0.99-2.05,2.207-2.05h43.196c4.143,0,7.5-3.358,7.5-7.5c0-4.142-3.357-7.5-7.5-7.5H73.242V219.23
			c0-8.172-5.834-15.013-13.59-16.665V147.6c0-6.396,5.345-11.6,11.914-11.6h165.02c6.569,0,11.914,5.204,11.914,11.601v85
			c0,4.142,3.357,7.5,7.5,7.5s7.5-3.358,7.5-7.5v-85c0-6.397,5.345-11.601,11.914-11.601h165.02c6.569,0,11.914,5.204,11.914,11.601
			V202.566z M497,343.389c0,1.13-0.99,2.05-2.207,2.05h-38.828c-1.217,0-2.207-0.92-2.207-2.05v-26.313
			c7.756-1.652,13.59-8.493,13.59-16.664v-28.652c0-8.171-5.834-15.012-13.59-16.664V219.23c0-1.131,0.99-2.051,2.207-2.051h38.828
			c1.217,0,2.207,0.92,2.207,2.051V343.389z"/>
	</g>
</g>
<g>
</g>
<g>
</g>
<g>
</g>
<g>
</g>
<g>
</g>
<g>
</g>
<g>
</g>
<g>
</g>
<g>
</g>
<g>
</g>
<g>
</g>
<g>
</g>
<g>
</g>
<g>
</g>
<g>
</g>
</svg>
