<?xml version="1.0" encoding="iso-8859-1"?>
<!-- Generator: Adobe Illustrator 19.0.0, SVG Export Plug-In . SVG Version: 6.00 Build 0)  -->
<svg version="1.1" id="Capa_1" xmlns="http://www.w3.org/2000/svg" xmlns:xlink="http://www.w3.org/1999/xlink" x="0px" y="0px"
	 viewBox="0 0 512.002 512.002" style="enable-background:new 0 0 512.002 512.002;" xml:space="preserve">
<g>
	<g>
		<g>
			<path d="M120.102,261.9c-4.142,0-7.5,3.358-7.5,7.5v28.714c0,4.142,3.358,7.5,7.5,7.5c4.142,0,7.5-3.358,7.5-7.5V269.4
				C127.602,265.258,124.244,261.9,120.102,261.9z"/>
			<path d="M341.156,298.114V269.4c0-4.142-3.358-7.5-7.5-7.5c-4.142,0-7.5,3.358-7.5,7.5v28.714c0,4.142,3.358,7.5,7.5,7.5
				C337.798,305.614,341.156,302.256,341.156,298.114z"/>
			<path d="M124.955,162.043h48.535c4.142,0,7.5-3.358,7.5-7.5c0-4.142-3.358-7.5-7.5-7.5h-48.535c-4.142,0-7.5,3.358-7.5,7.5
				C117.455,158.685,120.813,162.043,124.955,162.043z"/>
			<path d="M178.344,261.9c-4.142,0-7.5,3.358-7.5,7.5v28.714c0,4.142,3.358,7.5,7.5,7.5c4.142,0,7.5-3.358,7.5-7.5V269.4
				C185.844,265.258,182.486,261.9,178.344,261.9z"/>
			<path d="M391.898,305.614c4.142,0,7.5-3.358,7.5-7.5V269.4c0-4.142-3.358-7.5-7.5-7.5c-4.142,0-7.5,3.358-7.5,7.5v28.714
				C384.398,302.256,387.756,305.614,391.898,305.614z"/>
			<path d="M499.646,81H12.354C5.542,81,0,86.511,0,93.286V122c0,6.774,5.542,12.286,12.354,12.286h26.475v215.005
				c-5.543,1.209-9.707,6.124-9.707,11.995V390c0,5.87,4.164,10.785,9.707,11.995v16.72c0,6.774,5.542,12.286,12.354,12.286h48.535
				c6.812,0,12.354-5.511,12.354-12.286v-16.429H399.93v16.429c0,6.774,5.542,12.286,12.354,12.286h48.535
				c6.812,0,12.354-5.511,12.354-12.286v-16.72c5.543-1.209,9.707-6.124,9.707-11.995v-28.714c0-5.87-4.164-10.785-9.707-11.995
				V134.286h26.475c6.812,0,12.354-5.511,12.354-12.286V93.286C512,86.511,506.458,81,499.646,81z M97.07,416H53.828v-13.714H97.07
				V416z M458.172,416H414.93v-13.714h43.242V416z M467.879,387.286H44.121V364h264.296c4.142,0,7.5-3.358,7.5-7.5
				c0-4.142-3.358-7.5-7.5-7.5H263.5V220.43h91.777V349h-17.738c-4.142,0-7.5,3.358-7.5,7.5c0,4.142,3.358,7.5,7.5,7.5h130.34
				V387.286z M53.828,349V220.43h87.895V349H53.828z M156.723,349V220.43H248.5V349H156.723z M263.5,205.43v-70.986
				c0-0.053-0.007-0.104-0.008-0.157h194.68v71.143H263.5z M458.172,220.43V349h-87.895V220.43H458.172z M497,119.286H104.57
				c-4.142,0-7.5,3.358-7.5,7.5c0,4.142,3.358,7.5,7.5,7.5h143.938c-0.001,0.053-0.008,0.104-0.008,0.157v70.986H53.828v-71.143
				h21.621c4.142,0,7.5-3.358,7.5-7.5c0-4.142-3.358-7.5-7.5-7.5H15V96h482V119.286z"/>
			<path d="M387.045,147.043H338.51c-4.142,0-7.5,3.358-7.5,7.5c0,4.142,3.358,7.5,7.5,7.5h48.535c4.142,0,7.5-3.358,7.5-7.5
				C394.545,150.401,391.187,147.043,387.045,147.043z"/>
		</g>
	</g>
</g>
<g>
</g>
<g>
</g>
<g>
</g>
<g>
</g>
<g>
</g>
<g>
</g>
<g>
</g>
<g>
</g>
<g>
</g>
<g>
</g>
<g>
</g>
<g>
</g>
<g>
</g>
<g>
</g>
<g>
</g>
</svg>
