<?xml version="1.0" encoding="iso-8859-1"?>
<!-- Generator: Adobe Illustrator 19.0.0, SVG Export Plug-In . SVG Version: 6.00 Build 0)  -->
<svg version="1.1" id="Capa_1" xmlns="http://www.w3.org/2000/svg" xmlns:xlink="http://www.w3.org/1999/xlink" x="0px" y="0px"
	 viewBox="0 0 512 512" style="enable-background:new 0 0 512 512;" xml:space="preserve">
<g>
	<g>
		<g>
			<path d="M504.5,497h-52.198v-16.06h24.334c6.812,0,12.354-5.401,12.354-12.04V325.627c6.802-0.012,12.333-5.548,12.333-12.353
				v-29.121c0-6.812-5.542-12.354-12.354-12.354h-11.242v-66.308c8.007-4.669,13.403-13.345,13.403-23.263
				c0-9.918-5.396-18.595-13.403-23.263v-31.131c8.007-4.669,13.403-13.345,13.403-23.263c0-9.918-5.396-18.595-13.403-23.263
				V53.829h11.242c6.812,0,12.354-5.542,12.354-12.354V12.354C501.323,5.542,495.781,0,488.969,0H167.666
				c-6.812,0-12.353,5.542-12.356,12.354v29.12c0,6.812,5.542,12.354,12.354,12.354h11.242v27.477
				c-8.007,4.669-13.403,13.345-13.403,23.263c0,9.918,5.396,18.595,13.403,23.263v31.131c-8.007,4.669-13.403,13.345-13.403,23.263
				c0,9.918,5.396,18.595,13.403,23.263v66.308h-11.242c-6.812,0-12.354,5.542-12.354,12.354v29.121
				c0,6.805,5.531,12.342,12.333,12.353v143.273c0,6.639,5.542,12.04,12.354,12.04h24.334V497h-86.438v-16.063h2.061
				c6.893,0,12.5-5.607,12.5-12.5V99.863c0-6.893-5.607-12.5-12.5-12.5H23.177c-6.893,0-12.5,5.607-12.5,12.5v368.574
				c0,6.893,5.607,12.5,12.5,12.5h2.061V497H7.5c-4.143,0-7.5,3.357-7.5,7.5s3.357,7.5,7.5,7.5h347.512c4.143,0,7.5-3.357,7.5-7.5
				s-3.357-7.5-7.5-7.5H219.333v-16.063h217.969V497h-51.875c-4.143,0-7.5,3.357-7.5,7.5s3.357,7.5,7.5,7.5H504.5
				c4.143,0,7.5-3.357,7.5-7.5S508.643,497,504.5,497z M102.894,497H40.238v-16.063h62.656V497z M117.455,465.938H25.678v-150.02
				h91.777V465.938z M117.455,300.918H25.678v-43.242h91.777V300.918z M117.455,242.676H25.678V102.363h91.777V242.676z
				 M473.99,380.759H182.646v-55.134H473.99V380.759z M170.313,38.828h-0.002V15h316.01v23.829H308.093c-4.143,0-7.5,3.357-7.5,7.5
				s3.357,7.5,7.5,7.5h21.044L293.406,89.56c-2.929,2.929-2.929,7.677,0,10.607c1.465,1.464,3.385,2.196,5.304,2.196
				c1.919,0,3.839-0.732,5.304-2.196l46.339-46.339h44.797V75.18l-53.209,53.209c-2.929,2.929-2.929,7.677,0,10.607
				c1.465,1.464,3.385,2.196,5.304,2.196c1.919,0,3.839-0.732,5.304-2.196l42.601-42.601v117.16h-69.525v-36.182
				c0-3.894,3.167-7.061,7.061-7.061c3.894,0,7.061,3.167,7.061,7.061v4.854c0,4.143,3.357,7.5,7.5,7.5s7.5-3.357,7.5-7.5v-4.854
				c0-12.165-9.896-22.061-22.061-22.061c-12.165,0-22.061,9.897-22.061,22.061v36.182h-49.141v-28.221l56.046-56.046
				c2.929-2.929,2.929-7.677,0-10.607c-2.929-2.928-7.677-2.928-10.607,0l-45.438,45.438V53.828h18.783c4.143,0,7.5-3.357,7.5-7.5
				s-3.357-7.5-7.5-7.5H170.313z M427.441,213.555H410.15V78.289c0,0,0-0.004,0-0.007V53.828h52.577v23.873
				c-14.151,0.776-25.425,12.53-25.425,26.871s11.274,26.095,25.425,26.871v23.914c-14.151,0.776-25.425,12.53-25.425,26.871
				s11.274,26.095,25.425,26.871v62.699H418.86c12.813-11.171,20.935-27.595,20.935-45.889
				C439.795,219.097,434.253,213.555,427.441,213.555z M452.302,182.227c0-6.57,5.345-11.914,11.914-11.914
				c6.569,0,11.914,5.345,11.914,11.914c0,6.569-5.345,11.914-11.914,11.914C457.647,194.141,452.302,188.796,452.302,182.227z
				 M464.216,116.484c-6.569,0-11.914-5.345-11.914-11.914c0-6.569,5.345-11.914,11.914-11.914c6.569,0,11.914,5.345,11.914,11.914
				C476.13,111.139,470.785,116.484,464.216,116.484z M245.168,271.797h-51.259v-62.7c14.151-0.776,25.425-12.53,25.425-26.871
				s-11.274-26.095-25.425-26.871v-23.914c14.151-0.776,25.425-12.53,25.425-26.871s-11.274-26.095-25.425-26.871V53.828h52.576
				v128.393v0.01v31.323h-9.898c-6.812,0-12.354,5.542-12.354,12.354C224.233,244.203,232.354,260.626,245.168,271.797z
				 M192.419,170.313c6.569,0,11.914,5.345,11.914,11.914c0,6.569-5.345,11.914-11.914,11.914c-6.569,0-11.914-5.345-11.914-11.914
				C180.505,175.658,185.85,170.313,192.419,170.313z M180.505,104.57c0-6.569,5.345-11.914,11.914-11.914
				c6.569,0,11.914,5.345,11.914,11.914c0,6.57-5.345,11.914-11.914,11.914C185.85,116.484,180.505,111.139,180.505,104.57z
				 M170.313,310.625v-23.828h156.548c4.143,0,7.5-3.357,7.5-7.5s-3.357-7.5-7.5-7.5h-41.74c-24.415,0-44.437-19.165-45.813-43.242
				H424.72c-1.375,24.077-21.398,43.242-45.813,43.242h-22.924c-4.143,0-7.5,3.357-7.5,7.5s3.357,7.5,7.5,7.5h130.34v23.828H170.313
				z M182.646,465.938v-70.179H473.99v70.179H182.646z"/>
			<path d="M94.863,383.867c4.143,0,7.5-3.357,7.5-7.5v-29.121c0-4.142-3.357-7.5-7.5-7.5c-4.143,0-7.5,3.357-7.5,7.5v29.121
				C87.363,380.51,90.72,383.867,94.863,383.867z"/>
			<path d="M362.292,417.402h-67.949c-4.143,0-7.5,3.357-7.5,7.5s3.357,7.5,7.5,7.5h67.949c4.143,0,7.5-3.357,7.5-7.5
				S366.435,417.402,362.292,417.402z"/>
			<path d="M294.343,354.746h67.949c4.143,0,7.5-3.357,7.5-7.5s-3.357-7.5-7.5-7.5h-67.949c-4.143,0-7.5,3.357-7.5,7.5
				S290.2,354.746,294.343,354.746z"/>
			<path d="M94.863,189.727c4.143,0,7.5-3.357,7.5-7.5v-29.121c0-4.143-3.357-7.5-7.5-7.5c-4.143,0-7.5,3.357-7.5,7.5v29.121
				C87.363,186.369,90.721,189.727,94.863,189.727z"/>
			<path d="M56.035,286.797h29.121c4.143,0,7.5-3.357,7.5-7.5s-3.357-7.5-7.5-7.5H56.035c-4.143,0-7.5,3.357-7.5,7.5
				C48.535,283.439,51.893,286.797,56.035,286.797z"/>
		</g>
	</g>
</g>
<g>
</g>
<g>
</g>
<g>
</g>
<g>
</g>
<g>
</g>
<g>
</g>
<g>
</g>
<g>
</g>
<g>
</g>
<g>
</g>
<g>
</g>
<g>
</g>
<g>
</g>
<g>
</g>
<g>
</g>
</svg>
