<?xml version="1.0" encoding="iso-8859-1"?>
<!-- Generator: Adobe Illustrator 19.0.0, SVG Export Plug-In . SVG Version: 6.00 Build 0)  -->
<svg version="1.1" id="Capa_1" xmlns="http://www.w3.org/2000/svg" xmlns:xlink="http://www.w3.org/1999/xlink" x="0px" y="0px"
	 viewBox="0 0 512.001 512.001" style="enable-background:new 0 0 512.001 512.001;" xml:space="preserve">
<g>
	<g>
		<path d="M485.086,215.4H434.61c-4.143,0-7.5,3.358-7.5,7.501s3.357,7.501,7.5,7.501h50.476c6.569,0,11.914,5.143,11.914,11.465
			v17.07c0,6.322-5.345,11.465-11.914,11.465H133.695c-0.134-0.002-1.359-0.063-1.664-0.044c-3.467,0.219-6.853-1.012-9.273-3.376
			L18.427,165.057c-2.21-2.159-3.427-5.016-3.427-8.046c0-3.03,1.217-5.887,3.427-8.046l12.355-12.07
			c4.68-4.574,12.295-4.572,16.974,0l80.357,78.504h-4.129c-4.142,0-7.5,3.358-7.5,7.501s3.358,7.501,7.5,7.501h14.828v20.752
			c0,4.143,3.358,7.501,7.5,7.501c4.142,0,7.5-3.358,7.5-7.501v-20.752h250.705c4.143,0,7.5-3.358,7.5-7.501s-3.357-7.501-7.5-7.501
			H149.58l-91.342-89.235c-10.459-10.219-27.478-10.217-37.937,0l-12.355,12.07C2.822,143.239,0,149.908,0,157.011
			c0,7.103,2.822,13.772,7.945,18.777l46.03,44.968l-19.865,42.05h-2.342c-6.812,0-12.354,5.492-12.354,12.242v24.799v13.133v68.278
			c0,6.751,5.542,12.242,12.354,12.242h29.121c6.812,0,12.354-5.492,12.354-12.242v-56.036h31.491c4.142,0,7.5-3.358,7.5-7.501
			s-3.358-7.501-7.5-7.501h-70.32v-10.374v-22.04h77.922c0.014,0,0.027-0.002,0.041-0.002c5.322,5.145,12.605,7.872,20.082,7.552
			c0.408,0.026,0.817,0.046,1.233,0.046h351.395c0.089,0,0.177-0.006,0.266-0.007v19.667v5.159H133.691
			c-4.142,0-7.5,3.358-7.5,7.501s3.358,7.501,7.5,7.501h95.395v56.036c0,6.751,5.542,12.242,12.354,12.242h29.121
			c6.812,0,12.354-5.492,12.354-12.242v-56.036h163.609v56.036c0,6.751,5.542,12.242,12.354,12.242h29.121
			c6.812,0,12.354-5.492,12.354-12.242v-68.278v-7.918v-24.346c7.031-4.78,11.648-12.758,11.648-21.78v-17.07
			C512,227.273,499.927,215.4,485.086,215.4z M58.242,325.223V378.5H34.414v-53.277H58.242z M50.7,262.806l14.627-30.96
			l31.691,30.96H50.7z M267.914,378.5h-23.828v-53.277h23.828V378.5z M485.351,378.5h-23.828v-53.277h23.828V378.5z"/>
	</g>
</g>
<g>
</g>
<g>
</g>
<g>
</g>
<g>
</g>
<g>
</g>
<g>
</g>
<g>
</g>
<g>
</g>
<g>
</g>
<g>
</g>
<g>
</g>
<g>
</g>
<g>
</g>
<g>
</g>
<g>
</g>
</svg>
