<?xml version="1.0" encoding="iso-8859-1"?>
<!-- Generator: Adobe Illustrator 19.0.0, SVG Export Plug-In . SVG Version: 6.00 Build 0)  -->
<svg version="1.1" id="Capa_1" xmlns="http://www.w3.org/2000/svg" xmlns:xlink="http://www.w3.org/1999/xlink" x="0px" y="0px"
	 viewBox="0 0 512 512" style="enable-background:new 0 0 512 512;" xml:space="preserve">
<g>
	<g>
		<g>
			<path d="M499.5,223.437h-46.713v-35.879c0-6.793-5.542-12.32-12.354-12.32h-29.121c-6.812,0-12.354,5.527-12.354,12.32v35.879
				h-81.1v-16.6c0-6.793-5.542-12.32-12.354-12.32h-22.592v-28.379h80.834c6.812,0,12.354-5.527,12.354-12.32V33.32
				c0-6.793-5.542-12.32-12.354-12.32h-142.37c-4.142,0-7.5,3.358-7.5,7.5c0,4.142,3.358,7.5,7.5,7.5H361.1v86.218H150.898V36
				h42.492c4.142,0,7.5-3.358,7.5-7.5c0-4.142-3.358-7.5-7.5-7.5h-45.138c-6.812,0-12.354,5.527-12.354,12.32v120.498
				c0,6.793,5.542,12.32,12.354,12.32h80.834v28.379h-22.592c-6.812,0-12.354,5.527-12.354,12.32v16.6h-81.1v-35.879
				c0-6.793-5.542-12.32-12.354-12.32h-29.12c-6.812,0-12.354,5.527-12.354,12.32v35.879H12.5c-6.893,0-12.5,5.607-12.5,12.5v28.559
				c0,6.893,5.607,12.5,12.5,12.5h16.621v36.201v9.318V478.68c0,6.793,5.542,12.32,12.354,12.32h29.121
				c6.812,0,12.354-5.527,12.354-12.32V334.835h346.102V478.68c0,6.793,5.542,12.32,12.354,12.32h29.121
				c6.812,0,12.354-5.527,12.354-12.32V322.515v-4.499v-41.021H499.5c6.893,0,12.5-5.607,12.5-12.5v-28.559
				C512,229.044,506.393,223.437,499.5,223.437z M413.959,190.237h23.828v33.199h-23.828V190.237z M150.898,151.137v-13.919h210.203
				v13.919H150.898z M267.914,166.138v28.379h-23.828v-28.379H267.914z M302.86,209.517v13.919h-93.719v-13.919H302.86z
				 M74.213,190.237h23.828v33.199H74.213V190.237z M67.949,476H44.121V334.835h23.828V476z M126.191,276.996v42.839h-82.07v-6.639
				v-36.201L126.191,276.996L126.191,276.996z M370.809,319.835H141.191v-42.839h229.618V319.835z M467.879,476h-23.828V334.835
				h23.828V476z M467.879,318.016v1.819h-82.07v-42.839h82.07V318.016z M497,261.996H15v-23.559h482V261.996z"/>
			<path d="M236.586,305.916h38.828c4.143,0,7.5-3.358,7.5-7.5c0-4.142-3.357-7.5-7.5-7.5h-38.828c-4.142,0-7.5,3.358-7.5,7.5
				C229.086,302.558,232.444,305.916,236.586,305.916z"/>
		</g>
	</g>
</g>
<g>
</g>
<g>
</g>
<g>
</g>
<g>
</g>
<g>
</g>
<g>
</g>
<g>
</g>
<g>
</g>
<g>
</g>
<g>
</g>
<g>
</g>
<g>
</g>
<g>
</g>
<g>
</g>
<g>
</g>
</svg>
