<?xml version="1.0" encoding="iso-8859-1"?>
<!-- Generator: Adobe Illustrator 19.0.0, SVG Export Plug-In . SVG Version: 6.00 Build 0)  -->
<svg version="1.1" id="Capa_1" xmlns="http://www.w3.org/2000/svg" xmlns:xlink="http://www.w3.org/1999/xlink" x="0px" y="0px"
	 viewBox="0 0 512 512" style="enable-background:new 0 0 512 512;" xml:space="preserve">
<g>
	<g>
		<g>
			<path d="M499.647,46.594h-47.83v-34.24C451.817,5.542,446.275,0,439.463,0H338.51c-6.812,0-12.354,5.542-12.353,12.353v34.24
				H12.354C5.542,46.594,0,52.135,0,58.948v29.121c0,6.812,5.542,12.354,12.354,12.352h14.825v36.182v9.707v48.535v9.707v50.477
				v7.766v60.184c0,6.812,5.542,12.354,12.354,12.354H147.28v2.207c0,20.193,16.428,36.621,36.621,36.621h18.712L177.54,498.001
				c-0.699,3.448,0.178,6.988,2.406,9.712c2.228,2.724,5.523,4.286,9.042,4.286h19.747c5.253,0,9.887-3.539,11.269-8.605
				l35.267-129.234h40.287l35.264,129.233c1.383,5.067,6.017,8.606,11.269,8.606h19.747c3.519,0,6.815-1.562,9.042-4.286
				c2.228-2.723,3.105-6.263,2.407-9.712L348.214,374.16h18.712c20.193,0,36.621-16.428,36.621-36.621v-65.056
				c0-20.193-16.428-36.621-36.621-36.621h-9.677v-10.638c0-45.124-36.711-81.835-81.835-81.835
				c-17.42,0-33.574,5.489-46.859,14.804v-11.882v-3.559v-42.33h200.494v222.557c0,6.812,5.542,12.354,12.354,12.354h29.121
				c6.812,0,12.354-5.542,12.354-12.354V100.422h16.768c6.812,0,12.354-5.542,12.354-12.354V58.948
				C512,52.135,506.458,46.594,499.647,46.594z M357.25,250.862h9.677c11.922,0,21.621,9.699,21.621,21.621v65.056
				c0,11.922-9.699,21.621-21.621,21.621h-9.677V250.862z M147.281,292.813c-1.274-1.001-2.876-1.602-4.622-1.602h-29.583
				c-4.142,0-7.5,3.358-7.5,7.5c0,4.142,3.358,7.5,7.5,7.5h29.583c1.745,0,3.348-0.602,4.622-1.602v15.723v0.001H42.18v-45.184
				h105.101V292.813z M149.424,260.149H42.18v-5.119v-38.123h134.223c4.142,0,7.5-3.358,7.5-7.5c0-4.142-3.358-7.5-7.5-7.5H42.18
				v-7.061v-36.182h171.375v13.075c-12.43,14.356-19.976,33.05-19.976,53.485v10.638h-9.677
				C168.036,235.862,154.499,246.008,149.424,260.149z M42.18,143.665v-7.061v-36.182h171.375v42.33v0.913H42.18z M206.201,497
				h-13.153l24.87-122.84h19.263h2.541L206.201,497z M357.78,497h-13.153l-33.521-122.84h6.048h15.756L357.78,497z M275.414,158.388
				c36.853,0,66.836,29.983,66.837,66.836V359.16h-3.148c-0.024,0-0.047,0-0.071,0h-21.877h-79.973h-25.401
				c-0.013,0-0.025,0-0.037,0h-3.165v-30.681c0-4.142-3.358-7.5-7.5-7.5c-4.142,0-7.5,3.358-7.5,7.5v30.681h-9.677
				c-11.922,0-21.621-9.699-21.621-21.621v-65.056c0-11.922,9.699-21.621,21.621-21.621h9.677v48.172c0,4.142,3.358,7.5,7.5,7.5
				c4.142,0,7.5-3.358,7.5-7.5v-73.811c0-16.593,6.087-31.786,16.135-43.484c0.281-0.327,3.316-3.583,3.662-3.926
				C240.462,165.819,257.082,158.388,275.414,158.388z M467.879,320.332h-23.828v-219.91h23.828V320.332z M497,85.422H15V61.594
				h371.397c4.142,0,7.5-3.358,7.5-7.5c0-4.142-3.358-7.5-7.5-7.5h-45.241V15h95.66v31.594h-21.944c-4.142,0-7.5,3.358-7.5,7.5
				c0,4.142,3.358,7.5,7.5,7.5H497V85.422z"/>
			<path d="M142.659,231.027h-29.583c-4.142,0-7.5,3.358-7.5,7.5c0,4.142,3.358,7.5,7.5,7.5h29.583c4.142,0,7.5-3.358,7.5-7.5
				C150.159,234.385,146.801,231.027,142.659,231.027z"/>
			<path d="M142.659,114.543h-29.583c-4.142,0-7.5,3.358-7.5,7.5c0,4.142,3.358,7.5,7.5,7.5h29.583c4.142,0,7.5-3.358,7.5-7.5
				C150.159,117.901,146.801,114.543,142.659,114.543z"/>
			<path d="M142.659,172.785h-29.583c-4.142,0-7.5,3.358-7.5,7.5c0,4.142,3.358,7.5,7.5,7.5h29.583c4.142,0,7.5-3.358,7.5-7.5
				C150.159,176.143,146.801,172.785,142.659,172.785z"/>
		</g>
	</g>
</g>
<g>
</g>
<g>
</g>
<g>
</g>
<g>
</g>
<g>
</g>
<g>
</g>
<g>
</g>
<g>
</g>
<g>
</g>
<g>
</g>
<g>
</g>
<g>
</g>
<g>
</g>
<g>
</g>
<g>
</g>
</svg>
