<?xml version="1.0" encoding="iso-8859-1"?>
<!-- Generator: Adobe Illustrator 19.0.0, SVG Export Plug-In . SVG Version: 6.00 Build 0)  -->
<svg version="1.1" id="Capa_1" xmlns="http://www.w3.org/2000/svg" xmlns:xlink="http://www.w3.org/1999/xlink" x="0px" y="0px"
	 viewBox="0 0 512.002 512.002" style="enable-background:new 0 0 512.002 512.002;" xml:space="preserve">
<g>
	<g>
		<path d="M485.086,131.046h-2.207V46.329c0-25.545-20.783-46.328-46.328-46.328H75.449c-25.545,0-46.328,20.783-46.328,46.328
			v84.717h-2.207C12.074,131.046,0,143.121,0,157.96v19.09c0,8.302,3.78,15.735,9.707,20.676v173.788
			c0,8.746,4.196,16.528,10.678,21.447v27.088c0,6.797,3.972,12.669,9.707,15.462v64.135c0,6.812,5.542,12.354,12.354,12.354h29.121
			c6.812,0,12.354-5.542,12.354-12.354v-18.709h344.16v18.709c0,6.812,5.542,12.354,12.354,12.354h29.121
			c6.812,0,12.354-5.542,12.354-12.354v-54.428c5.735-2.794,9.707-8.666,9.707-15.462v-36.795
			c6.482-4.919,10.678-12.701,10.678-21.447V197.728c5.927-4.941,9.707-12.375,9.707-20.676v-19.09
			C512,143.121,499.926,131.046,485.086,131.046z M44.121,46.329c0-17.274,14.054-31.328,31.328-31.328h361.102
			c17.274,0,31.328,14.054,31.328,31.328v84.717h-34.506V46.791c0-4.472-2.271-8.545-6.075-10.896
			c-3.804-2.351-8.464-2.561-12.461-0.56l-28.061,14.03c-3.363,1.682-7.128,2.57-10.89,2.57h-69.898
			c-3.761,0-7.527-0.889-10.891-2.57l-28.06-14.03c-3.513-1.757-7.533-1.806-11.037-0.2c-3.505-1.606-7.525-1.558-11.037,0.2
			l-28.061,14.03c-3.363,1.682-7.128,2.57-10.89,2.57h-69.898c-3.761,0-7.527-0.889-10.891-2.57l-28.06-14.03
			c-4.001-2-8.659-1.791-12.462,0.56c-3.804,2.351-6.075,6.424-6.075,10.896v84.255H44.121V46.329z M466.908,497.001H443.08v-23.563
			c0-4.142-3.358-7.5-7.5-7.5H76.42c-4.142,0-7.5,3.358-7.5,7.5v23.563H45.092v-59.744h154.217c14.018,0,28.136,1.168,41.962,3.473
			l15.343,2.557c14.639,2.44,29.587,3.677,44.428,3.677h165.866V497.001z M476.615,429.757c0,1.217-0.99,2.207-2.207,2.207H301.042
			c-14.018,0-28.136-1.168-41.962-3.473l-15.343-2.557c-14.639-2.44-29.587-3.677-44.428-3.677H37.592
			c-1.217,0-2.207-0.99-2.207-2.207v-21.652c0.41,0.019,0.822,0.031,1.236,0.031h68.919c4.142,0,7.5-3.358,7.5-7.5
			c0-4.142-3.358-7.5-7.5-7.5H36.621c-6.569,0-11.914-5.345-11.914-11.914V203.866c0.729,0.059,1.463,0.098,2.207,0.098h395.128
			c-17.786,26.909-51.107,51.167-95.4,69.163c-52.564,21.356-115.929,32.645-183.244,32.645c-4.142,0-7.5,3.358-7.5,7.5
			c0,4.142,3.358,7.5,7.5,7.5c69.232,0,134.549-11.67,188.89-33.748c51.391-20.88,89.246-50.249,107.261-83.06h11.313
			c-8.431,50.155-26.693,95.296-51.749,127.668c-26.227,33.885-57.589,51.796-90.695,51.796H132.721c-4.142,0-7.5,3.358-7.5,7.5
			c0,4.142,3.358,7.5,7.5,7.5h342.658c0.415,0,0.826-0.013,1.236-0.031V429.757z M487.293,371.515
			c0,6.569-5.345,11.914-11.914,11.914H363.307c49.892-28.229,89.031-94.181,102.759-179.464h19.02c0.744,0,1.478-0.039,2.207-0.098
			V371.515z M497,177.051c0,6.569-5.345,11.914-11.914,11.914H26.914c-6.569,0-11.914-5.345-11.914-11.914v-19.09
			c0-6.569,5.345-11.914,11.914-11.914H366.66c4.142,0,7.5-3.358,7.5-7.5c0-4.142-3.358-7.5-7.5-7.5H93.627V50.337l24.889,12.444
			c5.435,2.718,11.521,4.154,17.599,4.154h69.898c6.078,0,12.164-1.437,17.598-4.154L248.5,50.337v66.207c0,4.142,3.358,7.5,7.5,7.5
			c4.142,0,7.5-3.358,7.5-7.5V50.337l24.889,12.444c5.435,2.718,11.521,4.154,17.599,4.154h69.898
			c6.078,0,12.164-1.437,17.598-4.154l24.889-12.444v80.709h-23.32c-4.142,0-7.5,3.358-7.5,7.5c0,4.142,3.358,7.5,7.5,7.5h90.033
			c6.569,0,11.914,5.345,11.914,11.914V177.051z"/>
	</g>
</g>
<g>
</g>
<g>
</g>
<g>
</g>
<g>
</g>
<g>
</g>
<g>
</g>
<g>
</g>
<g>
</g>
<g>
</g>
<g>
</g>
<g>
</g>
<g>
</g>
<g>
</g>
<g>
</g>
<g>
</g>
</svg>
