<?xml version="1.0" encoding="iso-8859-1"?>
<!-- Generator: Adobe Illustrator 19.0.0, SVG Export Plug-In . SVG Version: 6.00 Build 0)  -->
<svg version="1.1" id="Capa_1" xmlns="http://www.w3.org/2000/svg" xmlns:xlink="http://www.w3.org/1999/xlink" x="0px" y="0px"
	 viewBox="0 0 512.001 512.001" style="enable-background:new 0 0 512.001 512.001;" xml:space="preserve">
<g>
	<g>
		<g>
			<path d="M391.656,271.797h-57.757c-4.142,0-7.5,3.357-7.5,7.5c0,4.142,3.358,7.5,7.5,7.5h57.757c4.142,0,7.5-3.357,7.5-7.5
				S395.798,271.797,391.656,271.797z"/>
			<path d="M391.656,359.16h-57.757c-4.142,0-7.5,3.357-7.5,7.5s3.358,7.5,7.5,7.5h57.757c4.142,0,7.5-3.357,7.5-7.5
				C399.156,362.518,395.798,359.16,391.656,359.16z"/>
			<path d="M499.646,194.141h-27.445V12.5c0-6.893-5.607-12.5-12.5-12.5H52.299c-6.893,0-12.5,5.607-12.5,12.5v181.641H12.354
				C5.542,194.141,0,199.683,0,206.494v236.852c0,6.812,5.542,12.354,12.354,12.354h9.487v43.947
				c0,6.812,5.542,12.354,12.354,12.354H82.73c6.812,0,12.354-5.542,12.354-12.354v-9.002h48.639c4.142,0,7.5-3.357,7.5-7.5
				s-3.358-7.5-7.5-7.5h-56.14c-4.142,0-7.5,3.357-7.5,7.5V497H36.841v-41.301h438.318V497h-43.242v-13.855
				c0-4.143-3.358-7.5-7.5-7.5H173.814c-4.142,0-7.5,3.357-7.5,7.5s3.358,7.5,7.5,7.5h243.103v9.002
				c0,6.812,5.542,12.354,12.354,12.354h48.535c6.812,0,12.354-5.542,12.354-12.354V455.7h9.487c6.812,0,12.354-5.542,12.354-12.354
				V206.494C512,199.683,506.458,194.141,499.646,194.141z M54.799,15h402.402v179.141h-22.857V46.328c0-4.143-3.358-7.5-7.5-7.5
				h-50.799c-4.142,0-7.5,3.357-7.5,7.5s3.358,7.5,7.5,7.5h43.299v140.313H312.935l74.56-74.56c2.929-2.93,2.929-7.678,0-10.607
				c-2.929-2.928-7.678-2.928-10.606,0l-82.51,82.51c-0.779,0.779-1.345,1.689-1.709,2.657h-52.537l40.585-40.585
				c2.929-2.93,2.929-7.678,0-10.607c-2.929-2.928-7.678-2.928-10.606,0l-48.535,48.535c-0.779,0.779-1.345,1.689-1.709,2.657
				H92.656V53.828h101.555l-69.706,69.706c-2.929,2.93-2.929,7.678,0,10.607c1.464,1.464,3.384,2.196,5.303,2.196
				s3.839-0.732,5.303-2.196l80.313-80.313h51.589l-35.73,35.732c-2.929,2.93-2.929,7.678,0,10.607
				c1.464,1.464,3.384,2.196,5.303,2.196s3.839-0.732,5.303-2.196l46.339-46.339h56.429c4.142,0,7.5-3.357,7.5-7.5
				s-3.358-7.5-7.5-7.5H85.156c-4.142,0-7.5,3.357-7.5,7.5v147.813H54.799V15z M497,440.699H15V209.141h32.299h37.857h341.688
				h37.857H497V440.699z"/>
			<path d="M38.828,240.469v168.902c0,4.143,3.358,7.5,7.5,7.5h419.344c4.142,0,7.5-3.357,7.5-7.5V240.469
				c0-4.143-3.358-7.5-7.5-7.5H46.328C42.186,232.969,38.828,236.326,38.828,240.469z M263.5,247.969h194.672v69.451H263.5V247.969z
				 M263.5,332.42h194.672v69.451H263.5V332.42z M53.828,247.969H248.5v69.451H53.828V247.969z M53.828,332.42H248.5v69.451H53.828
				V332.42z"/>
			<path d="M178.101,271.797h-57.757c-4.142,0-7.5,3.357-7.5,7.5c0,4.142,3.358,7.5,7.5,7.5h57.757c4.142,0,7.5-3.357,7.5-7.5
				S182.243,271.797,178.101,271.797z"/>
			<path d="M178.101,359.16h-57.757c-4.142,0-7.5,3.357-7.5,7.5s3.358,7.5,7.5,7.5h57.757c4.142,0,7.5-3.357,7.5-7.5
				C185.601,362.518,182.243,359.16,178.101,359.16z"/>
		</g>
	</g>
</g>
<g>
</g>
<g>
</g>
<g>
</g>
<g>
</g>
<g>
</g>
<g>
</g>
<g>
</g>
<g>
</g>
<g>
</g>
<g>
</g>
<g>
</g>
<g>
</g>
<g>
</g>
<g>
</g>
<g>
</g>
</svg>
