<?xml version="1.0" encoding="iso-8859-1"?>
<!-- Generator: Adobe Illustrator 19.0.0, SVG Export Plug-In . SVG Version: 6.00 Build 0)  -->
<svg version="1.1" id="Capa_1" xmlns="http://www.w3.org/2000/svg" xmlns:xlink="http://www.w3.org/1999/xlink" x="0px" y="0px"
	 viewBox="0 0 512.002 512.002" style="enable-background:new 0 0 512.002 512.002;" xml:space="preserve">
<g>
	<g>
		<path d="M416.711,0H95.291c-14.772,0-26.79,12.073-26.79,26.914v17.473c0,12.226,8.158,22.565,19.29,25.833v27.556
			c0,6.812,5.527,12.354,12.322,12.354h44.98l75.366,148.256c0.17,0.334,0.362,0.648,0.572,0.945
			c-0.948,3.258-1.466,6.699-1.466,10.26c0,7.688,2.374,14.825,6.416,20.723l-88.632,174.35c-0.224,0.441-0.398,0.896-0.529,1.354
			c-14.242,1.019-25.52,12.924-25.52,27.421v6.063c0,6.893,5.607,12.5,12.5,12.5h57.516c6.893,0,12.5-5.607,12.5-12.5v-6.063
			c0-8.844-4.201-16.72-10.707-21.754l25.98-51.107c1.877-3.692,0.405-8.207-3.287-10.084c-3.69-1.877-8.207-0.405-10.084,3.287
			l-26.588,52.301c-0.926-0.094-1.865-0.143-2.815-0.143h-12.789l83.828-164.9c1.996,1.2,4.114,2.214,6.332,3.017
			c0.031,0.066,0.056,0.133,0.089,0.199l3.815,7.504c-0.023,0.043-0.05,0.082-0.072,0.126l-38.738,76.202
			c-1.877,3.692-0.405,8.207,3.287,10.084c1.089,0.554,2.249,0.816,3.393,0.816c2.733,0,5.368-1.5,6.691-4.104l33.85-66.585
			l72.891,143.385c-6.506,5.034-10.707,12.911-10.707,21.754v6.063c0,6.893,5.607,12.5,12.5,12.5h57.516
			c6.893,0,12.5-5.607,12.5-12.5v-6.063c0-14.44-11.191-26.309-25.354-27.408L286.02,290.312c4.042-5.897,6.416-13.035,6.416-20.723
			c0-3.721-0.559-7.312-1.59-10.697c0.555-0.55,1.041-1.186,1.414-1.92l74.65-146.844h44.979c6.795,0,12.322-5.542,12.322-12.354
			V70.22c11.132-3.268,19.29-13.607,19.29-25.833V26.914C443.501,12.073,431.483,0,416.711,0z M166.317,480.937
			c6.893,0.001,12.5,5.608,12.5,12.501V497h-52.516v-3.563c0-6.893,5.607-12.5,12.5-12.5H166.317z M161.92,110.129h15.675
			l63.973,125.842c-4.375,1.905-8.306,4.648-11.595,8.027L161.92,110.129z M194.421,110.129h123.16l-61.58,121.134L194.421,110.129z
			 M234.566,269.59c0-11.922,9.615-21.621,21.435-21.621s21.435,9.699,21.435,21.621s-9.616,21.621-21.435,21.621
			C244.182,291.211,234.566,281.512,234.566,269.59z M385.7,493.438V497h-52.516v-3.563c0-6.893,5.607-12.5,12.5-12.5H373.2
			C380.093,480.938,385.7,486.545,385.7,493.438z M358.473,465.937h-12.789c-0.95,0-1.889,0.049-2.814,0.143l-81.476-160.273
			c4.782-0.716,9.262-2.371,13.251-4.77L358.473,465.937z M282.029,243.999c-3.289-3.379-7.22-6.122-11.595-8.027l63.973-125.843
			h15.676L282.029,243.999z M428.501,44.387L428.501,44.387c0,6.569-5.289,11.914-11.79,11.914h-59.759c-4.143,0-7.5,3.357-7.5,7.5
			c0,4.143,3.357,7.5,7.5,7.5h52.259v23.828h-306.42V71.301h226.191c4.143,0,7.5-3.357,7.5-7.5c0-4.143-3.357-7.5-7.5-7.5H95.291
			c-6.501,0-11.79-5.345-11.79-11.914V26.914C83.501,20.345,88.79,15,95.291,15h321.42c6.501,0,11.79,5.345,11.79,11.914V44.387z"/>
	</g>
</g>
<g>
</g>
<g>
</g>
<g>
</g>
<g>
</g>
<g>
</g>
<g>
</g>
<g>
</g>
<g>
</g>
<g>
</g>
<g>
</g>
<g>
</g>
<g>
</g>
<g>
</g>
<g>
</g>
<g>
</g>
</svg>
