<?xml version="1.0" encoding="iso-8859-1"?>
<!-- Generator: Adobe Illustrator 19.0.0, SVG Export Plug-In . SVG Version: 6.00 Build 0)  -->
<svg version="1.1" id="Capa_1" xmlns="http://www.w3.org/2000/svg" xmlns:xlink="http://www.w3.org/1999/xlink" x="0px" y="0px"
	 viewBox="0 0 512.003 512.003" style="enable-background:new 0 0 512.003 512.003;" xml:space="preserve">
<g>
	<g>
		<g>
			<path d="M217.172,121.777h77.656c4.143,0,7.5-3.358,7.5-7.5c0-4.142-3.357-7.5-7.5-7.5h-77.656c-4.142,0-7.5,3.358-7.5,7.5
				C209.672,118.419,213.031,121.777,217.172,121.777z"/>
			<path d="M499.648,345.041c6.812,0,12.354-5.542,12.354-12.354v-29.121c0-6.812-5.542-12.354-12.354-12.354H332.544
				c1.782-3.594,2.789-7.638,2.789-11.914V247.97h2.207c4.143,0,7.5-3.358,7.5-7.5c0-4.142-3.357-7.5-7.5-7.5h-41.035v-2.207
				c0-4.142-3.357-7.5-7.5-7.5s-7.5,3.358-7.5,7.5v2.207h-41.035c-4.142,0-7.5,3.358-7.5,7.5c0,4.142,3.358,7.5,7.5,7.5h2.207
				v31.328c0,4.276,1.007,8.32,2.789,11.914h-65.446V150.899h169.433v21.621c0,9.488,7.719,17.207,17.207,17.207h2.207v50.449
				c0,9.649,7.851,17.5,17.499,17.501h38.242c9.649,0,17.5-7.851,17.5-17.5v-50.449h2.207c9.488,0,17.207-7.719,17.207-17.207V150.9
				h9.002c6.812,0,12.354-5.542,12.354-12.354V53.829h16.768c6.812,0,12.354-5.542,12.354-12.354V12.354
				C512,5.542,506.458,0,499.648,0H12.354C5.542,0,0,5.542,0,12.354v29.121c0,6.812,5.542,12.353,12.354,12.353h16.768v79.863v4.854
				v152.666H12.354C5.542,291.211,0,296.753,0,303.565v29.121c0,6.812,5.542,12.353,12.354,12.353h16.768v113.132H12.354
				C5.542,458.171,0,463.713,0,470.525v29.121C0,506.458,5.542,512,12.354,512h392.164c4.143,0,7.5-3.358,7.5-7.5
				c0-4.142-3.357-7.5-7.5-7.5H15v-23.825h482v23.828h-61.904c-4.143,0-7.5,3.358-7.5,7.5c0,4.142,3.357,7.5,7.5,7.5h64.552
				c6.812,0,12.354-5.542,12.354-12.354v-29.121c0-6.812-5.542-12.354-12.354-12.354H482.88V345.041H499.648z M257.677,247.969
				h62.656v31.328c0,6.569-5.345,11.914-11.914,11.914h-38.828c-6.569,0-11.914-5.345-11.914-11.914V247.969z M331.981,135.898
				h-151.96v-82.07h151.96V135.898z M427.109,240.176c0,1.378-1.121,2.5-2.5,2.5h-38.242c-1.379,0-2.5-1.122-2.5-2.5V182.52
				c0-1.378,1.121-2.5,2.5-2.5h38.242c1.379,0,2.5,1.122,2.5,2.5V240.176z M446.523,172.52c0,1.217-0.99,2.207-2.207,2.207h-4.061
				c-2.873-5.744-8.798-9.707-15.646-9.707h-38.242c-6.848,0-12.773,3.963-15.646,9.707h-4.061c-1.217,0-2.207-0.991-2.207-2.207
				v-21.621h82.07V172.52z M467.879,135.898H346.981v-82.07h120.898V135.898z M15,38.828V15h482v23.828H104.57
				c-4.142,0-7.5,3.358-7.5,7.5c0,4.142,3.358,7.5,7.5,7.5h60.45v82.07H44.121v-2.207V53.828h30.681c4.142,0,7.5-3.358,7.5-7.5
				c0-4.142-3.358-7.5-7.5-7.5H15z M133.693,252.382H75.451c-6.812,0-12.354,5.542-12.354,12.354c0,10.057,3.6,19.287,9.576,26.475
				H44.121v-52.949h50.742h19.415h50.742v52.949h-28.55c5.976-7.188,9.576-16.418,9.576-26.475
				C146.047,257.924,140.505,252.382,133.693,252.382z M130.914,267.383c-1.331,13.361-12.637,23.828-26.343,23.828
				c-13.705,0-25.011-10.467-26.343-23.828H130.914z M126.299,193.913c-0.071,0.073-0.132,0.152-0.2,0.228H83.042
				c-0.068-0.076-0.13-0.155-0.201-0.228c-2.436-2.506-4.001-5.648-4.538-9.042h52.535
				C130.302,188.264,128.737,191.407,126.299,193.913z M130.836,209.141c-1.272,7.993-8.213,14.121-16.559,14.121H94.863
				c-8.345,0-15.286-6.128-16.559-14.121H130.836z M141.244,223.261c3.04-4.871,4.803-10.616,4.803-16.768
				c0-3.546-1.511-6.739-3.912-8.994c2.549-4.633,3.912-9.856,3.912-15.276c0-6.812-5.542-12.354-12.354-12.354H75.451
				c-6.812,0-12.354,5.542-12.354,12.354c0,5.419,1.364,10.642,3.912,15.276c-2.402,2.255-3.912,5.448-3.912,8.994
				c0,6.152,1.763,11.898,4.803,16.768H44.121v-72.363h120.899h0.001v72.363H141.244z M248.5,458.172H44.121V345.039H248.5V458.172z
				 M467.88,458.172H263.5V345.039H467.88V458.172z M15,330.039v-23.828h482v23.828H15z"/>
			<path d="M386.075,121.777h38.828c4.143,0,7.5-3.358,7.5-7.5c0-4.142-3.357-7.5-7.5-7.5h-38.828c-4.143,0-7.5,3.358-7.5,7.5
				C378.575,118.419,381.932,121.777,386.075,121.777z"/>
			<path d="M221.055,422.695c4.142,0,7.5-3.358,7.5-7.5v-38.828c0-4.142-3.358-7.5-7.5-7.5c-4.142,0-7.5,3.358-7.5,7.5v38.828
				C213.555,419.337,216.914,422.695,221.055,422.695z"/>
			<path d="M77.656,114.277c0,4.142,3.358,7.5,7.5,7.5h38.828c4.142,0,7.5-3.358,7.5-7.5c0-4.142-3.358-7.5-7.5-7.5H85.156
				C81.014,106.777,77.656,110.135,77.656,114.277z"/>
			<path d="M289.005,422.695c4.143,0,7.5-3.358,7.5-7.5v-38.828c0-4.142-3.357-7.5-7.5-7.5s-7.5,3.358-7.5,7.5v38.828
				C281.505,419.337,284.862,422.695,289.005,422.695z"/>
		</g>
	</g>
</g>
<g>
</g>
<g>
</g>
<g>
</g>
<g>
</g>
<g>
</g>
<g>
</g>
<g>
</g>
<g>
</g>
<g>
</g>
<g>
</g>
<g>
</g>
<g>
</g>
<g>
</g>
<g>
</g>
<g>
</g>
</svg>
