<?xml version="1.0" encoding="iso-8859-1"?>
<!-- Generator: Adobe Illustrator 19.0.0, SVG Export Plug-In . SVG Version: 6.00 Build 0)  -->
<svg version="1.1" id="Capa_1" xmlns="http://www.w3.org/2000/svg" xmlns:xlink="http://www.w3.org/1999/xlink" x="0px" y="0px"
	 viewBox="0 0 512 512" style="enable-background:new 0 0 512 512;" xml:space="preserve">
<g>
	<g>
		<path d="M304.75,253.379v-61.445c0-14.84-11.775-26.914-26.25-26.914h-15V53.828h38.438c6.721,0,12.188-5.542,12.188-12.354
			v-29.12C314.125,5.542,308.658,0,301.938,0h-42.499c-4.143,0-7.5,3.358-7.5,7.5s3.357,7.5,7.5,7.5h39.687v23.828H211V15h19.688
			c4.143,0,7.5-3.358,7.5-7.5s-3.357-7.5-7.5-7.5h-22.5C201.467,0,196,5.542,196,12.354v29.121c0,6.812,5.467,12.354,12.188,12.354
			H248.5V165.02h-16.875c-14.475,0-26.25,12.074-26.25,26.914v62.324c-15.125,7.273-28.795,17.802-40,31.129
			c-2.665,3.17-2.256,7.901,0.915,10.567c3.171,2.666,7.899,2.256,10.567-0.915c19.962-23.745,48.809-37.363,79.143-37.363
			c57.897,0,105,48.89,105,108.984v58.242c0,1.217-0.841,2.207-1.875,2.207h-206.25c-1.034,0-1.875-0.99-1.875-2.207V366.66
			c0-17.461,3.856-34.138,11.461-49.565c1.832-3.715,0.305-8.212-3.41-10.043c-3.716-1.833-8.212-0.303-10.043,3.411
			C140.376,327.971,136,346.878,136,366.66v58.242c0,9.488,7.57,17.207,16.875,17.207h38.519c-0.049,1.059-0.082,2.119-0.082,3.178
			C191.313,482.073,220.331,512,256,512s64.688-29.927,64.688-66.713c0-1.059-0.029-2.119-0.078-3.178h38.515
			c9.305,0,16.875-7.719,16.875-17.207V366.66C376,316.219,346.692,272.723,304.75,253.379z M289.75,247.675
			c-10.711-3.249-22.036-5-33.75-5c-12.213,0.001-24.209,1.929-35.625,5.596v-56.338c0-6.569,5.047-11.914,11.25-11.914H278.5
			c6.203,0,11.25,5.345,11.25,11.914V247.675z M256,497c-27.398,0-49.688-23.198-49.688-51.713c0-1.059,0.04-2.12,0.101-3.178H248.5
			v14.121h-6.563c-4.143,0-7.5,3.358-7.5,7.5c0,4.142,3.357,7.5,7.5,7.5h28.125c4.143,0,7.5-3.358,7.5-7.5
			c0-4.142-3.357-7.5-7.5-7.5H263.5v-14.121h42.084c0.061,1.058,0.104,2.118,0.104,3.178C305.688,473.802,283.398,497,256,497z"/>
	</g>
</g>
<g>
</g>
<g>
</g>
<g>
</g>
<g>
</g>
<g>
</g>
<g>
</g>
<g>
</g>
<g>
</g>
<g>
</g>
<g>
</g>
<g>
</g>
<g>
</g>
<g>
</g>
<g>
</g>
<g>
</g>
</svg>
