<?xml version="1.0" encoding="iso-8859-1"?>
<!-- Generator: Adobe Illustrator 19.0.0, SVG Export Plug-In . SVG Version: 6.00 Build 0)  -->
<svg version="1.1" id="Capa_1" xmlns="http://www.w3.org/2000/svg" xmlns:xlink="http://www.w3.org/1999/xlink" x="0px" y="0px"
	 viewBox="0 0 512.001 512.001" style="enable-background:new 0 0 512.001 512.001;" xml:space="preserve">
<g>
	<g>
		<g>
			<path d="M283.779,282.914c4.142,0,7.5-3.358,7.5-7.5v-38.828c0-4.142-3.358-7.5-7.5-7.5c-4.142,0-7.5,3.358-7.5,7.5v38.828
				C276.279,279.556,279.638,282.914,283.779,282.914z"/>
			<path d="M309.958,422.695h36.458c4.142,0,7.5-3.358,7.5-7.5c0-4.142-3.358-7.5-7.5-7.5h-36.458c-4.142,0-7.5,3.358-7.5,7.5
				C302.458,419.337,305.817,422.695,309.958,422.695z"/>
			<path d="M309.958,102.363h36.458c4.142,0,7.5-3.358,7.5-7.5c0-4.142-3.358-7.5-7.5-7.5h-36.458c-4.142,0-7.5,3.358-7.5,7.5
				C302.458,99.005,305.817,102.363,309.958,102.363z"/>
			<path d="M309.958,393.574h36.458c4.142,0,7.5-3.358,7.5-7.5c0-4.142-3.358-7.5-7.5-7.5h-36.458c-4.142,0-7.5,3.358-7.5,7.5
				C302.458,390.216,305.817,393.574,309.958,393.574z"/>
			<path d="M309.958,131.484h36.458c4.142,0,7.5-3.358,7.5-7.5c0-4.142-3.358-7.5-7.5-7.5h-36.458c-4.142,0-7.5,3.358-7.5,7.5
				C302.458,128.126,305.817,131.484,309.958,131.484z"/>
			<path d="M164.125,393.574h36.458c4.142,0,7.5-3.358,7.5-7.5c0-4.142-3.357-7.5-7.5-7.5h-36.458c-4.142,0-7.5,3.358-7.5,7.5
				C156.625,390.216,159.984,393.574,164.125,393.574z"/>
			<path d="M164.125,422.695h36.458c4.142,0,7.5-3.358,7.5-7.5c0-4.142-3.357-7.5-7.5-7.5h-36.458c-4.142,0-7.5,3.358-7.5,7.5
				C156.625,419.337,159.984,422.695,164.125,422.695z"/>
			<path d="M408.757,53.829c6.751,0,12.244-5.542,12.244-12.354V12.354C421,5.542,415.508,0,408.756,0H103.245
				C96.493,0,91,5.542,91,12.354v29.121c0,6.811,5.493,12.353,12.244,12.353h2.339v404.343h-2.339
				c-6.751,0-12.244,5.542-12.244,12.354v29.121C91,506.458,96.493,512,103.245,512h225.497c4.142,0,7.5-3.358,7.5-7.5
				c0-4.142-3.358-7.5-7.5-7.5H106v-23.827h300v23.828h-51.009c-4.142,0-7.5,3.358-7.5,7.5c0,4.142,3.358,7.5,7.5,7.5h53.765
				c6.751,0,12.244-5.542,12.244-12.354v-29.121c0-6.812-5.493-12.354-12.244-12.354h-2.339V53.829H408.757z M391.417,458.172H263.5
				V53.828h127.917V458.172z M406,38.828H175.828c-4.142,0-7.5,3.358-7.5,7.5c0,4.142,3.358,7.5,7.5,7.5H248.5v404.344H120.584
				V53.828h25.119c4.142,0,7.5-3.358,7.5-7.5c0-4.142-3.358-7.5-7.5-7.5H106V15h300V38.828z"/>
			<path d="M226.588,282.914c4.142,0,7.5-3.358,7.5-7.5v-38.828c0-4.142-3.358-7.5-7.5-7.5c-4.142,0-7.5,3.358-7.5,7.5v38.828
				C219.088,279.556,222.445,282.914,226.588,282.914z"/>
			<path d="M164.125,102.363h36.458c4.142,0,7.5-3.358,7.5-7.5c0-4.142-3.357-7.5-7.5-7.5h-36.458c-4.142,0-7.5,3.358-7.5,7.5
				C156.625,99.005,159.984,102.363,164.125,102.363z"/>
			<path d="M164.125,131.484h36.458c4.142,0,7.5-3.358,7.5-7.5c0-4.142-3.357-7.5-7.5-7.5h-36.458c-4.142,0-7.5,3.358-7.5,7.5
				C156.625,128.126,159.984,131.484,164.125,131.484z"/>
		</g>
	</g>
</g>
<g>
</g>
<g>
</g>
<g>
</g>
<g>
</g>
<g>
</g>
<g>
</g>
<g>
</g>
<g>
</g>
<g>
</g>
<g>
</g>
<g>
</g>
<g>
</g>
<g>
</g>
<g>
</g>
<g>
</g>
</svg>
