<?xml version="1.0" encoding="iso-8859-1"?>
<!-- Generator: Adobe Illustrator 19.0.0, SVG Export Plug-In . SVG Version: 6.00 Build 0)  -->
<svg version="1.1" id="Capa_1" xmlns="http://www.w3.org/2000/svg" xmlns:xlink="http://www.w3.org/1999/xlink" x="0px" y="0px"
	 viewBox="0 0 512 512" style="enable-background:new 0 0 512 512;" xml:space="preserve">
<g>
	<g>
		<g>
			<path d="M332.811,27.833h-92.616c-4.142,0-7.5,3.357-7.5,7.5s3.358,7.5,7.499,7.5h89.857V165.37L254.2,67.644
				c-2.539-3.271-7.25-3.866-10.523-1.326c-3.272,2.54-3.866,7.251-1.326,10.523l85.637,110.336
				c0.586,0.755,1.291,1.361,2.063,1.825v73.724l-40.588-52.293c-2.54-3.272-7.252-3.864-10.523-1.326
				c-3.272,2.54-3.866,7.251-1.326,10.523l50.375,64.903c0.586,0.755,1.291,1.361,2.063,1.825v92.217h-29.166
				c-4.143,0-7.5,3.357-7.5,7.5s3.357,7.5,7.5,7.5h31.925c6.75,0,12.241-5.542,12.241-12.354V40.187
				C345.052,33.375,339.561,27.833,332.811,27.833z"/>
			<path d="M356,0H156c-9.649,0-17.5,7.851-17.5,17.5v376.663v11.032v94.451c0,6.812,5.491,12.354,12.241,12.354h18.966
				c6.75,0,12.241-5.542,12.241-12.354v-38.123h148.104v38.123c0,6.812,5.491,12.354,12.241,12.354h18.966
				c6.75,0,12.241-5.542,12.241-12.354v-94.451v-3.833V17.5C373.5,7.851,365.649,0,356,0z M166.948,497H153.5v-74.504
				c0.819,0.118,1.649,0.2,2.5,0.2h10.948V497z M330.052,446.523H181.948v-23.828h148.104V446.523z M358.5,497h-13.448v-74.305H356
				c0.851,0,1.681-0.082,2.5-0.2V497z M358.5,401.362v3.833c0,1.379-1.121,2.5-2.5,2.5H156c-1.378,0-2.5-1.121-2.5-2.5v-11.032V17.5
				c0-1.379,1.122-2.5,2.5-2.5h200c1.379,0,2.5,1.121,2.5,2.5V401.362z"/>
			<path d="M273.388,378.573h-91.44V256.036l75.852,97.726c1.479,1.904,3.693,2.901,5.93,2.901c1.608,0,3.227-0.513,4.594-1.575
				c3.272-2.54,3.866-7.251,1.326-10.523l-85.639-110.336c-0.585-0.754-1.29-1.359-2.062-1.823v-73.725l40.588,52.294
				c1.478,1.904,3.692,2.901,5.93,2.901c1.606,0,3.225-0.513,4.593-1.575c3.272-2.54,3.866-7.251,1.326-10.523l-50.376-64.904
				c-0.585-0.754-1.29-1.359-2.062-1.823V42.833h29.482c4.142,0,7.5-3.357,7.5-7.5s-3.358-7.5-7.5-7.5h-32.241
				c-6.75,0-12.241,5.542-12.241,12.354v341.034c0,6.811,5.491,12.353,12.241,12.352h94.199c4.143,0,7.5-3.357,7.5-7.5
				S277.531,378.573,273.388,378.573z"/>
		</g>
	</g>
</g>
<g>
</g>
<g>
</g>
<g>
</g>
<g>
</g>
<g>
</g>
<g>
</g>
<g>
</g>
<g>
</g>
<g>
</g>
<g>
</g>
<g>
</g>
<g>
</g>
<g>
</g>
<g>
</g>
<g>
</g>
</svg>
