<?xml version="1.0" encoding="iso-8859-1"?>
<!-- Generator: Adobe Illustrator 19.0.0, SVG Export Plug-In . SVG Version: 6.00 Build 0)  -->
<svg version="1.1" id="Capa_1" xmlns="http://www.w3.org/2000/svg" xmlns:xlink="http://www.w3.org/1999/xlink" x="0px" y="0px"
	 viewBox="0 0 512.001 512.001" style="enable-background:new 0 0 512.001 512.001;" xml:space="preserve">
<g>
	<g>
		<g>
			<path d="M109.493,416.871H402.51c4.143,0,7.5-3.358,7.5-7.5V166.695c0-4.142-3.357-7.5-7.5-7.5H194.415
				c-4.142,0-7.5,3.358-7.5,7.5c0,4.142,3.358,7.5,7.5,7.5H395.01v106.338H116.993V174.195h46.869c4.142,0,7.5-3.358,7.5-7.5
				c0-4.142-3.358-7.5-7.5-7.5h-54.369c-4.142,0-7.5,3.358-7.5,7.5v242.676C101.993,413.513,105.351,416.871,109.493,416.871z
				 M116.993,295.533H395.01v106.338H116.993V295.533z"/>
			<path d="M436.19,120.367h-33.156V36.621c0-9.488-7.682-17.207-17.123-17.207h-57.737c-9.441,0-17.123,7.719-17.123,17.207v21.621
				h-19.619c-9.441,0-17.123,7.719-17.123,17.207v44.918h-66.426c7.884-9.808,12.316-22.128,12.316-35.211
				c0-21.37-11.938-39.978-29.443-49.426c0.372-1.666,0.574-3.374,0.574-5.095v-7.442C191.33,10.404,180.986,0,168.273,0h-7.378
				c-12.714,0-23.057,10.404-23.058,23.193v7.442c0,1.725,0.2,3.432,0.572,5.097c-17.504,9.448-29.441,28.055-29.441,49.424
				c0,13.115,4.42,25.418,12.298,35.211H75.812c-6.789,0-12.312,5.542-12.312,12.354v310.625c0,6.812,5.523,12.354,12.312,12.354
				h9.34v43.947c0,6.812,5.523,12.354,12.312,12.354h48.114c6.789,0,12.312-5.542,12.312-12.354v-9.002h196.221v9.002
				c0,6.812,5.523,12.354,12.312,12.354h48.114c6.79,0,12.312-5.542,12.312-12.354V455.7h9.34c6.79,0,12.312-5.542,12.312-12.354
				V132.721C448.501,125.909,442.979,120.367,436.19,120.367z M326.05,36.621c0-1.217,0.952-2.207,2.123-2.207h57.737
				c1.171,0,2.123,0.99,2.123,2.207v83.746h-42.737V75.449c0-9.488-7.682-17.207-17.123-17.207h-2.123V36.621z M289.308,75.449
				c0-1.217,0.952-2.207,2.123-2.207h36.742c1.171,0,2.123,0.99,2.123,2.207v44.918h-40.988V75.449z M152.838,23.193
				c0-4.518,3.615-8.193,8.057-8.193h7.378c4.443,0,8.057,3.675,8.057,8.193v7.197c-3.789-0.824-7.716-1.269-11.746-1.269
				c-4.03,0-7.957,0.445-11.746,1.269h0V23.193z M164.584,44.121c22.395,0,40.614,18.408,40.614,41.035
				c0,14.265-7.163,27.293-19.162,34.851c-0.179,0.113-0.346,0.235-0.512,0.36h-41.825c-0.041-0.026-0.078-0.055-0.118-0.081
				c-12.28-7.514-19.611-20.647-19.611-35.13C123.97,62.529,142.189,44.121,164.584,44.121z M433.501,440.699h-86.363
				c-4.143,0-7.5,3.358-7.5,7.5c0,4.142,3.357,7.5,7.5,7.5h64.711V497h-42.737v-13.855c0-4.142-3.357-7.5-7.5-7.5H150.389
				c-4.142,0-7.5,3.358-7.5,7.5V497h-42.737v-41.301h216.715c4.143,0,7.5-3.358,7.5-7.5c0-4.142-3.357-7.5-7.5-7.5H78.501V135.367
				h355V440.699z"/>
			<path d="M150.15,92.656h14.434c4.142,0,7.5-3.358,7.5-7.5V65.742c0-4.142-3.358-7.5-7.5-7.5c-4.142,0-7.5,3.358-7.5,7.5v11.914
				h-6.934c-4.142,0-7.5,3.358-7.5,7.5C142.65,89.298,146.008,92.656,150.15,92.656z"/>
			<path d="M276.209,322.273h-40.416c-4.142,0-7.5,3.358-7.5,7.5c0,4.142,3.358,7.5,7.5,7.5h40.416c4.143,0,7.5-3.358,7.5-7.5
				C283.709,325.631,280.352,322.273,276.209,322.273z"/>
			<path d="M276.209,213.023c4.143,0,7.5-3.358,7.5-7.5c0-4.142-3.357-7.5-7.5-7.5h-40.416c-4.142,0-7.5,3.358-7.5,7.5
				c0,4.142,3.358,7.5,7.5,7.5H276.209z"/>
		</g>
	</g>
</g>
<g>
</g>
<g>
</g>
<g>
</g>
<g>
</g>
<g>
</g>
<g>
</g>
<g>
</g>
<g>
</g>
<g>
</g>
<g>
</g>
<g>
</g>
<g>
</g>
<g>
</g>
<g>
</g>
<g>
</g>
</svg>
