<?xml version="1.0" encoding="iso-8859-1"?>
<!-- Generator: Adobe Illustrator 19.0.0, SVG Export Plug-In . SVG Version: 6.00 Build 0)  -->
<svg version="1.1" id="Capa_1" xmlns="http://www.w3.org/2000/svg" xmlns:xlink="http://www.w3.org/1999/xlink" x="0px" y="0px"
	 viewBox="0 0 512 512" style="enable-background:new 0 0 512 512;" xml:space="preserve">
<g>
	<g>
		<g>
			<path d="M399.904,443.841c-5.002-11.065-15.338-19.31-27.853-21.05l-79.855-11.102v-25.615c0-8.282-3.723-15.7-9.564-20.641
				v-49.515h64.238h28.696c19.958,0,36.195-16.428,36.195-36.621v-97.07c0-20.193-16.237-36.621-36.195-36.621
				c-3.714,0-7.298,0.571-10.674,1.627V56.035c0-14.84-11.946-26.914-26.631-26.914h-14.438c0.059-0.729,0.097-1.463,0.097-2.207
				C323.921,12.074,311.975,0,297.291,0h-82.58c-14.684,0-26.63,12.074-26.63,26.914c0,0.744,0.038,1.478,0.097,2.207H173.74
				c-14.685,0-26.631,12.074-26.631,26.914v91.197c-3.375-1.056-6.96-1.627-10.674-1.627c-19.958,0-36.195,16.428-36.195,36.621
				v97.07c0,20.193,16.237,36.621,36.195,36.621h28.696h20.238v7.31l-34.154,17.33c-3.694,1.875-5.169,6.388-3.295,10.082
				c1.322,2.606,3.959,4.108,6.694,4.108c1.142,0,2.3-0.261,3.388-0.813l38.261-19.414c2.52-1.278,4.106-3.864,4.106-6.688v-11.914
				h29v49.515c-5.841,4.941-9.564,12.359-9.564,20.641v25.615L139.95,422.79c-12.515,1.74-22.85,9.984-27.852,21.05
				c-16.077,1.898-28.597,15.749-28.597,32.51v2.912c0,18.051,14.521,32.738,32.369,32.738h2.87
				c17.849,0,32.369-14.687,32.369-32.738v-2.912c0-1.729-0.136-3.437-0.397-5.119h71.885c-0.26,1.679-0.401,3.386-0.401,5.119
				v2.912c0,18.052,14.521,32.738,32.37,32.738h2.869c17.849,0,32.37-14.687,32.37-32.738v-2.912c0-1.716-0.147-3.428-0.412-5.119
				h71.893c-0.26,1.681-0.394,3.389-0.394,5.119v2.912c0,18.052,14.521,32.738,32.369,32.738h2.87
				c17.849,0,32.369-14.687,32.369-32.738v-2.912C428.501,459.589,415.981,445.738,399.904,443.841z M354.371,182.226
				c0-11.922,9.509-21.621,21.196-21.621c11.687,0,21.195,9.7,21.195,21.622v97.07c0,11.922-9.508,21.621-21.195,21.621h-21.196
				V277.09h3.022c14.684,0,26.63-12.074,26.63-26.914v-17.473c0-14.84-11.946-26.914-26.63-26.914h-3.022V182.226z M157.631,300.919
				h-21.196c-11.687-0.001-21.195-9.7-21.195-21.622v-97.07c0-11.922,9.508-21.621,21.195-21.621
				c11.687,0,21.196,9.699,21.196,21.621v23.563h-3.022c-14.684,0-26.63,12.074-26.63,26.914v17.473
				c0,14.84,11.946,26.914,26.63,26.914h3.022V300.919z M154.609,262.09c-6.413,0-11.63-5.345-11.63-11.914v-17.473
				c0-6.569,5.217-11.914,11.63-11.914h47.826c4.143,0,7.5-3.358,7.5-7.5c0-4.142-3.357-7.5-7.5-7.5h-29.804v-23.563
				c0-10.049-4.023-19.163-10.522-25.786V56.035c0-6.569,5.218-11.914,11.631-11.914h20.513c4.889,5.927,12.244,9.707,20.458,9.707
				h28.856c4.143,0,7.5-3.358,7.5-7.5c0-4.142-3.357-7.5-7.5-7.5h-28.856c-6.413,0-11.63-5.345-11.63-11.914
				c0-6.569,5.217-11.914,11.63-11.914h82.58c6.413,0,11.63,5.345,11.63,11.914c0,6.569-5.217,11.914-11.63,11.914h-25.824
				c-4.143,0-7.5,3.358-7.5,7.5c0,4.142,3.357,7.5,7.5,7.5h25.824c8.214,0,15.569-3.78,20.458-9.707h20.513
				c6.413,0,11.631,5.345,11.631,11.914V156.44c-6.5,6.624-10.522,15.738-10.522,25.786v23.563H231.849c-4.143,0-7.5,3.358-7.5,7.5
				c0,4.142,3.357,7.5,7.5,7.5h125.544c6.413,0,11.63,5.345,11.63,11.914v17.473c0,6.569-5.217,11.914-11.63,11.914H154.609z
				 M172.632,300.918V277.09H339.37v23.828H172.632z M244.371,315.918h23.261v43.331c-0.682-0.053-1.37-0.089-2.065-0.089h-19.131
				c-0.696,0-1.383,0.036-2.065,0.089V315.918z M136.109,479.262c0,9.781-7.792,17.738-17.369,17.738h-2.87
				c-9.577,0-17.369-7.958-17.369-17.738v-2.912c0-7.253,4.29-13.495,10.41-16.241c0.617,6.235,5.861,11.122,12.221,11.122h14.239
				c0.486,1.648,0.738,3.362,0.738,5.119V479.262z M124.011,456.23c1.166-9.492,8.516-17.263,18.004-18.582l88.18-12.259
				l3.13,30.841H124.011z M274.806,479.262c0,9.781-7.792,17.738-17.37,17.738h-2.869c-9.578,0-17.37-7.958-17.37-17.738v-2.912
				c0-1.658,0.222-3.271,0.652-4.827c4.065,5.732,10.692,9.415,18.153,9.415c7.46,0,14.086-3.681,18.151-9.412
				c0.43,1.554,0.653,3.166,0.653,4.824V479.262z M245.062,423.323l10.939-1.521l10.939,1.521l-3.637,35.838
				c-0.393,3.863-3.531,6.776-7.302,6.776c-3.77,0-6.908-2.913-7.301-6.775L245.062,423.323z M277.197,409.604l-5.612-0.78
				c-0.001,0-0.001,0-0.002,0c-0.001,0-0.001,0-0.002,0l-13.894-1.931c-1.118-0.156-2.253-0.155-3.367,0l-13.897,1.932
				c-0.001,0-0.002,0-0.003,0c-0.001,0-0.002,0-0.003,0l-5.611,0.78v-23.531c0-6.569,5.217-11.914,11.63-11.914h19.131
				c6.413,0,11.63,5.345,11.63,11.914V409.604z M278.678,456.23l3.13-30.841l88.18,12.259c9.487,1.319,16.837,9.09,18.003,18.582
				H278.678z M413.502,479.262h-0.001c0,9.781-7.792,17.738-17.369,17.738h-2.87c-9.577,0-17.369-7.958-17.369-17.738v-2.912
				c0-1.76,0.264-3.471,0.751-5.119h14.227c6.36,0,11.604-4.886,12.221-11.122c6.12,2.746,10.41,8.988,10.41,16.241V479.262z"/>
			<path d="M307.501,133.691c0-4.142-3.357-7.5-7.5-7.5h-88c-4.143,0-7.5,3.358-7.5,7.5c0,4.142,3.357,7.5,7.5,7.5h88
				C304.144,141.191,307.501,137.833,307.501,133.691z"/>
			<path d="M232.087,102.363h47.826c4.143,0,7.5-3.358,7.5-7.5c0-4.142-3.357-7.5-7.5-7.5h-47.826c-4.143,0-7.5,3.358-7.5,7.5
				C224.588,99.005,227.945,102.363,232.087,102.363z"/>
			<path d="M279.914,165.02h-47.826c-4.143,0-7.5,3.358-7.5,7.5c0,4.142,3.357,7.5,7.5,7.5h47.826c4.143,0,7.5-3.358,7.5-7.5
				C287.414,168.377,284.057,165.02,279.914,165.02z"/>
		</g>
	</g>
</g>
<g>
</g>
<g>
</g>
<g>
</g>
<g>
</g>
<g>
</g>
<g>
</g>
<g>
</g>
<g>
</g>
<g>
</g>
<g>
</g>
<g>
</g>
<g>
</g>
<g>
</g>
<g>
</g>
<g>
</g>
</svg>
