<?xml version="1.0" encoding="iso-8859-1"?>
<!-- Generator: Adobe Illustrator 19.0.0, SVG Export Plug-In . SVG Version: 6.00 Build 0)  -->
<svg version="1.1" id="Capa_1" xmlns="http://www.w3.org/2000/svg" xmlns:xlink="http://www.w3.org/1999/xlink" x="0px" y="0px"
	 viewBox="0 0 512.002 512.002" style="enable-background:new 0 0 512.002 512.002;" xml:space="preserve">
<g>
	<g>
		<g>
			<path d="M508.508,133.332c-10.735-19.341-45.484-32.33-86.518-32.33c-20.198,0-39.7,3.254-55.33,9.197
				c-15.63-5.943-35.132-9.197-55.33-9.197c-20.198,0-39.7,3.254-55.33,9.197c-15.63-5.943-35.132-9.197-55.33-9.197
				s-39.7,3.254-55.33,9.197c-15.63-5.943-35.132-9.197-55.33-9.197c-41.034,0-75.783,12.989-86.518,32.33
				C1.207,137.293,0,141.781,0,146.322v141.827c0,14.563,12.074,26.41,26.914,26.41h11.914v39.775
				c0,14.563,12.074,26.41,26.914,26.41h22.592v17.999c0,6.759,5.542,12.258,12.354,12.258h48.535
				c6.812,0,12.354-5.499,12.354-12.258v-17.999h188.848v17.999c0,6.759,5.542,12.258,12.354,12.258h48.535
				c6.812,0,12.354-5.499,12.354-12.258v-17.999h22.592c14.84,0,26.914-11.848,26.914-26.41v-39.775h11.914
				c14.84,0,26.914-11.848,26.914-26.41V146.322C512,141.781,510.793,137.293,508.508,133.332z M146.576,396.002h-43.242v-15.257
				h43.242V396.002z M408.666,396.002h-43.242v-15.257h43.242V396.002z M458.172,354.335c0,6.292-5.345,11.41-11.914,11.41H65.742
				c-6.569,0-11.914-5.118-11.914-11.41V314.56h404.344V354.335z M497,288.148c0,6.293-5.345,11.412-11.914,11.412H26.914
				c-6.569,0-11.914-5.118-11.914-11.41V182.188h128.398c4.142,0,7.5-3.357,7.5-7.5s-3.358-7.5-7.5-7.5H15v-20.866
				c0-1.95,0.506-3.811,1.503-5.527c0.028-0.048,0.056-0.097,0.083-0.146c6.588-11.949,34.56-24.647,73.424-24.647
				c19.529,0,38.159,3.266,52.457,9.194c1.84,0.764,3.906,0.764,5.746,0c14.298-5.929,32.928-9.194,52.457-9.194
				s38.159,3.266,52.457,9.194c1.84,0.764,3.906,0.764,5.746,0c14.298-5.929,32.928-9.194,52.457-9.194s38.159,3.266,52.457,9.194
				c1.84,0.764,3.906,0.764,5.746,0c14.298-5.929,32.928-9.194,52.457-9.194c38.863,0,66.835,12.698,73.423,24.646
				c0.027,0.05,0.055,0.099,0.083,0.146c0.998,1.717,1.503,3.577,1.503,5.527v20.865H173.167c-4.142,0-7.5,3.357-7.5,7.5
				s3.358,7.5,7.5,7.5H497V288.148z"/>
			<path d="M126.769,226.183c-2.89-2.967-7.639-3.031-10.605-0.14l-5.121,4.988l-5.121-4.988c-2.967-2.89-7.715-2.827-10.605,0.14
				c-2.89,2.967-2.827,7.715,0.14,10.606l4.838,4.712l-4.838,4.712c-2.968,2.89-3.03,7.638-0.14,10.606
				c1.47,1.509,3.42,2.267,5.373,2.267c1.886,0,3.774-0.707,5.232-2.127l5.121-4.988l5.121,4.988
				c1.458,1.42,3.345,2.127,5.232,2.127c1.952,0,3.903-0.758,5.373-2.267c2.89-2.967,2.827-7.715-0.14-10.606l-4.838-4.712
				l4.838-4.712C129.596,233.898,129.659,229.151,126.769,226.183z"/>
			<path d="M385.233,256.82c1.47,1.509,3.42,2.267,5.373,2.267c1.886,0,3.774-0.707,5.232-2.127l5.121-4.988l5.121,4.988
				c1.458,1.42,3.345,2.127,5.232,2.127c1.952,0,3.903-0.758,5.373-2.267c2.89-2.967,2.827-7.715-0.14-10.606l-4.838-4.712
				l4.838-4.712c2.968-2.891,3.03-7.639,0.14-10.606c-2.891-2.967-7.639-3.031-10.605-0.14l-5.121,4.988l-5.121-4.988
				c-2.967-2.89-7.715-2.827-10.605,0.14c-2.89,2.967-2.827,7.715,0.14,10.606l4.838,4.712l-4.838,4.712
				C382.405,249.104,382.343,253.852,385.233,256.82z"/>
			<path d="M240.273,256.82c1.47,1.509,3.42,2.267,5.373,2.267c1.886,0,3.775-0.707,5.233-2.128l5.121-4.988l5.12,4.987
				c1.459,1.421,3.346,2.128,5.233,2.128c1.952,0,3.903-0.758,5.373-2.267c2.89-2.967,2.828-7.715-0.139-10.605l-4.839-4.713
				l4.839-4.713c2.967-2.89,3.03-7.638,0.14-10.604c-2.891-2.967-7.639-3.032-10.606-0.139L256,231.034l-5.121-4.988
				c-2.968-2.892-7.715-2.829-10.606,0.139c-2.89,2.967-2.828,7.715,0.139,10.605l4.839,4.713l-4.839,4.713
				C237.445,249.104,237.383,253.853,240.273,256.82z"/>
		</g>
	</g>
</g>
<g>
</g>
<g>
</g>
<g>
</g>
<g>
</g>
<g>
</g>
<g>
</g>
<g>
</g>
<g>
</g>
<g>
</g>
<g>
</g>
<g>
</g>
<g>
</g>
<g>
</g>
<g>
</g>
<g>
</g>
</svg>
