<?xml version="1.0" encoding="iso-8859-1"?>
<!-- Generator: Adobe Illustrator 19.0.0, SVG Export Plug-In . SVG Version: 6.00 Build 0)  -->
<svg version="1.1" id="Capa_1" xmlns="http://www.w3.org/2000/svg" xmlns:xlink="http://www.w3.org/1999/xlink" x="0px" y="0px"
	 viewBox="0 0 512 512" style="enable-background:new 0 0 512 512;" xml:space="preserve">
<g>
	<g>
		<path d="M443.5,497h-69.031V332.686v-4.854v-24.268c0-6.812-5.51-12.354-12.283-12.354h-33.128l5.621-54.317
			c0.361-3.488-0.776-6.979-3.12-9.578c-2.324-2.576-5.64-4.054-9.098-4.054H263.5V180.02h2.066
			c21.155,0,39.495-14.873,44.445-35.284c25.926-0.327,46.919-21.769,46.919-48.093c0-18.823-11.096-35.94-27.662-43.701
			c0.159-1.604,0.239-3.218,0.239-4.834C329.508,21.581,308.191,0,281.989,0c-9.575,0-18.491,2.892-25.959,7.843
			C248.305,2.7,239.389,0,230.011,0c-26.202,0-47.519,21.581-47.519,48.107c0,1.837,0.103,3.671,0.308,5.49
			c-15.958,8.049-26.296,24.617-26.296,43.045c0,25.833,20.218,46.968,45.476,48.056c4.948,20.637,23.184,35.321,44.454,35.321
			h2.066v43.242h-58.962c-3.436,0-6.738,1.462-9.059,4.01c-2.34,2.57-3.496,6.033-3.17,9.502l5.096,54.438h-32.591
			c-6.773,0-12.283,5.542-12.283,12.354v24.268v4.854V497H68.5c-4.142,0-7.5,3.357-7.5,7.5s3.358,7.5,7.5,7.5h219.547
			c4.142,0,7.5-3.357,7.5-7.5s-3.358-7.5-7.5-7.5H152.531V345.039h34.914l6.72,71.773c0.833,8.888,8.137,15.59,16.991,15.59h87.915
			c8.768,0,16.065-6.63,16.974-15.422l7.445-71.941h35.981V497h-43.68c-4.142,0-7.5,3.357-7.5,7.5s3.358,7.5,7.5,7.5H443.5
			c4.142,0,7.5-3.357,7.5-7.5S447.642,497,443.5,497z M265.566,165.02H263.5v-20.875c6.882-1.111,13.435-3.736,19.206-7.712
			c3.828,2.637,8.001,4.678,12.384,6.08C291.31,155.613,279.32,165.02,265.566,165.02z M204.023,129.75
			c-17.931,0.001-32.519-14.852-32.519-33.107c0-14.234,8.904-26.845,22.156-31.38c3.689-1.262,5.796-5.142,4.846-8.923
			c-0.673-2.678-1.014-5.447-1.014-8.232C197.492,29.852,212.08,15,230.011,15c5.144,0,10.075,1.218,14.555,3.513
			c-6.317,8.168-10.097,18.44-10.097,29.594c0,4.016,0.493,8.016,1.466,11.887c1.009,4.019,5.087,6.451,9.101,5.447
			c4.018-1.01,6.456-5.084,5.447-9.102c-0.672-2.678-1.014-5.447-1.014-8.232c0-18.256,14.588-33.107,32.52-33.107
			s32.519,14.852,32.519,33.107c0,2.662-0.312,5.313-0.927,7.878c-0.926,3.861,1.318,7.775,5.119,8.927
			c13.678,4.144,23.231,17.191,23.231,31.73c0,18.256-14.588,33.108-32.519,33.108c-8.001,0-15.692-2.99-21.658-8.419
			c-2.86-2.603-7.233-2.604-10.096,0C271.692,126.76,264,129.75,256,129.75c-17.931,0-32.519-14.853-32.519-33.108
			c0-4.143-3.358-7.5-7.5-7.5c-4.142,0-7.5,3.357-7.5,7.5c0,11.157,3.781,21.431,10.101,29.6
			C214.097,128.539,209.156,129.75,204.023,129.75z M246.434,165.021L246.434,165.021c-13.678-0.001-25.497-9.088-29.405-22.088
			c4.589-1.316,8.959-3.341,13.004-6.03c5.48,3.635,11.738,6.159,18.468,7.244v20.874H246.434z M301.124,415.438
			c-0.116,1.12-0.999,1.965-2.054,1.965h-87.915c-1.066,0-1.95-0.854-2.056-1.988l-6.589-70.375h105.898L301.124,415.438z
			 M359.47,327.832v2.207H152.531v-2.207v-21.621h70.306c4.142,0,7.5-3.357,7.5-7.5s-3.358-7.5-7.5-7.5h-25.366l-4.957-52.949
			h126.944l-5.479,52.949h-61.805c-4.142,0-7.5,3.357-7.5,7.5s3.358,7.5,7.5,7.5H359.47V327.832z"/>
	</g>
</g>
<g>
</g>
<g>
</g>
<g>
</g>
<g>
</g>
<g>
</g>
<g>
</g>
<g>
</g>
<g>
</g>
<g>
</g>
<g>
</g>
<g>
</g>
<g>
</g>
<g>
</g>
<g>
</g>
<g>
</g>
</svg>
