<?xml version="1.0" encoding="iso-8859-1"?>
<!-- Generator: Adobe Illustrator 19.0.0, SVG Export Plug-In . SVG Version: 6.00 Build 0)  -->
<svg version="1.1" id="Capa_1" xmlns="http://www.w3.org/2000/svg" xmlns:xlink="http://www.w3.org/1999/xlink" x="0px" y="0px"
	 viewBox="0 0 512.001 512.001" style="enable-background:new 0 0 512.001 512.001;" xml:space="preserve">
<g>
	<g>
		<g>
			<path d="M281.622,353.07c0-4.143-3.357-7.5-7.5-7.5h-13.289h-4.836H77.167h-14.5c-4.143,0-7.5,3.357-7.5,7.5s3.357,7.5,7.5,7.5h7
				v105.102c0,4.143,3.357,7.5,7.5,7.5h183.666c4.143,0,7.5-3.357,7.5-7.5V360.57h5.789
				C278.266,360.57,281.622,357.213,281.622,353.07z M165.367,445.703c0,4.291,0.789,8.513,2.28,12.469h-31.563
				c-8.717-6.917-13.717-17.264-13.717-28.416c0-9.461,3.702-18.524,10.242-25.262h51.516c3.58,3.69,6.313,8.111,8.057,12.908
				h-9.953c-1.832,0-3.602,0.671-4.973,1.886C169.7,425.98,165.367,435.608,165.367,445.703z M216.31,458.172h-31.647
				c-2.766-3.549-4.297-7.937-4.297-12.469c0-4.913,1.785-9.634,4.968-13.301h30.304c3.183,3.667,4.967,8.388,4.967,13.301
				C220.604,450.23,219.075,454.627,216.31,458.172z M253.336,458.172h-20.011c1.492-3.959,2.283-8.182,2.283-12.469
				c0-10.096-4.333-19.724-11.888-26.415c-1.371-1.215-3.141-1.886-4.973-1.886H207.86c-2.485-10.002-7.987-19.135-15.76-26.022
				c-1.372-1.215-3.141-1.886-4.974-1.886h-57.515c-1.832,0-3.602,0.671-4.974,1.886c-10.975,9.723-17.27,23.71-17.27,38.376
				c0,10.306,3.037,20.117,8.575,28.416H84.667V360.57h168.666h0.003V458.172z"/>
			<path d="M448.365,458.172h-6.032V353.07c0-4.143-3.357-7.5-7.5-7.5H299.5c-4.143,0-7.5,3.357-7.5,7.5v105.103h-6.033
				c-4.143,0-7.5,3.357-7.5,7.5s3.357,7.5,7.5,7.5h14.983c0.007,0,0.013-0.001,0.019-0.001h68.856c4.143,0,7.5-3.357,7.5-7.5
				s-3.357-7.5-7.5-7.5H307V360.57h120.333v97.602H399.55c-4.143,0-7.5,3.357-7.5,7.5s3.357,7.5,7.5,7.5h32.382h2.901h13.532
				c4.143,0,7.5-3.357,7.5-7.5S452.508,458.172,448.365,458.172z"/>
			<path d="M62.022,53.828h7.645v108.984c0,4.143,3.357,7.5,7.5,7.5h357.666h14.822c4.143,0,7.5-3.357,7.5-7.5s-3.357-7.5-7.5-7.5
				h-7.322V46.328c0-4.143-3.357-7.5-7.5-7.5H159.334c-4.143,0-7.5,3.357-7.5,7.5s3.357,7.5,7.5,7.5h268v101.484H247.878
				c0.093-0.724,0.157-1.457,0.157-2.207V94.863c0-9.488-7.701-17.207-17.167-17.207H124.534c-9.466,0-17.167,7.719-17.167,17.207
				v58.242c0,0.749,0.064,1.483,0.157,2.207H84.667V53.828h44.699c4.143,0,7.5-3.357,7.5-7.5s-3.357-7.5-7.5-7.5H77.167H62.022
				c-4.143,0-7.5,3.357-7.5,7.5S57.88,53.828,62.022,53.828z M122.367,94.863c0-1.217,0.972-2.207,2.167-2.207h106.333
				c1.195,0,2.167,0.99,2.167,2.207v58.243c0,1.217-0.972,2.207-2.167,2.207H124.534c-1.195,0-2.167-0.991-2.167-2.208V94.863z"/>
			<path d="M468.668,0H43.333C36.532,0,31,5.542,31,12.354v487.292c0,6.812,5.532,12.354,12.333,12.355h425.334
				c6.801,0,12.333-5.542,12.333-12.354V12.354C481,5.542,475.469,0,468.668,0z M466,497H46V15h420V497z"/>
			<path d="M153.534,121.777h48.333c4.143,0,7.5-3.357,7.5-7.5c0-4.142-3.357-7.5-7.5-7.5h-48.333c-4.143,0-7.5,3.357-7.5,7.5
				S149.391,121.777,153.534,121.777z"/>
			<path d="M77.167,321.743H212.5c4.143,0,7.5-3.357,7.5-7.5V209.141h6.03c4.143,0,7.5-3.357,7.5-7.5s-3.357-7.5-7.5-7.5H212.5
				h-4.836H77.167h-14.5c-4.143,0-7.5,3.357-7.5,7.5s3.357,7.5,7.5,7.5h7v105.101C69.667,318.385,73.024,321.742,77.167,321.743z
				 M136.367,306.742h-14v-68.48h14V306.742z M165.367,306.742h-14v-68.48h14V306.742z M84.667,209.141H205v97.602h-24.635v-71.127
				c0-6.812-5.532-12.354-12.333-12.354H148.7c-1.714,0-3.348,0.354-4.833,0.99c-1.485-0.636-3.118-0.99-4.833-0.99h-19.333
				c-6.801,0-12.334,5.542-12.334,12.354v71.127H84.667V209.141z"/>
			<path d="M450.061,306.58h-7.726V201.641c0-4.143-3.357-7.5-7.5-7.5H251.169c-4.143,0-7.5,3.357-7.5,7.5v105.105h-7.964
				c-4.143,0-7.5,3.357-7.5,7.5s3.357,7.5,7.5,7.5h19.333c0.026,0,0.051-0.004,0.077-0.004h179.719
				c0.532,0,15.226-0.162,15.226-0.162c4.143,0,7.5-3.357,7.5-7.5C457.56,309.938,454.201,306.58,450.061,306.58z M371.221,304.795
				c-0.615,0.579-1.105,1.24-1.48,1.947h-25.872c-0.314-0.398-0.673-0.77-1.077-1.108c-4.93-4.127-7.758-10.189-7.758-16.63
				c0-7.693,4.126-14.871,10.769-18.731c2.31-1.342,3.731-3.812,3.731-6.484v-25.526h14v25.526c0,2.671,1.421,5.141,3.731,6.484
				c6.643,3.86,10.769,11.037,10.769,18.731C378.034,295.052,375.615,300.66,371.221,304.795z M427.334,306.742h-38.884
				c2.968-5.386,4.584-11.495,4.584-17.738c0-11.51-5.462-22.34-14.5-29.211v-22.028c2.824-1.076,4.833-3.801,4.833-7.003
				c0-4.143-3.357-7.5-7.5-7.5h-38.666c-4.143,0-7.5,3.357-7.5,7.5c0,3.202,2.009,5.927,4.833,7.003v22.028
				c-9.039,6.872-14.5,17.7-14.5,29.211c0,6.297,1.608,12.376,4.57,17.738h-65.937V209.14h168.667V306.742z"/>
		</g>
	</g>
</g>
<g>
</g>
<g>
</g>
<g>
</g>
<g>
</g>
<g>
</g>
<g>
</g>
<g>
</g>
<g>
</g>
<g>
</g>
<g>
</g>
<g>
</g>
<g>
</g>
<g>
</g>
<g>
</g>
<g>
</g>
</svg>
