<?xml version="1.0" encoding="iso-8859-1"?>
<!-- Generator: Adobe Illustrator 19.0.0, SVG Export Plug-In . SVG Version: 6.00 Build 0)  -->
<svg version="1.1" id="Capa_1" xmlns="http://www.w3.org/2000/svg" xmlns:xlink="http://www.w3.org/1999/xlink" x="0px" y="0px"
	 viewBox="0 0 511.999 511.999" style="enable-background:new 0 0 511.999 511.999;" xml:space="preserve">
<g>
	<g>
		<path d="M458.397,310.83l-1.516-17.407c-0.624-7.156-3.987-13.643-9.47-18.264c-5.493-4.63-12.454-6.829-19.599-6.205
			l-47.146,4.143l-5.801-31.374c-3.998-21.622-22.587-37.392-44.404-37.853v-6.936c0-6.893-5.607-12.5-12.5-12.5H176.248
			l-14.178-83.893c-0.007-0.044-0.015-0.088-0.023-0.132c-1.99-10.611,1.431-21.536,8.927-28.513
			c9.434-8.779,14.202-21.184,13.082-34.031c-0.961-11.03-6.144-21.027-14.594-28.148c-8.459-7.129-19.177-10.519-30.182-9.557
			l-37.55,3.3C86.996,4.754,76.056,17.833,77.344,32.614c0.016,0.188,0.04,0.374,0.07,0.561l24.763,151.258H96
			c-6.893,0-12.5,5.607-12.5,12.5v28.828c0,6.893,5.607,12.5,12.5,12.5h14.989l16.686,101.922
			c0.691,7.037,4.036,13.405,9.442,17.961c4.879,4.112,10.915,6.31,17.211,6.31c0.792,0,1.589-0.035,2.388-0.104l221.963-19.503
			l10.149,54.884c-25.601,36.452-67.118,58.441-112.259,58.441h-50.258c-51.492,0-98.273-28.608-122.088-74.661
			c-4.671-9.032-13.817-14.644-23.869-14.644c-9.421,0-17.978,4.814-22.889,12.88c-4.937,8.106-5.284,17.981-0.928,26.415
			c15.887,30.755,39.793,56.695,69.134,75.017c30.194,18.854,64.994,28.82,100.64,28.82h50.258c35.646,0,70.447-9.966,100.64-28.82
			c29.341-18.322,53.247-44.263,69.134-75.018c4.356-8.433,4.009-18.308-0.928-26.414c-4.912-8.064-13.468-12.88-22.889-12.88
			c-8.855,0-17.002,4.358-22.012,11.569l-6.825-36.909l40.321-3.543C448.745,338.689,459.685,325.61,458.397,310.83z M92.268,31.064
			c-0.429-6.444,4.356-12.098,10.776-12.662l37.549-3.299c6.995-0.621,13.818,1.545,19.203,6.083
			c5.394,4.546,8.702,10.932,9.316,17.981c0.715,8.212-2.331,16.139-8.358,21.748c-11.209,10.432-16.365,26.591-13.464,42.187
			l13.745,81.331h-43.659L92.268,31.064z M98.5,223.261v-23.828h216.96v23.828H98.5z M155.404,349.407
			c-3.142,0.272-6.202-0.694-8.62-2.732c-2.427-2.046-3.916-4.921-4.193-8.096c-0.016-0.188-0.04-0.375-0.07-0.562l-16.332-99.756
			h43.943l8.882,52.554l-11.165,0.981c-4.126,0.363-7.177,4.002-6.814,8.128c0.343,3.903,3.617,6.844,7.462,6.844
			c0.22,0,0.442-0.009,0.666-0.028l8.256-0.726l-4.221,17.749c-0.958,4.029,1.531,8.073,5.561,9.032
			c0.583,0.139,1.167,0.205,1.742,0.205c3.394,0,6.47-2.32,7.29-5.767l5.376-22.603l52.217-4.588
			c4.126-0.363,7.178-4.002,6.815-8.128c-0.362-4.127-4.004-7.174-8.127-6.815l-50.066,4.399l-8.659-51.237h132.616
			c6.893,0,12.5-5.607,12.5-12.5v-6.892c14.585,0.458,26.971,11.07,29.654,25.58l5.541,29.967l-97.463,8.564
			c-4.126,0.362-7.178,4.001-6.815,8.127c0.363,4.127,4.001,7.185,8.128,6.815l98.89-8.689l7.544,40.796L155.404,349.407z
			 M411.98,390.401c2.084-4.03,6.125-6.534,10.545-6.534c4.206,0,7.879,2.071,10.078,5.683c2.192,3.599,2.346,7.983,0.412,11.728
			c-30.498,59.042-90.445,95.721-156.446,95.721h-50.258c-66.001,0-125.948-36.679-156.446-95.721
			c-1.934-3.745-1.78-8.13,0.412-11.729c2.199-3.61,5.873-5.682,10.078-5.682c4.42,0,8.461,2.504,10.545,6.534
			c26.401,51.055,78.288,82.77,135.411,82.77h50.258C333.692,473.171,385.579,441.455,411.98,390.401z M390.949,328.709
			l-7.544-40.796l45.72-4.016c3.143-0.277,6.202,0.693,8.62,2.731c2.427,2.046,3.916,4.921,4.193,8.096l1.516,17.407
			c0.57,6.547-4.255,12.338-10.757,12.91L390.949,328.709z"/>
	</g>
</g>
<g>
</g>
<g>
</g>
<g>
</g>
<g>
</g>
<g>
</g>
<g>
</g>
<g>
</g>
<g>
</g>
<g>
</g>
<g>
</g>
<g>
</g>
<g>
</g>
<g>
</g>
<g>
</g>
<g>
</g>
</svg>
