<?xml version="1.0" encoding="iso-8859-1"?>
<!-- Generator: Adobe Illustrator 19.0.0, SVG Export Plug-In . SVG Version: 6.00 Build 0)  -->
<svg version="1.1" id="Capa_1" xmlns="http://www.w3.org/2000/svg" xmlns:xlink="http://www.w3.org/1999/xlink" x="0px" y="0px"
	 viewBox="0 0 512.001 512.001" style="enable-background:new 0 0 512.001 512.001;" xml:space="preserve">
<g>
	<g>
		<g>
			<path d="M499.646,166.168h-42.163c0.093-0.721,0.157-1.452,0.157-2.198V89.49c0-6.793-3.972-12.662-9.707-15.454V50.699
				c0-9.483-7.719-17.198-17.207-17.198h-58.242c-9.488,0-17.207,7.715-17.207,17.198v23.337c-5.735,2.792-9.707,8.661-9.707,15.454
				v74.48c0,0.746,0.064,1.476,0.157,2.198h-33.849c0.093-0.721,0.157-1.452,0.157-2.198V89.49c0-6.793-3.972-12.662-9.707-15.454
				V50.699c0-9.483-7.719-17.198-17.207-17.198h-58.242c-9.488,0-17.207,7.715-17.207,17.198v23.337
				c-5.735,2.792-9.707,8.661-9.707,15.454v74.48c0,0.746,0.064,1.476,0.157,2.198h-33.849c0.093-0.721,0.157-1.452,0.157-2.198
				V89.49c0-6.793-3.972-12.662-9.707-15.454V50.699c0-9.483-7.719-17.198-17.207-17.198H81.273
				c-9.488,0-17.207,7.715-17.207,17.198v23.337c-5.735,2.792-9.707,8.661-9.707,15.454v74.48c0,0.746,0.064,1.476,0.157,2.198
				H12.354C5.542,166.168,0,171.708,0,178.517v29.093c0,6.809,5.542,12.349,12.354,12.349h31.328v16.744
				c0,6.81,5.542,12.349,12.354,12.349h21.355c6.812,0,12.354-5.54,12.354-12.349v-16.744h33.997c4.142,0,7.5-3.358,7.5-7.5
				c0-4.142-3.358-7.5-7.5-7.5H82.244H51.182H15v-23.792h482v23.792h-36.182h-31.063H153.59c-4.142,0-7.5,3.358-7.5,7.5
				c0,4.142,3.358,7.5,7.5,7.5h268.666v16.744c0,6.81,5.542,12.349,12.354,12.349h21.355c6.812,0,12.354-5.54,12.354-12.349v-16.744
				h31.328c6.812,0,12.354-5.54,12.354-12.349v-29.093C512,171.708,506.458,166.168,499.646,166.168z M58.682,219.959h16.062v14.093
				H58.682V219.959z M79.066,50.699c0-1.212,0.991-2.198,2.207-2.198h58.242c1.217,0,2.207,0.986,2.207,2.198v21.593H79.066V50.699z
				 M69.357,89.49h0.002c0-1.212,0.99-2.198,2.207-2.198h77.656c1.217,0,2.207,0.986,2.207,2.198v21.894
				c-1.533-0.192-3.081-0.301-4.634-0.301c-6.542,0-12.907,1.725-18.201,4.846c-5.294-3.121-11.659-4.846-18.201-4.846
				s-12.907,1.725-18.201,4.846c-5.294-3.121-11.659-4.846-18.201-4.846c-1.553,0-3.101,0.109-4.634,0.301V89.49z M151.43,163.97
				c0,1.212-0.99,2.198-2.207,2.198H71.566c-1.216,0-2.207-0.986-2.207-2.198v-37.402c1.504-0.32,3.062-0.485,4.634-0.485
				c5.107,0,9.904,1.695,13.16,4.65c2.859,2.595,7.222,2.595,10.081,0c3.256-2.955,8.053-4.65,13.16-4.65s9.904,1.695,13.16,4.65
				c1.43,1.297,3.235,1.946,5.041,1.946c1.806,0,3.611-0.649,5.041-1.946c3.256-2.955,8.053-4.65,13.16-4.65
				c1.572,0,3.13,0.165,4.634,0.485V163.97z M224.672,50.699c0-1.212,0.99-2.198,2.207-2.198h58.242
				c1.217,0,2.207,0.986,2.207,2.198v21.593h-62.656V50.699z M214.963,89.49h0.002c0-1.212,0.99-2.198,2.207-2.198h77.656
				c1.217,0,2.207,0.986,2.207,2.198v21.894c-1.533-0.192-3.081-0.301-4.634-0.301c-6.542,0-12.907,1.725-18.201,4.846
				c-5.294-3.121-11.659-4.846-18.201-4.846s-12.907,1.725-18.201,4.846c-5.294-3.121-11.659-4.846-18.201-4.846
				c-1.553,0-3.101,0.109-4.634,0.301V89.49z M297.036,163.97c0,1.212-0.99,2.198-2.207,2.198h-77.656
				c-1.218,0-2.208-0.986-2.208-2.198v-37.402c1.504-0.32,3.062-0.485,4.634-0.485c5.107,0,9.904,1.695,13.16,4.65
				c2.859,2.595,7.222,2.595,10.081,0c3.256-2.955,8.053-4.65,13.16-4.65s9.904,1.695,13.16,4.65
				c1.43,1.297,3.235,1.946,5.041,1.946c1.806,0,3.611-0.649,5.041-1.946c3.256-2.955,8.053-4.65,13.16-4.65
				c1.572,0,3.13,0.165,4.634,0.485V163.97z M370.277,50.699c0-1.212,0.991-2.198,2.207-2.198h58.242
				c1.217,0,2.207,0.986,2.207,2.198v21.593h-62.656V50.699z M360.568,89.49h0.002c0-1.212,0.99-2.198,2.207-2.198h77.656
				c1.217,0,2.207,0.986,2.207,2.198v21.894c-1.533-0.192-3.081-0.301-4.634-0.301c-6.542,0-12.907,1.725-18.201,4.846
				c-5.294-3.121-11.659-4.846-18.201-4.846s-12.907,1.725-18.201,4.846c-5.294-3.121-11.659-4.846-18.201-4.846
				c-1.553,0-3.101,0.109-4.634,0.301V89.49z M442.641,163.97c0,1.212-0.99,2.198-2.207,2.198h-77.656
				c-1.217,0-2.208-0.986-2.208-2.198v-37.402c1.504-0.32,3.062-0.485,4.634-0.485c5.107,0,9.904,1.695,13.16,4.65
				c2.859,2.595,7.222,2.595,10.081,0c3.256-2.955,8.053-4.65,13.16-4.65s9.904,1.695,13.16,4.65
				c1.43,1.297,3.235,1.946,5.041,1.946c1.806,0,3.611-0.649,5.041-1.946c3.256-2.955,8.053-4.65,13.16-4.65
				c1.572,0,3.13,0.165,4.634,0.485V163.97z M453.318,234.053h-16.063V219.96h16.063V234.053z"/>
			<path d="M499.646,395.617h-60.069c1.924-3.753,3.018-8,3.018-12.5v-62.28c0-6.893-5.607-12.5-12.5-12.5h-48.242
				c-6.893,0-12.5,5.607-12.5,12.5v62.28c0,4.5,1.093,8.747,3.018,12.5h-29.863c1.924-3.753,3.018-8,3.018-12.5v-62.28
				c0-6.893-5.607-12.5-12.5-12.5h-48.242c-6.893,0-12.5,5.607-12.5,12.5v62.28c0,4.5,1.093,8.747,3.018,12.5h-57.641
				c9.258-9.26,14.991-22.043,14.991-36.14c0-5.233-3.278-9.705-7.883-11.5c5.101-8.062,7.883-17.469,7.883-27.291
				c0-6.809-5.542-12.349-12.354-12.349H81.759c-6.812,0-12.354,5.54-12.354,12.349c0,9.74,2.806,19.185,7.913,27.28
				c-4.621,1.787-7.913,6.267-7.913,11.511c0,14.097,5.734,26.88,14.991,36.14H12.354C5.542,395.617,0,401.156,0,407.965v29.093
				c0,6.81,5.542,12.349,12.354,12.349h31.328v16.744c0,6.81,5.542,12.349,12.354,12.349h21.355c6.812,0,12.354-5.54,12.354-12.349
				v-16.744h256.208c4.142,0,7.5-3.358,7.5-7.5c0-4.142-3.358-7.5-7.5-7.5H82.244H51.182H15v-23.791h105.545h60.964h118.272h18.242
				h78.828h18.242H497v23.791h-36.182h-31.063h-54.683c-4.142,0-7.5,3.358-7.5,7.5c0,4.142,3.358,7.5,7.5,7.5h47.183v16.744
				c0,6.81,5.542,12.349,12.354,12.349h21.355c6.812,0,12.354-5.54,12.354-12.349v-16.744h31.328c6.812,0,12.354-5.54,12.354-12.349
				v-29.093C512,401.156,506.458,395.617,499.646,395.617z M58.682,449.408h16.062v14.093H58.682V449.408z M181.51,395.617h-60.965
				v0c-19.036,0-34.682-14.794-36.044-33.489h133.052C216.191,380.823,200.546,395.617,181.51,395.617z M206.118,347.128H95.938
				c-6.684-6.223-10.766-14.739-11.435-23.791h133.051C216.893,332.451,212.825,340.896,206.118,347.128z M330.524,383.117
				c0,6.893-5.607,12.5-12.5,12.5h-18.242c-6.893,0-12.5-5.607-12.5-12.5v-59.78h43.242V383.117z M427.595,383.117
				c0,6.893-5.607,12.5-12.5,12.5h-18.242c-6.893,0-12.5-5.607-12.5-12.5v-59.78h43.242V383.117z M453.318,463.501h-16.063v-14.093
				h16.063V463.501z"/>
		</g>
	</g>
</g>
<g>
</g>
<g>
</g>
<g>
</g>
<g>
</g>
<g>
</g>
<g>
</g>
<g>
</g>
<g>
</g>
<g>
</g>
<g>
</g>
<g>
</g>
<g>
</g>
<g>
</g>
<g>
</g>
<g>
</g>
</svg>
