<?xml version="1.0" encoding="iso-8859-1"?>
<!-- Generator: Adobe Illustrator 19.0.0, SVG Export Plug-In . SVG Version: 6.00 Build 0)  -->
<svg version="1.1" id="Capa_1" xmlns="http://www.w3.org/2000/svg" xmlns:xlink="http://www.w3.org/1999/xlink" x="0px" y="0px"
	 viewBox="0 0 512.002 512.002" style="enable-background:new 0 0 512.002 512.002;" xml:space="preserve">
<g>
	<g>
		<g>
			<path d="M237.201,403.282h37.6c4.143,0,7.5-3.357,7.5-7.5c0-4.142-3.358-7.5-7.5-7.5h-37.6c-4.142,0-7.5,3.357-7.5,7.5
				S233.059,403.282,237.201,403.282z"/>
			<path d="M176.101,325.626h159.8c4.143,0,7.5-3.357,7.5-7.5V46.328c0-4.142-3.357-7.5-7.5-7.5h-94.94c-4.142,0-7.5,3.357-7.5,7.5
				s3.358,7.5,7.5,7.5h87.44v72.363h-51.74V90.01c0-6.812-5.473-12.354-12.2-12.354h-47c-6.727,0-12.2,5.542-12.2,12.354v36.182
				h-21.66V53.828h28.22c4.142,0,7.5-3.357,7.5-7.5s-3.358-7.5-7.5-7.5h-35.72c-4.142,0-7.5,3.357-7.5,7.5v271.798
				C168.601,322.269,171.959,325.626,176.101,325.626z M224.061,310.626h-13.2v-43.242h13.2V310.626z M252.261,310.626h-13.2
				v-43.242h13.2V310.626z M220.261,92.656h41.4v33.535h-41.4V92.656z M183.601,141.191h144.8v82.071h-20.626
				c1.742-3.594,2.726-7.638,2.726-11.915c0-9.263-4.748-17.829-12.22-22.704v-18.876c2.754-1.11,4.7-3.803,4.7-6.955
				c0-4.143-3.357-7.5-7.5-7.5h-37.6c-4.142,0-7.5,3.357-7.5,7.5c0,3.152,1.946,5.844,4.7,6.954v18.877
				c-7.472,4.875-12.22,13.441-12.22,22.705c0,4.276,0.984,8.32,2.726,11.914h-61.986V141.191z M288.077,200.177
				c4.44,1.716,7.424,6.205,7.424,11.172c0,6.569-5.069,11.914-11.3,11.914h-15.04c-6.231,0-11.3-5.345-11.3-11.915
				c0-4.966,2.983-9.455,7.424-11.171c2.891-1.117,4.796-3.897,4.796-6.996v-22.868h13.2v22.868
				C283.281,196.28,285.186,199.06,288.077,200.177z M183.601,238.263h144.8v72.363h-61.14v-45.889
				c0-6.812-5.473-12.354-12.2-12.354h-18.8c-1.665,0-3.252,0.342-4.7,0.956c-1.448-0.615-3.035-0.956-4.7-0.956h-18.8
				c-6.727,0-12.2,5.542-12.2,12.354v45.889h-12.26V238.263z"/>
			<path d="M381.001,12.354L381.001,12.354c0-6.812-5.473-12.354-12.2-12.354h-225.6c-6.727,0-12.2,5.542-12.2,12.354v339.747
				c0,1.722,0.352,3.363,0.984,4.854c-0.632,1.491-0.984,3.131-0.984,4.854v87.363c0,5.49,3.558,10.15,8.46,11.754v38.722
				c0,6.812,5.473,12.354,12.2,12.354h47c6.727,0,12.2-5.542,12.2-12.354v-9.002h90.28v9.002c0,6.812,5.473,12.354,12.2,12.354h47
				c6.728,0,12.2-5.542,12.2-12.354v-38.722c4.902-1.603,8.46-6.264,8.46-11.754v-87.363c0-1.722-0.352-3.363-0.984-4.854
				c0.632-1.491,0.984-3.131,0.984-4.854V12.354z M357.541,497h-41.4v-13.855c0-4.143-3.357-7.5-7.5-7.5h-105.28
				c-4.142,0-7.5,3.357-7.5,7.5V497h-41.4v-35.476h203.08V497z M366.001,446.524h-220v-82.07h220V446.524z M366.001,349.454h-220V15
				h220V349.454z"/>
		</g>
	</g>
</g>
<g>
</g>
<g>
</g>
<g>
</g>
<g>
</g>
<g>
</g>
<g>
</g>
<g>
</g>
<g>
</g>
<g>
</g>
<g>
</g>
<g>
</g>
<g>
</g>
<g>
</g>
<g>
</g>
<g>
</g>
</svg>
