<?xml version="1.0" encoding="iso-8859-1"?>
<!-- Generator: Adobe Illustrator 19.0.0, SVG Export Plug-In . SVG Version: 6.00 Build 0)  -->
<svg version="1.1" id="Capa_1" xmlns="http://www.w3.org/2000/svg" xmlns:xlink="http://www.w3.org/1999/xlink" x="0px" y="0px"
	 viewBox="0 0 512.002 512.002" style="enable-background:new 0 0 512.002 512.002;" xml:space="preserve">
<g>
	<g>
		<path d="M401.758,131.045h-7.412V46.328C394.346,20.783,373.717,0,348.361,0H163.639c-25.355,0-45.984,20.783-45.984,46.328
			v84.717h-7.412c-14.746,0-26.742,12.074-26.742,26.914v19.09c0,8.29,3.746,15.715,9.621,20.656v173.809
			c0,8.734,4.158,16.506,10.583,21.427v27.109c0,6.785,3.931,12.66,9.621,15.46v64.138c0,6.812,5.522,12.354,12.311,12.354H154.5
			c6.787,0,12.31-5.542,12.31-12.354v-18.709h178.383v18.709c0,6.812,5.522,12.354,12.31,12.354h28.863
			c6.788,0,12.311-5.542,12.311-12.354V445.2c5.687-2.801,9.621-8.662,9.621-15.444V392.94c6.425-4.92,10.583-12.693,10.583-21.427
			V197.705c5.875-4.941,9.621-12.365,9.621-20.656v-19.09C428.5,143.119,416.504,131.045,401.758,131.045z M132.654,46.328
			c0-17.274,13.899-31.328,30.984-31.328h184.723c17.085,0,30.984,14.054,30.984,31.328v84.717h-31.662V46.79
			c0-4.49-2.277-8.572-6.091-10.919c-3.793-2.334-8.429-2.53-12.401-0.525l-27.812,14.03c-3.318,1.674-7.032,2.559-10.74,2.559
			h-69.279c-3.708,0-7.422-0.885-10.74-2.559l-27.811-14.03c-3.973-2.004-8.609-1.81-12.402,0.524
			c-3.813,2.348-6.091,6.429-6.091,10.919v84.255h-31.662V46.328z M383.676,497h-23.485v-23.563c0-4.142-3.357-7.5-7.5-7.5H159.309
			c-4.143,0-7.5,3.358-7.5,7.5V497h-23.483v-59.545c10.639,0.419,21.283,1.51,31.759,3.272l15.205,2.557
			c14.518,2.441,29.34,3.679,44.057,3.679h164.329V497z M393.296,429.756c0,1.217-0.951,2.207-2.121,2.207H219.346
			c-13.886,0-27.871-1.168-41.569-3.471l-15.205-2.557c-13.603-2.288-27.472-3.518-41.271-3.665
			c-0.149-0.009-0.299-0.013-0.45-0.014c-0.008,0-0.017-0.001-0.025-0.001c-0.001,0-0.002,0-0.003,0
			c-1.168-0.002-2.118-0.991-2.118-2.207v-21.651c0.385,0.017,0.771,0.03,1.159,0.03h42.813c4.143,0,7.5-3.358,7.5-7.5
			c0-4.142-3.357-7.5-7.5-7.5h-42.813c-6.475,0-11.742-5.345-11.742-11.914V203.871c0.701,0.056,1.406,0.093,2.121,0.093H343.56
			c-13.815,21.151-37.058,40.635-67.98,56.843c-36.505,19.134-82.223,32.905-132.211,39.826c-4.104,0.568-6.969,4.355-6.4,8.458
			c0.52,3.754,3.733,6.472,7.419,6.472c0.343,0,0.689-0.023,1.038-0.072c103.902-14.385,185.919-56.94,215.593-111.527h11.083
			c-8.31,49.87-26.225,94.759-50.854,127.116c-26.068,34.247-57.28,52.349-90.262,52.349h-41.05c-4.143,0-7.5,3.358-7.5,7.5
			c0,4.142,3.357,7.5,7.5,7.5h202.201c0.389,0,0.774-0.013,1.159-0.03V429.756z M392.137,383.428H285.271
			c17.34-9.87,33.591-24.45,47.912-43.264c26.489-34.801,45.599-82.976,54.119-136.201h14.456c0.715,0,1.42-0.037,2.121-0.093
			v167.644h0C403.879,378.083,398.611,383.428,392.137,383.428z M413.499,177.049c0,6.569-5.268,11.914-11.742,11.914H110.242
			c-6.475,0-11.742-5.345-11.742-11.914v-19.09c0-6.569,5.268-11.914,11.742-11.914H279.41c4.143,0,7.5-3.358,7.5-7.5
			c0-4.142-3.357-7.5-7.5-7.5H179.315v-80.66l24.548,12.384c5.402,2.726,11.453,4.166,17.496,4.166h69.279
			c6.043,0,12.094-1.44,17.496-4.166l24.548-12.384v80.66h-25.372c-4.143,0-7.5,3.358-7.5,7.5c0,4.142,3.357,7.5,7.5,7.5h94.446
			c6.475,0,11.742,5.345,11.742,11.914V177.049z"/>
	</g>
</g>
<g>
</g>
<g>
</g>
<g>
</g>
<g>
</g>
<g>
</g>
<g>
</g>
<g>
</g>
<g>
</g>
<g>
</g>
<g>
</g>
<g>
</g>
<g>
</g>
<g>
</g>
<g>
</g>
<g>
</g>
</svg>
