<?xml version="1.0" encoding="iso-8859-1"?>
<!-- Generator: Adobe Illustrator 19.0.0, SVG Export Plug-In . SVG Version: 6.00 Build 0)  -->
<svg version="1.1" id="Capa_1" xmlns="http://www.w3.org/2000/svg" xmlns:xlink="http://www.w3.org/1999/xlink" x="0px" y="0px"
	 viewBox="0 0 512.003 512.003" style="enable-background:new 0 0 512.003 512.003;" xml:space="preserve">
<g>
	<g>
		<path d="M481.908,192.036v-30.481c0-19.604-16.428-35.554-36.621-35.554h-87.363c-11.861,0-22.425,5.504-29.121,14.019
			c-6.697-8.515-17.26-14.019-29.121-14.019h-87.363c-11.861,0-22.424,5.504-29.121,14.019c-6.696-8.515-17.26-14.019-29.121-14.019
			H66.713c-20.193,0-36.621,15.949-36.621,35.554v30.481C13.005,195.036,0,209.573,0,227.013v116.888
			c0,6.714,5.542,12.176,12.354,12.176h45.889v17.748c0,6.714,5.542,12.176,12.354,12.176h48.535
			c6.812,0,12.354-5.462,12.354-12.176v-17.748h247.09v17.748c0,6.714,5.542,12.176,12.354,12.176h48.535
			c6.812,0,12.354-5.462,12.354-12.176v-17.748h1.722h46.108c6.812,0,12.354-5.462,12.354-12.176V227.013
			C512,209.573,498.995,195.036,481.908,192.036z M58.242,341.077H15V227.013c0-11.333,9.699-20.554,21.621-20.554
			c11.922,0,21.621,9.221,21.621,20.554v11.202h-1.236c-14.841,0-26.914,11.754-26.914,26.202v9.352
			c0,14.448,12.073,26.202,26.914,26.202h1.236V341.077z M57.006,284.973c-6.569,0-11.914-5.025-11.914-11.202v-9.352
			c0-6.177,5.345-11.202,11.914-11.202H103.6c4.143,0,7.5-3.357,7.5-7.5s-3.357-7.5-7.5-7.5H73.242v-11.202
			c0-16.773-12.03-30.861-28.15-34.583v-30.875c0-11.334,9.699-20.555,21.621-20.555h87.363c11.922,0,21.621,9.221,21.621,20.554
			v56.106c0,4.143,3.357,7.5,7.5,7.5s7.5-3.357,7.5-7.5v-56.106c0-11.333,9.699-20.554,21.621-20.554h87.363
			c11.922,0,21.621,9.221,21.621,20.554c0,0.006,0.001,0.013,0.001,0.02v56.087c0,4.143,3.357,7.5,7.5,7.5s7.5-3.357,7.5-7.5
			v-56.106c0-0.004,0-0.008,0-0.013c0.007-11.327,9.703-20.541,21.621-20.541h87.363c11.922,0,21.621,9.221,21.621,20.554v30.875
			c-16.121,3.722-28.15,17.81-28.15,34.583v11.202h-89.955c-7.875,0-14.982,3.333-20,8.655c-5.018-5.323-12.125-8.655-20-8.655
			H203.197c-7.731,0-14.722,3.212-19.724,8.365c-4.917-5.141-11.922-8.365-19.69-8.365h-29.364c-4.143,0-7.5,3.357-7.5,7.5
			s3.357,7.5,7.5,7.5h29.364c6.569,0,11.914,5.025,11.914,11.202v1.298v6.756v1.298c0,6.177-5.345,11.202-11.914,11.202H57.006z
			 M321.303,272.471c0,6.893-5.607,12.5-12.5,12.5H203.197c-6.893,0-12.5-5.607-12.5-12.5v-6.756c0-6.893,5.607-12.5,12.5-12.5
			h105.605c6.893,0,12.5,5.607,12.5,12.5v6.756H321.303z M116.484,371.002H73.242v-14.924h43.242V371.002z M436.816,371.002h-43.242
			v-14.924h43.242V371.002z M124.004,341.078c-0.007,0-0.013-0.001-0.019-0.001c-0.006,0-0.013,0.001-0.019,0.001H73.242v-41.106
			h90.541c7.768,0,14.773-3.224,19.69-8.365c5.001,5.153,11.993,8.365,19.724,8.365h105.605c7.875,0,14.982-3.333,20-8.655
			c5.018,5.323,12.125,8.655,20,8.655h89.955v41.106H124.004z M348.803,284.971c-6.893,0-12.5-5.607-12.5-12.5v-6.756
			c0-6.893,5.607-12.5,12.5-12.5h105.605c6.893,0,12.5,5.607,12.5,12.5v6.756c0,6.893-5.607,12.5-12.5,12.5H348.803z M497,341.078
			h-43.242v-41.106h0.65c15.163,0,27.5-12.337,27.5-27.5v-6.756c0-15.163-12.337-27.5-27.5-27.5h-0.65v-11.202
			c0-11.333,9.699-20.554,21.621-20.554S497,215.681,497,227.013V341.078z"/>
	</g>
</g>
<g>
</g>
<g>
</g>
<g>
</g>
<g>
</g>
<g>
</g>
<g>
</g>
<g>
</g>
<g>
</g>
<g>
</g>
<g>
</g>
<g>
</g>
<g>
</g>
<g>
</g>
<g>
</g>
<g>
</g>
</svg>
