<?xml version="1.0" encoding="iso-8859-1"?>
<!-- Generator: Adobe Illustrator 19.0.0, SVG Export Plug-In . SVG Version: 6.00 Build 0)  -->
<svg version="1.1" id="Capa_1" xmlns="http://www.w3.org/2000/svg" xmlns:xlink="http://www.w3.org/1999/xlink" x="0px" y="0px"
	 viewBox="0 0 512 512" style="enable-background:new 0 0 512 512;" xml:space="preserve">
<g>
	<g>
		<path d="M372.25,97.775v-27.6C383.08,66.858,391,56.555,391,44.387V26.914C391,12.074,379.224,0,364.75,0h-217.5
			C132.776,0,121,12.074,121,26.914v17.473c0,12.169,7.92,22.471,18.75,25.789v27.6c0,4.678,2.579,8.757,6.372,10.853
			l-23.855,390.253c-0.209,3.422,1.009,6.809,3.344,9.29c2.289,2.433,5.503,3.828,8.82,3.828h28.287
			c6.268,0,11.479-4.765,12.123-11.084l10.738-105.4h140.842l10.738,105.4c0.644,6.319,5.855,11.084,12.123,11.084h28.287
			c3.317,0,6.532-1.395,8.82-3.828c2.334-2.481,3.553-5.868,3.344-9.29l-23.855-390.253
			C369.671,106.532,372.25,102.454,372.25,97.775z M174.509,356.177c-0.001,0.006-0.001,0.012-0.002,0.018l-3.163,31.045
			c-0.001,0.006-0.001,0.011-0.002,0.017L160.163,497H137.41l23.648-386.871h38.518L174.509,356.177z M187.107,380.516l1.636-16.063
			h134.512l1.636,16.063H187.107z M374.59,497h-22.753l-11.18-109.745c0-0.004-0.001-0.009-0.001-0.013l-3.163-31.05
			c0-0.004-0.001-0.008-0.001-0.013l-3.954-38.816c-0.42-4.121-4.102-7.119-8.222-6.701c-4.121,0.42-7.121,4.101-6.701,8.222
			l3.114,30.569H190.272l24.382-239.324h82.693l18.301,179.635c0.42,4.121,4.107,7.126,8.222,6.701
			c4.121-0.42,7.121-4.101,6.701-8.222l-18.146-178.115h38.518L374.59,497z M364.75,56.301H231.625c-4.142,0-7.5,3.358-7.5,7.5
			c0,4.142,3.358,7.5,7.5,7.5H357.25v23.828h-53.129h-96.242H154.75V71.301h48.75c4.142,0,7.5-3.358,7.5-7.5
			c0-4.142-3.358-7.5-7.5-7.5h-56.25c-6.203,0-11.25-5.345-11.25-11.914V26.914C136,20.345,141.047,15,147.25,15h217.5
			c6.203,0,11.25,5.345,11.25,11.914v17.473C376,50.956,370.953,56.301,364.75,56.301z"/>
	</g>
</g>
<g>
</g>
<g>
</g>
<g>
</g>
<g>
</g>
<g>
</g>
<g>
</g>
<g>
</g>
<g>
</g>
<g>
</g>
<g>
</g>
<g>
</g>
<g>
</g>
<g>
</g>
<g>
</g>
<g>
</g>
</svg>
