<?xml version="1.0" encoding="iso-8859-1"?>
<!-- Generator: Adobe Illustrator 19.0.0, SVG Export Plug-In . SVG Version: 6.00 Build 0)  -->
<svg version="1.1" id="Capa_1" xmlns="http://www.w3.org/2000/svg" xmlns:xlink="http://www.w3.org/1999/xlink" x="0px" y="0px"
	 viewBox="0 0 512.002 512.002" style="enable-background:new 0 0 512.002 512.002;" xml:space="preserve">
<g>
	<g>
		<g>
			<path d="M45.357,478.998h172.785c6.812,0,12.354-5.542,12.354-12.354V293.858c0-6.811-5.542-12.353-12.353-12.353H45.357
				c-6.812,0-12.354,5.542-12.354,12.354v172.785C33.003,473.456,38.545,478.998,45.357,478.998z M147.397,463.416
				c-0.284,0.177-0.545,0.375-0.797,0.581h-45.052c-0.079-0.047-0.152-0.1-0.234-0.145c-5.341-2.959-8.658-8.584-8.658-14.681
				c0-9.246,7.521-16.768,16.768-16.768c4.143,0,7.5-3.357,7.5-7.5v-31.328h14.121v31.328c0,4.143,3.357,7.5,7.5,7.5
				c9.246,0,16.768,7.521,16.768,16.768C155.313,455.001,152.354,460.326,147.397,463.416z M48.004,296.505h167.492v167.492h-48.843
				c2.365-4.485,3.659-9.542,3.659-14.826c0-14.934-10.358-27.494-24.268-30.873v-25.212c2.834-1.071,4.854-3.801,4.854-7.011
				c0-4.143-3.357-7.5-7.5-7.5H104.57c-4.143,0-7.5,3.357-7.5,7.5c0,3.209,2.019,5.94,4.854,7.011v25.212
				c-13.909,3.379-24.268,15.939-24.268,30.873c0,5.261,1.316,10.33,3.691,14.826H48.004V296.505z"/>
			<path d="M499.646,248.501h-74.568l10.446-41.783c0.328-1.314,0.427-2.646,0.328-3.953c4.052-5.537,6.257-12.215,6.257-19.151
				c0-12.897-7.601-24.356-19.042-29.537c-2.231-15.739-15.794-27.885-32.14-27.885s-29.908,12.146-32.14,27.885
				c-11.441,5.181-19.042,16.64-19.042,29.537c0,6.911,2.208,13.615,6.257,19.154c-0.099,1.306,0,2.636,0.328,3.95l10.446,41.783
				H263.5V12.355c0-6.812-5.542-12.354-12.354-12.354H12.354C5.542,0.001,0,5.543,0,12.355v238.793c0,1.723,0.357,3.362,0.996,4.854
				C0.357,257.492,0,259.132,0,260.855v238.793c0,6.811,5.542,12.353,12.354,12.353h238.793c1.722,0,3.363-0.356,4.854-0.996
				c1.491,0.64,3.131,0.996,4.854,0.996h238.793c6.812,0,12.354-5.542,12.354-12.354V260.855
				C512,254.043,506.458,248.501,499.646,248.501z M248.5,497.001H15v-233.5h233.5V497.001z M248.5,248.501H15v-233.5h233.5V248.501
				z M356.639,191.493c-1.227-2.425-1.892-5.118-1.892-7.878c-0.001-7.966,5.396-14.91,13.121-16.888
				c3.407-0.872,5.75-3.994,5.636-7.509c-0.007-0.207-0.02-0.412-0.033-0.617l-0.004-0.048c0.055-9.582,7.866-17.36,17.461-17.36
				c9.595,0,17.406,7.778,17.461,17.36l-0.004,0.048c-0.014,0.205-0.026,0.41-0.033,0.617c-0.114,3.515,2.229,6.637,5.636,7.509
				c7.726,1.979,13.122,8.923,13.122,16.888c0,2.768-0.656,5.459-1.881,7.88c-0.555-0.075-1.117-0.126-1.688-0.126h-65.225
				C357.749,191.369,357.191,191.419,356.639,191.493z M420.149,206.368l-10.533,42.133h-37.377l-10.533-42.133H420.149z
				 M497,497.001H263.5v-233.5H497V497.001z"/>
			<path d="M45.357,230.498h172.785c6.812,0,12.354-5.542,12.354-12.354V45.358c0-6.811-5.542-12.353-12.353-12.353H116.542
				c-4.143,0-7.5,3.357-7.5,7.5c0,4.143,3.357,7.5,7.5,7.5h98.954v167.492h-16.063v-18.709c0-6.812-5.542-12.354-12.354-12.354
				h-26.475V90.011c0-6.812-5.542-12.354-12.354-12.354h-26.767c-1.216-5.543-6.158-9.707-12.061-9.707H80.303
				c-6.812,0-12.354,5.542-12.354,12.354v135.193H48.004V48.005H85.48c4.143,0,7.5-3.357,7.5-7.5c0-4.143-3.357-7.5-7.5-7.5H45.357
				c-6.812,0-12.354,5.542-12.354,12.354v172.785C33.003,224.956,38.545,230.498,45.357,230.498z M121.777,93.894v-1.236h23.828
				v91.777h-23.828V93.894z M112.07,199.434h72.363v16.063H112.07V199.434z M82.949,82.95h23.828v7.061v3.883v90.834
				c-5.543,1.216-9.707,6.158-9.707,12.061v18.709H82.949V82.95z"/>
			<path d="M293.857,478.997h101.924c4.143,0,7.5-3.357,7.5-7.5s-3.357-7.5-7.5-7.5h-99.277V296.505h167.493v167.492H424.58
				c-4.143,0-7.5,3.357-7.5,7.5s3.357,7.5,7.5,7.5h42.063c6.812,0,12.354-5.542,12.354-12.354V293.858
				c0-6.812-5.542-12.354-12.354-12.354H293.858c-6.812,0-12.354,5.542-12.354,12.354v172.786
				C281.504,473.455,287.046,478.997,293.857,478.997z"/>
		</g>
	</g>
</g>
<g>
</g>
<g>
</g>
<g>
</g>
<g>
</g>
<g>
</g>
<g>
</g>
<g>
</g>
<g>
</g>
<g>
</g>
<g>
</g>
<g>
</g>
<g>
</g>
<g>
</g>
<g>
</g>
<g>
</g>
</svg>
