<?xml version="1.0" encoding="iso-8859-1"?>
<!-- Generator: Adobe Illustrator 19.0.0, SVG Export Plug-In . SVG Version: 6.00 Build 0)  -->
<svg version="1.1" id="Capa_1" xmlns="http://www.w3.org/2000/svg" xmlns:xlink="http://www.w3.org/1999/xlink" x="0px" y="0px"
	 viewBox="0 0 512 512" style="enable-background:new 0 0 512 512;" xml:space="preserve">
<g>
	<g>
		<path d="M485.086,166.653h-44.685c1.716-3.49,2.679-7.403,2.679-11.534v-52.344c0-6.759-5.542-12.258-12.354-12.258h-48.535
			c-6.812,0-12.354,5.499-12.354,12.258v52.344c0,4.131,0.964,8.044,2.679,11.534H343.33c1.716-3.49,2.679-7.403,2.679-11.534
			v-52.344c0-6.759-5.542-12.258-12.354-12.258H285.12c-6.812,0-12.354,5.499-12.354,12.258v52.344
			c0,4.131,0.964,8.044,2.679,11.534h-70.154c8.974-9.093,14.525-21.572,14.525-35.327c0-5.912-4.207-10.86-9.786-12.007
			c0.048-0.754,0.079-1.509,0.079-2.268C210.111,97.172,193.683,81,173.49,81c-11.865,0-22.425,5.587-29.121,14.225
			C137.673,86.587,127.113,81,115.248,81c-20.193,0-36.621,16.172-36.621,36.051c0,0.758,0.029,1.514,0.077,2.268
			c-5.577,1.148-9.784,6.095-9.784,12.007c0,13.755,5.552,26.233,14.525,35.327H12.354C5.542,166.653,0,172.152,0,178.912v28.551
			c0,6.76,5.542,12.259,12.354,12.259h7.061v194.375H7.5c-4.142,0-7.5,3.358-7.5,7.5c0,4.142,3.358,7.5,7.5,7.5h64.552
			c4.142,0,7.5-3.358,7.5-7.5c0-4.142-3.358-7.5-7.5-7.5H34.414v-51.951c0.698,0.215,1.439,0.331,2.207,0.331h70.156v51.62h-9.245
			c-4.142,0-7.5,3.358-7.5,7.5c0,4.142,3.358,7.5,7.5,7.5h94.401c4.142,0,7.5-3.358,7.5-7.5c0-4.142-3.358-7.5-7.5-7.5h-70.156
			V219.722h206.055c4.142,0,7.5-3.358,7.5-7.5c0-4.142-3.358-7.5-7.5-7.5H15v-23.068h104.247h50.245h315.594
			c6.569,0,11.914,5.174,11.914,11.534s-5.345,11.534-11.914,11.534H356.63c-4.142,0-7.5,3.358-7.5,7.5c0,4.142,3.358,7.5,7.5,7.5
			h24.17v165.824h-3.406c-18.304,0-33.196,14.892-33.196,33.196c0,6.759,5.499,12.258,12.258,12.258h102.515
			c6.76,0,12.259-5.499,12.259-12.258c0-18.304-14.892-33.196-33.196-33.196h-3.406V219.722h50.458
			c14.84,0,26.914-11.903,26.914-26.534S499.926,166.653,485.086,166.653z M34.414,219.722h72.363v32.585H36.621
			c-0.768,0-1.509,0.117-2.207,0.331V219.722z M34.414,266.975c0.698,0.215,1.439,0.331,2.207,0.331h70.156v32.586H36.621
			c-0.768,0-1.509,0.117-2.207,0.331V266.975z M34.414,314.56c0.698,0.215,1.439,0.331,2.207,0.331h70.156v32.585H36.621v0.001
			c-0.768,0-1.509,0.117-2.207,0.331V314.56z M173.49,96c11.922,0,21.621,9.443,21.621,21.051c0,0.677-0.044,1.349-0.109,2.017
			h-43.023c-0.065-0.669-0.11-1.34-0.11-2.017C151.869,105.443,161.568,96,173.49,96z M115.248,96
			c11.922,0,21.621,9.443,21.621,21.051c0,0.677-0.043,1.349-0.108,2.017H93.737c-0.065-0.669-0.11-1.341-0.11-2.017
			C93.627,105.443,103.326,96,115.248,96z M169.493,166.653h-50.246v0c-18.557,0-33.817-14.382-35.221-32.585h120.688
			C203.31,152.271,188.049,166.653,169.493,166.653z M331.01,155.119c0,6.36-5.345,11.534-11.914,11.534h-19.414
			c-6.57,0-11.914-5.174-11.914-11.534v-49.602h43.242V155.119z M428.08,155.119c0,6.36-5.345,11.534-11.914,11.534h-19.414
			c-6.569,0-11.914-5.174-11.914-11.534v-49.602h43.242V155.119z M395.8,219.722h23.828v165.823H395.8V219.722z M438.034,400.545
			c9.102,0,16.665,6.717,17.99,15.455h-96.62c1.326-8.737,8.888-15.455,17.99-15.455H438.034z"/>
	</g>
</g>
<g>
</g>
<g>
</g>
<g>
</g>
<g>
</g>
<g>
</g>
<g>
</g>
<g>
</g>
<g>
</g>
<g>
</g>
<g>
</g>
<g>
</g>
<g>
</g>
<g>
</g>
<g>
</g>
<g>
</g>
</svg>
