<?xml version="1.0" encoding="iso-8859-1"?>
<!-- Generator: Adobe Illustrator 19.0.0, SVG Export Plug-In . SVG Version: 6.00 Build 0)  -->
<svg version="1.1" id="Capa_1" xmlns="http://www.w3.org/2000/svg" xmlns:xlink="http://www.w3.org/1999/xlink" x="0px" y="0px"
	 viewBox="0 0 512.001 512.001" style="enable-background:new 0 0 512.001 512.001;" xml:space="preserve">
<g>
	<g>
		<g>
			<path d="M265.707,233.092h-19.414c-4.142,0-7.5,3.357-7.5,7.5s3.358,7.5,7.5,7.5h19.414c4.142,0,7.5-3.357,7.5-7.5
				S269.849,233.092,265.707,233.092z"/>
			<path d="M499.647,432.472H428.52v-52.424h70.98c6.893,0,12.5-5.607,12.5-12.5V339.02c0-6.893-5.607-12.5-12.5-12.5H346.98v-2.132
				c0-14.758-12.074-26.765-26.914-26.765h-37.152v-25.454h187.611c6.812,0,12.354-5.525,12.354-12.316v-44.628
				c0-0.543-0.061-1.071-0.17-1.582c0.102-0.637,0.17-1.285,0.17-1.951V38.316c0-6.791-5.542-12.316-12.354-12.316H153.752
				c-4.142,0-7.5,3.357-7.5,7.5s3.358,7.5,7.5,7.5h314.126v168.009H44.121V41h80.511c4.142,0,7.5-3.357,7.5-7.5s-3.358-7.5-7.5-7.5
				H41.475c-6.812,0-12.354,5.525-12.354,12.316v173.376c0,0.666,0.068,1.313,0.17,1.951c-0.11,0.51-0.17,1.039-0.17,1.582v44.628
				c0,6.791,5.542,12.316,12.354,12.316h187.611v25.454h-37.152c-14.84,0-26.914,12.007-26.914,26.765v2.132H12.5
				c-6.893,0-12.5,5.607-12.5,12.5v28.528c0,6.893,5.607,12.5,12.5,12.5h70.98v52.424H12.354C5.542,432.472,0,437.997,0,444.788
				v28.896C0,480.475,5.542,486,12.354,486h487.293c6.812,0,12.354-5.525,12.354-12.316v-28.896
				C512.001,437.997,506.459,432.472,499.647,432.472z M44.121,257.169v-33.16h423.758v33.16H44.121z M267.914,272.169v25.454
				h-23.828v-25.454H267.914z M180.02,324.388c0-6.487,5.345-11.765,11.914-11.765h128.133c6.569,0,11.914,5.277,11.914,11.765
				v2.132H180.02V324.388z M15,365.048V341.52h482v23.528H15z M376.368,403.577h-77.656c-9.488,0-17.207,7.686-17.207,17.132v9.632
				c0,0.723,0.06,1.431,0.148,2.131H98.48v-52.424h315.04v52.424h-20.093c0.088-0.7,0.148-1.408,0.148-2.131v-9.632
				C393.575,411.263,385.856,403.577,376.368,403.577z M497,471H15v-23.528h283.692c0.007,0,0.013,0.001,0.019,0.001
				c0.006,0,0.013-0.001,0.019-0.001h28.454c4.142,0,7.5-3.357,7.5-7.5s-3.358-7.5-7.5-7.5H298.7
				c-1.212-0.005-2.197-0.958-2.197-2.131v-9.632c0-1.176,0.99-2.132,2.207-2.132h77.656c1.217,0,2.207,0.956,2.207,2.132v9.632
				c0,1.172-0.985,2.125-2.197,2.131h-18.453c-4.142,0-7.5,3.357-7.5,7.5s3.358,7.5,7.5,7.5h18.424c0.007,0,0.013,0.001,0.019,0.001
				c0.006,0,0.013-0.001,0.019-0.001H497V471z"/>
		</g>
	</g>
</g>
<g>
</g>
<g>
</g>
<g>
</g>
<g>
</g>
<g>
</g>
<g>
</g>
<g>
</g>
<g>
</g>
<g>
</g>
<g>
</g>
<g>
</g>
<g>
</g>
<g>
</g>
<g>
</g>
<g>
</g>
</svg>
