<svg xmlns="http://www.w3.org/2000/svg" viewBox="0 0 512 512">
  <path d="M325.502 52.833v15.544h84.314v375.246h-9.183V117.138h-15.544v326.485h-59.587v15.544h99.859V52.833zM86.644 355.486h15.544v15.544H86.644z"/>
  <path d="M86.639 54.494v283.372h15.545V66.717l193.509-46.951v472.468l-193.509-46.951V389.68H86.639v67.826L311.237 512V0z"/>
  <path d="M255.762 254.446c-12.685 0-23.005 10.32-23.005 23.005s10.32 23.005 23.005 23.005c12.685.001 23.005-10.32 23.005-23.005s-10.32-23.005-23.005-23.005zm-.001 30.466c-4.113.001-7.461-3.347-7.461-7.461s3.347-7.461 7.461-7.461c4.114 0 7.461 3.347 7.461 7.461s-3.347 7.461-7.461 7.461zM385.093 83.98h15.544v15.544h-15.544z"/>
</svg>
