<svg xmlns="http://www.w3.org/2000/svg" viewBox="0 0 512 512"><path d="M360.507 171c8.284 0 15-6.716 15-15V45c0-24.813-20.187-45-45-45h-240c-24.813 0-45 20.187-45 45v422c0 24.813 20.187 45 45 45h240c24.813 0 45-20.187 45-45V356c0-8.284-6.715-15-15-15-8.284 0-15 6.716-15 15v111c0 8.271-6.729 15-15 15h-240c-8.271 0-15-6.729-15-15V45c0-8.271 6.729-15 15-15h240c8.271 0 15 6.729 15 15v111c0 8.284 6.716 15 15 15z"/><path d="M460.15 243.74l-61.421-43.301c-6.771-4.774-16.128-3.153-20.902 3.617-4.773 6.771-3.154 16.129 3.617 20.903L404.198 241h-231.19c-8.284 0-15 6.716-15 15s6.716 15 15 15h231.19l-22.754 16.042c-6.771 4.773-8.391 14.132-3.617 20.903 4.776 6.774 14.135 8.389 20.902 3.617l61.421-43.301c8.535-6.017 8.379-18.615 0-24.521z"/></svg>