<svg xmlns="http://www.w3.org/2000/svg" style="isolation:isolate" viewBox="0 0 244.238 68.181">
  <defs>
    <clipPath id="a">
      <path d="M0 0h244.238v68.181H0z"/>
    </clipPath>
  </defs>
  <g clip-path="url(#a)">
    <path d="M55.877 31.487c-5.732 0-10.396 4.664-10.396 10.396v1.898c-2.301-.822-6.753-1.898-14.294-1.898s-11.991 1.076-14.294 1.898v-1.898c0-5.732-4.664-10.396-10.396-10.396A6.505 6.505 0 0 0 0 37.985a6.484 6.484 0 0 0 4.001 5.999 1.946 1.946 0 0 1 1.197 1.797l1.299 5.198c0 4.665 3.534 8.518 8.065 9.034a3.162 3.162 0 0 0-1.81 2.851 3.168 3.168 0 1 0 6.336 0 3.154 3.154 0 0 0-1.695-2.788h27.592a3.153 3.153 0 0 0-1.694 2.788 3.168 3.168 0 1 0 6.336 0c0-1.26-.744-2.341-1.81-2.851 4.527-.516 8.06-4.369 8.06-9.034l1.3-5.198c0-.787.469-1.491 1.196-1.797a6.48 6.48 0 0 0 4.002-5.999 6.505 6.505 0 0 0-6.498-6.498zm-35.41 7.358c2.704-.494 6.224-.86 10.72-.86s8.017.366 10.721.86c1.021-4.704 4.371-8.543 8.773-10.267v-6.937c0-10.765-8.728-19.492-19.494-19.492-10.765 0-19.492 8.727-19.492 19.492v6.938c4.402 1.724 7.75 5.563 8.772 10.266zm95.27 16.274h-7.41V29.184l-7.068 25.935h-7.866l-7.011-25.821v25.821h-7.353V17.271h11.628l6.84 27.759 6.84-27.759h11.4v37.848zm10.089-16.758h11.457q-.057-1.539-.541-2.708-.485-1.168-1.283-1.937-.798-.77-1.824-1.141-1.026-.37-2.109-.37-2.223 0-3.847 1.624-1.625 1.625-1.853 4.532zm19.095 4.674h-19.323q.171 3.192 1.853 5.073 1.681 1.881 4.417 1.881 1.824 0 3.221-.826 1.396-.827 1.795-2.309h7.638q-1.311 4.332-4.56 6.669-3.249 2.337-7.752 2.337-14.022 0-14.022-15.276 0-3.249.912-5.871.912-2.622 2.651-4.503 1.738-1.881 4.246-2.878 2.508-.998 5.757-.998 6.498 0 9.833 4.161 3.334 4.161 3.334 12.54zm15.846 6.783q2.793 0 4.56-2.365 1.767-2.366 1.767-6.128 0-8.664-6.384-8.664-6.213 0-6.213 9.12 0 3.591 1.796 5.814 1.795 2.223 4.474 2.223zm-6.156 5.301h-7.125V16.815h7.296v13.908q3.135-4.389 8.322-4.389 2.736 0 4.874 1.055 2.137 1.054 3.619 2.992 1.482 1.938 2.252 4.589.769 2.65.769 5.842 0 3.534-.912 6.327t-2.508 4.731q-1.596 1.938-3.847 2.964-2.252 1.026-4.874 1.026-5.244 0-7.809-4.161l-.057 3.42zm30.153 0h-7.41V16.815h7.41v38.304zm10.146-16.758h11.457q-.057-1.539-.541-2.708-.485-1.168-1.283-1.937-.798-.77-1.824-1.141-1.026-.37-2.109-.37-2.223 0-3.847 1.624-1.625 1.625-1.853 4.532zm19.095 4.674h-19.323q.171 3.192 1.853 5.073 1.681 1.881 4.417 1.881 1.824 0 3.221-.826 1.396-.827 1.795-2.309h7.638q-1.311 4.332-4.56 6.669-3.249 2.337-7.752 2.337-14.022 0-14.022-15.276 0-3.249.912-5.871.912-2.622 2.651-4.503 1.738-1.881 4.246-2.878 2.508-.998 5.757-.998 6.498 0 9.833 4.161 3.334 4.161 3.334 12.54zm24.681 12.084h-9.063l-4.902-8.436-4.788 8.436h-8.892l9.405-14.307-9.12-13.737h8.949l4.731 8.151 4.788-8.151h8.607l-9.291 13.737 9.576 14.307z" fill-rule="evenodd"/>
  </g>
</svg>
