<svg xmlns="http://www.w3.org/2000/svg" viewBox="0 0 512 512"><path d="M488.931 34.142c-11.666-26.287-44.5-35.237-67.915-18.617L19.126 300.807C1.399 313.39-4.931 336.86 4.068 356.601l52.051 114.474c14.974 32.98 56.353 44.12 85.893 23.148 87.533-62.135 81.781-57.634 83.845-60.512l23.103-6.183a15.008 15.008 0 0 0 10.978-12.358l4.876-33.927 33.139-8.87a15.009 15.009 0 0 0 10.978-12.358l4.875-33.928 33.139-8.869a15.009 15.009 0 0 0 10.978-12.358l4.875-33.927 33.139-8.87a15.007 15.007 0 0 0 10.979-12.363l4.861-33.912 33.135-8.869a15.006 15.006 0 0 0 10.979-12.363l4.861-33.907 33.142-8.855a15.006 15.006 0 0 0 10.985-12.369l6.893-48.187c.811-5.685.741-3.963-22.841-57.096zM124.614 469.77c-14.164 10.053-33.976 4.698-41.147-11.094l-52.06-114.494c-3.051-6.693-.899-14.651 5.116-18.922l87.164-61.873 71.171 156.52-70.244 49.863zm351.934-344.396l-33.139 8.854a15.007 15.007 0 0 0-10.985 12.365l-4.861 33.912-33.135 8.869a15.007 15.007 0 0 0-10.979 12.363l-4.861 33.912-33.135 8.869a15.008 15.008 0 0 0-10.978 12.358l-4.875 33.928-33.139 8.869a15.009 15.009 0 0 0-10.978 12.358l-4.875 33.927-33.139 8.87a15.009 15.009 0 0 0-10.978 12.358l-4.876 33.927-10.98 2.939-72.011-158.366 289.79-205.707c7.968-5.655 19.107-2.586 23.06 6.321l19.954 44.958-4.88 34.116z"/><path d="M85.425 328.368c-7.562 3.401-10.932 12.282-7.527 19.836l33.249 73.751c2.504 5.555 7.974 8.845 13.702 8.845 10.819 0 18.173-11.205 13.684-21.163l-33.249-73.751c-3.406-7.554-12.296-10.921-19.859-7.518z"/></svg>