<svg viewBox="0 0 512 512" xmlns="http://www.w3.org/2000/svg">
  <path d="M90.742 180.734c-5.52 0-10 4.477-10 9.996s4.48 10 10 10 10-4.48 10-10-4.48-9.996-10-9.996zm0 0"/>
  <path d="M370.922 300.219a9.993 9.993 0 0 0-7.07-2.93c-.102.02-3.946-.195-7.07 2.93l-7.067 7.066-22.977-22.973c50.703-71.074 42.992-169.117-19.449-231.554-70.336-70.336-184.187-70.348-254.531 0-70.336 70.332-70.348 184.187 0 254.531 62.285 62.29 160.289 70.281 231.55 19.45l22.977 22.976-7.066 7.066c-3.903 3.903-3.906 10.239 0 14.145l126.422 126.41c19.535 19.547 51.156 19.559 70.695.004 19.547-19.531 19.555-51.156 0-70.695zm-49.496 35.355l-21.41-21.41c2.488-2.23 4.921-4.52 7.273-6.875a183.311 183.311 0 0 0 6.875-7.27l21.41 21.41zM66.898 293.148c-62.523-62.52-62.53-163.722 0-226.25 62.52-62.523 163.723-62.53 226.25 0 62.383 62.38 62.7 163.559 0 226.25-63.406 63.414-164.582 61.672-226.25 0zm296.954 28.282l28.277 28.28-42.418 42.419-28.281-28.277zM483.195 483.2c-11.718 11.73-30.683 11.734-42.41 0l-76.933-76.93 42.418-42.418 76.93 76.937c11.726 11.715 11.738 30.68-.005 42.41zm0 0"/>
  <path d="M279.012 81.043c-54.684-54.684-143.274-54.715-197.98-.008-54.571 54.582-54.571 143.395 0 197.98 54.714 54.712 143.253 54.715 197.972 0 54.582-54.585 54.586-143.394.008-197.972zm-14.149 183.828c-46.894 46.895-122.785 46.906-169.691.004-46.774-46.79-46.774-122.914 0-169.703 46.871-46.867 122.812-46.879 169.7.012 46.78 46.78 46.776 122.902-.009 169.687zm0 0"/>
  <path d="M180.023 80.043c-26.726 0-51.835 10.398-70.703 29.277-10.937 10.938-18.988 23.86-23.925 38.414-1.774 5.227 1.023 10.907 6.253 12.68 5.239 1.777 10.91-1.035 12.684-6.254 3.941-11.62 10.379-21.95 19.129-30.703 15.094-15.098 35.18-23.414 56.562-23.414 5.524 0 10-4.477 10-10s-4.476-10-10-10zm0 0"/>
</svg>
