<svg xmlns="http://www.w3.org/2000/svg" viewBox="0 0 512 512">
  <path d="M340.081 145.983a7.604 7.604 0 0 0-7.604 7.604v199.991a7.604 7.604 0 0 0 15.208 0V153.587c0-4.2-3.403-7.604-7.604-7.604z"/>
  <path d="M507.709 348.617l-21.61-25.11 13.423-30.289a7.606 7.606 0 0 0-1.189-8.041l-21.61-25.112 13.422-30.286a7.603 7.603 0 0 0-1.188-8.041l-21.61-25.108 13.423-30.29a7.605 7.605 0 0 0-1.189-8.041l-21.61-25.113 13.422-30.292a7.603 7.603 0 0 0-1.189-8.04l-21.61-25.113 13.422-30.295a7.605 7.605 0 0 0-1.188-8.04L436.074 2.642A7.617 7.617 0 0 0 430.308 0h-90.227a7.604 7.604 0 0 0-7.604 7.604v120.634a7.604 7.604 0 0 0 15.208 0V15.208h79.135l19.336 22.473-13.422 30.296a7.603 7.603 0 0 0 1.189 8.04l21.61 25.113-13.422 30.292a7.603 7.603 0 0 0 1.189 8.04l21.61 25.112-13.423 30.29a7.605 7.605 0 0 0 1.189 8.041l21.61 25.108-13.422 30.285a7.603 7.603 0 0 0 1.188 8.041l21.61 25.112-13.423 30.29a7.605 7.605 0 0 0 1.189 8.041l24.747 28.754a7.584 7.584 0 0 0 5.767 2.643 7.58 7.58 0 0 0 4.958-1.84 7.597 7.597 0 0 0 .809-10.722zM501.783 365.448H324.872a7.604 7.604 0 0 0-7.604 7.604v84.55c0 29.995 24.403 54.398 54.398 54.398h83.323c29.995 0 54.398-24.403 54.398-54.398v-84.55a7.604 7.604 0 0 0-7.604-7.604zm-7.604 92.154c0 21.609-17.58 39.19-39.19 39.19h-83.323c-21.609 0-39.19-17.58-39.19-39.19v-76.946h161.703v76.946z"/>
  <path d="M468.325 414.115H358.33a7.604 7.604 0 0 0-7.604 7.604v35.884c0 11.546 9.394 20.94 20.94 20.94h83.323c11.547 0 20.94-9.393 20.94-20.94v-35.884c0-4.2-3.403-7.604-7.604-7.604zm-7.603 43.487a5.738 5.738 0 0 1-5.732 5.732h-83.323a5.738 5.738 0 0 1-5.732-5.732v-28.28h94.788v28.28zM50.67 1.65H22.09c-10.83 0-19.64 8.81-19.64 19.64v73.67c0 10.829 8.809 19.64 19.64 19.64h28.58c10.83 0 19.64-8.81 19.64-19.64V21.29c0-10.83-8.81-19.64-19.64-19.64zm0 97.741H22.09a4.437 4.437 0 0 1-4.432-4.432v-73.67a4.437 4.437 0 0 1 4.432-4.432h28.58a4.437 4.437 0 0 1 4.432 4.432v73.67h.001a4.438 4.438 0 0 1-4.433 4.432zM222.3 1.65H119.417c-22.419 0-40.66 18.24-40.66 40.661v31.627c0 22.421 18.24 40.661 40.66 40.661h98.21c4.2 0 7.604-3.405 7.604-7.604v-36.83a52.85 52.85 0 0 1 44.532 39.819 7.604 7.604 0 0 0 7.382 5.781h24.441c4.2 0 7.604-3.405 7.604-7.604v-19.62c.001-47.913-38.978-86.891-86.89-86.891zm71.683 98.907H282.83a68.025 68.025 0 0 0-64.481-46.044h-.722a7.604 7.604 0 0 0-7.604 7.604v37.274h-90.606c-14.035 0-25.452-11.418-25.452-25.453V42.31c0-14.035 11.418-25.453 25.452-25.453H222.3c39.526 0 71.683 32.157 71.683 71.683v12.017zM190.174 399.431c4.2 0 7.604-3.405 7.604-7.604V127.273a7.605 7.605 0 0 0-15.208 0v184.741h-46.183V127.273a7.604 7.604 0 0 0-15.208 0v377.123a7.604 7.604 0 0 0 7.604 7.604h61.391c4.2 0 7.604-3.405 7.604-7.604v-87.221a7.604 7.604 0 0 0-15.208 0v79.618h-46.183v-169.57h46.183v64.605a7.603 7.603 0 0 0 7.604 7.603z"/>
</svg>
